<svg width="16" height="19" viewBox="0 0 16 19" fill="none" xmlns="http://www.w3.org/2000/svg">
<g style="mix-blend-mode:multiply">
<path d="M9.07812 18.3945C8.97917 18.3945 8.89323 18.3607 8.82031 18.293C8.7526 18.2305 8.71094 18.1445 8.69531 18.0352C8.57552 17.181 8.44531 16.4622 8.30469 15.8789C8.16927 15.3008 7.98698 14.8242 7.75781 14.4492C7.52865 14.0742 7.22656 13.7747 6.85156 13.5508C6.48177 13.3268 6.00781 13.1471 5.42969 13.0117C4.85677 12.8711 4.14844 12.7461 3.30469 12.6367C3.1901 12.6263 3.09896 12.5846 3.03125 12.5117C2.96354 12.4388 2.92969 12.3503 2.92969 12.2461C2.92969 12.1471 2.96354 12.0612 3.03125 11.9883C3.09896 11.9154 3.1901 11.8737 3.30469 11.8633C4.14844 11.7695 4.85938 11.6576 5.4375 11.5273C6.01562 11.3971 6.49219 11.2174 6.86719 10.9883C7.24219 10.7591 7.54427 10.4544 7.77344 10.0742C8.0026 9.69401 8.1849 9.21224 8.32031 8.62891C8.46094 8.04036 8.58594 7.31641 8.69531 6.45703C8.71094 6.35286 8.7526 6.26953 8.82031 6.20703C8.89323 6.13932 8.97917 6.10547 9.07812 6.10547C9.18229 6.10547 9.26823 6.13932 9.33594 6.20703C9.40365 6.26953 9.44792 6.35286 9.46875 6.45703C9.57812 7.31641 9.70052 8.04036 9.83594 8.62891C9.97656 9.21224 10.1589 9.69401 10.3828 10.0742C10.612 10.4544 10.9141 10.7591 11.2891 10.9883C11.6641 11.2174 12.1406 11.3971 12.7188 11.5273C13.2969 11.6576 14.0104 11.7695 14.8594 11.8633C14.9688 11.8737 15.0573 11.9154 15.125 11.9883C15.1927 12.0612 15.2266 12.1471 15.2266 12.2461C15.2266 12.3503 15.1927 12.4388 15.125 12.5117C15.0573 12.5846 14.9688 12.6263 14.8594 12.6367C14.0104 12.7305 13.2969 12.8424 12.7188 12.9727C12.1406 13.1029 11.6641 13.2826 11.2891 13.5117C10.9141 13.7357 10.612 14.0378 10.3828 14.418C10.1589 14.7982 9.97656 15.2826 9.83594 15.8711C9.70052 16.4596 9.57812 17.181 9.46875 18.0352C9.44792 18.1445 9.40365 18.2305 9.33594 18.293C9.26823 18.3607 9.18229 18.3945 9.07812 18.3945ZM3.78125 9.75391C3.625 9.75391 3.53646 9.66797 3.51562 9.49609C3.45312 8.97526 3.38542 8.56641 3.3125 8.26953C3.24479 7.97266 3.13281 7.7513 2.97656 7.60547C2.82552 7.45443 2.59635 7.33984 2.28906 7.26172C1.98698 7.18359 1.57031 7.10026 1.03906 7.01172C0.861979 6.98568 0.773438 6.89714 0.773438 6.74609C0.773438 6.60026 0.851562 6.51432 1.00781 6.48828C1.54427 6.38411 1.96615 6.29297 2.27344 6.21484C2.58073 6.13151 2.8125 6.01693 2.96875 5.87109C3.125 5.72526 3.23958 5.50911 3.3125 5.22266C3.38542 4.93099 3.45312 4.52474 3.51562 4.00391C3.53646 3.83203 3.625 3.74609 3.78125 3.74609C3.9375 3.74609 4.02604 3.82943 4.04688 3.99609C4.11458 4.52214 4.18229 4.9362 4.25 5.23828C4.32292 5.54036 4.4349 5.76953 4.58594 5.92578C4.74219 6.07682 4.97396 6.1888 5.28125 6.26172C5.58854 6.33464 6.01302 6.41016 6.55469 6.48828C6.6224 6.49349 6.67708 6.51953 6.71875 6.56641C6.76562 6.61328 6.78906 6.67318 6.78906 6.74609C6.78906 6.89193 6.71094 6.98047 6.55469 7.01172C6.01302 7.11589 5.58854 7.20964 5.28125 7.29297C4.97917 7.37109 4.75 7.48568 4.59375 7.63672C4.44271 7.78255 4.33073 8.0013 4.25781 8.29297C4.1849 8.58464 4.11458 8.99089 4.04688 9.51172C4.03646 9.57943 4.00781 9.63672 3.96094 9.68359C3.91406 9.73047 3.85417 9.75391 3.78125 9.75391ZM7.5625 4.37891C7.46354 4.37891 7.40625 4.32682 7.39062 4.22266C7.32812 3.90495 7.27344 3.65495 7.22656 3.47266C7.1849 3.29036 7.11719 3.15234 7.02344 3.05859C6.9349 2.95964 6.79688 2.88151 6.60938 2.82422C6.42188 2.76693 6.15885 2.70964 5.82031 2.65234C5.71615 2.63151 5.66406 2.57161 5.66406 2.47266C5.66406 2.37891 5.71615 2.32161 5.82031 2.30078C6.15885 2.23828 6.42188 2.18099 6.60938 2.12891C6.79688 2.07161 6.9349 1.99609 7.02344 1.90234C7.11719 1.80339 7.1849 1.66276 7.22656 1.48047C7.27344 1.29818 7.32812 1.04818 7.39062 0.730469C7.40625 0.626302 7.46354 0.574219 7.5625 0.574219C7.65625 0.574219 7.71354 0.626302 7.73438 0.730469C7.79167 1.04818 7.84375 1.29818 7.89062 1.48047C7.9375 1.66276 8.00521 1.80339 8.09375 1.90234C8.1875 1.99609 8.32812 2.07161 8.51562 2.12891C8.70312 2.18099 8.96615 2.23828 9.30469 2.30078C9.40885 2.32161 9.46094 2.37891 9.46094 2.47266C9.46094 2.57161 9.40885 2.63151 9.30469 2.65234C8.96615 2.70964 8.70312 2.76693 8.51562 2.82422C8.32812 2.88151 8.1875 2.95964 8.09375 3.05859C8.00521 3.15234 7.9375 3.29036 7.89062 3.47266C7.84375 3.65495 7.79167 3.90495 7.73438 4.22266C7.71354 4.32682 7.65625 4.37891 7.5625 4.37891Z" fill="#2E5DB0"/>
</g>
</svg>
