<svg width="19" height="24" viewBox="0 0 19 24" fill="none" xmlns="http://www.w3.org/2000/svg">
<path d="M10.5254 23.0664L10.8656 22.7L10.8645 22.699L10.5254 23.0664ZM10.3691 22.7441L9.87398 22.8136L9.87417 22.8149L10.3691 22.7441ZM9.88086 20.0488L9.39403 20.1629L9.39478 20.166L9.88086 20.0488ZM8.06445 17.1387L7.80543 17.5664L7.80808 17.5679L8.06445 17.1387ZM6.28711 16.4648L6.16791 16.9505L6.17308 16.9517L6.28711 16.4648ZM3.63086 15.9961L3.69514 15.5002L3.68565 15.499L3.67613 15.4981L3.63086 15.9961ZM3.63086 15.0293L3.67614 15.5273L3.68608 15.5262L3.63086 15.0293ZM9.90039 10.9863L9.41407 10.8701L9.41334 10.8733L9.90039 10.9863ZM10.3691 8.27148L9.87455 8.1973L9.87314 8.20836L10.3691 8.27148ZM10.5254 7.95898L10.8645 8.32639L10.8656 8.32538L10.5254 7.95898ZM11.1699 7.95898L10.8164 8.31254L10.8234 8.31961L10.8308 8.32639L11.1699 7.95898ZM11.3359 8.27148L11.8319 8.20836L11.8297 8.19079L11.8262 8.17343L11.3359 8.27148ZM11.7949 10.9863L11.3076 11.0984L11.3088 11.1035L11.7949 10.9863ZM12.4785 12.793L12.0477 13.0468L12.0503 13.0511L12.4785 12.793ZM18.0742 15.0293L18.0193 15.5263L18.0268 15.527L18.0742 15.0293ZM18.4062 15.1855L18.7726 14.8453L18.4062 15.1855ZM18.4062 15.8398L18.7726 16.1801L18.4062 15.8398ZM18.0742 15.9961L18.0268 15.4983L18.0193 15.4991L18.0742 15.9961ZM13.6113 17.0898L13.8677 17.5191L13.8721 17.5165L13.6113 17.0898ZM12.4785 18.2227L12.0503 17.9645L12.0477 17.9689L12.4785 18.2227ZM11.7949 20.0391L11.3086 19.9229L11.3077 19.9269L11.7949 20.0391ZM11.3359 22.7441L11.8271 22.8377L11.83 22.8227L11.8319 22.8076L11.3359 22.7441ZM11.1699 23.0664L10.8308 22.699L10.8234 22.7058L10.8164 22.7129L11.1699 23.0664ZM3.89453 12.0703L3.39809 12.1299L3.39816 12.1305L3.89453 12.0703ZM3.64062 10.5371L3.15308 10.6483L3.15506 10.6564L3.64062 10.5371ZM3.2207 9.70703L2.86715 10.0606L2.87324 10.0667L2.87954 10.0726L3.2207 9.70703ZM2.36133 9.27734L2.23614 9.76142L2.23813 9.76193L2.36133 9.27734ZM0.798828 8.96484L0.881043 8.47156L0.871575 8.47016L0.798828 8.96484ZM0.759766 8.31055L0.841994 8.80392L0.855073 8.80138L0.759766 8.31055ZM2.3418 7.96875L2.46501 8.4534L2.47266 8.45132L2.3418 7.96875ZM3.64062 6.72852L4.12518 6.85186L4.1257 6.84978L3.64062 6.72852ZM3.89453 5.20508L3.39816 5.14491L3.39809 5.14551L3.89453 5.20508ZM4.55859 5.19531L4.06245 5.25733L4.06268 5.25914L4.55859 5.19531ZM4.8125 6.74805L4.32454 6.85742L4.32646 6.86537L4.8125 6.74805ZM5.23242 7.60742L4.87293 7.95493L4.87882 7.96103L4.88491 7.96692L5.23242 7.60742ZM7.69336 8.31055L7.62198 8.80543L7.63844 8.8078L7.65501 8.80907L7.69336 8.31055ZM7.89844 8.4082L7.52473 8.74039L7.53449 8.75137L7.54488 8.76176L7.89844 8.4082ZM7.69336 8.96484L7.78779 9.45586L7.79142 9.45513L7.69336 8.96484ZM6.10156 9.31641L6.22676 9.80051L6.23243 9.79898L6.10156 9.31641ZM5.24219 9.74609L5.58948 10.1058L5.5897 10.1056L5.24219 9.74609ZM4.55859 12.0898L5.05291 12.1659L5.05442 12.1543L4.55859 12.0898ZM8.73828 5.47852L9.23275 5.40435L9.23107 5.39313L9.22888 5.382L8.73828 5.47852ZM8.5332 4.54102L8.0456 4.65247L8.04896 4.66554L8.5332 4.54102ZM8.2793 4.02344L7.90668 4.35683L7.91593 4.36718L7.92574 4.37699L8.2793 4.02344ZM6.77539 3.51562L6.67733 4.00592L6.68463 4.00737L6.69196 4.00862L6.77539 3.51562ZM6.77539 3.07617L6.68461 2.58443L6.67733 2.58588L6.77539 3.07617ZM7.76172 2.86133L7.89558 3.34325L7.90783 3.3395L7.76172 2.86133ZM8.2793 2.57812L7.91632 2.23425L7.91579 2.23481L8.2793 2.57812ZM8.5332 2.05078L8.04878 1.92622L8.04577 1.93937L8.5332 2.05078ZM8.73828 1.11328L9.22888 1.20979L9.23107 1.19867L9.23275 1.18745L8.73828 1.11328ZM9.16797 1.11328L9.66012 1.02453L9.65826 1.01522L9.16797 1.11328ZM9.61719 2.57812L9.24457 2.91152L9.25382 2.92186L9.26363 2.93168L9.61719 2.57812ZM10.1445 2.86133L9.99837 3.33966L10.0107 3.34309L10.1445 2.86133ZM11.1309 3.07617L11.2289 2.58583L11.2216 2.58448L11.1309 3.07617ZM11.1309 3.51562L11.2143 4.00862L11.2216 4.00737L11.2289 4.00592L11.1309 3.51562ZM9.61719 4.02344L9.25421 3.67956L9.25368 3.68013L9.61719 4.02344ZM9.16797 5.47852L9.65835 5.57659L9.66003 5.56725L9.16797 5.47852ZM10.8477 22.6934C10.8453 22.6934 10.8456 22.6932 10.848 22.6936C10.8504 22.694 10.8538 22.6949 10.8576 22.6964C10.8614 22.6979 10.8643 22.6995 10.8661 22.7007C10.8679 22.7018 10.8677 22.7019 10.8656 22.7L10.1852 23.4328C10.3682 23.6028 10.597 23.6934 10.8477 23.6934V22.6934ZM10.8645 22.699C10.8667 22.701 10.8688 22.7034 10.8705 22.7057C10.8723 22.708 10.8729 22.7094 10.8728 22.7091C10.8725 22.7086 10.8677 22.6985 10.8641 22.6734L9.87417 22.8149C9.9066 23.0419 10.0011 23.2629 10.1863 23.4338L10.8645 22.699ZM10.8643 22.6747C10.7132 21.5972 10.5478 20.6817 10.3669 19.9317L9.39478 20.166C9.56552 20.8743 9.72562 21.7556 9.87399 22.8136L10.8643 22.6747ZM10.3677 19.9348C10.1902 19.1773 9.94591 18.5279 9.62391 18.001L8.77063 18.5224C9.02154 18.933 9.23293 19.4751 9.39404 20.1629L10.3677 19.9348ZM9.62391 18.001C9.29546 17.4635 8.8596 17.0312 8.32082 16.7094L7.80808 17.5679C8.20681 17.8061 8.52615 18.1224 8.77063 18.5224L9.62391 18.001ZM8.32347 16.711C7.80304 16.3958 7.15725 16.1551 6.40114 15.978L6.17308 16.9517C6.86228 17.1131 7.40138 17.3216 7.80544 17.5664L8.32347 16.711ZM6.4063 15.9793C5.66608 15.7976 4.76099 15.6384 3.69514 15.5002L3.56658 16.4919C4.6101 16.6272 5.47585 16.7806 6.16792 16.9504L6.4063 15.9793ZM3.67613 15.4981C3.65257 15.496 3.64447 15.4919 3.64587 15.4925C3.64644 15.4928 3.64821 15.4937 3.65053 15.4954C3.65286 15.497 3.65456 15.4986 3.65546 15.4996L2.92267 16.1801C3.10422 16.3756 3.33998 16.4717 3.58559 16.494L3.67613 15.4981ZM3.65546 15.4996C3.65459 15.4987 3.65532 15.4993 3.65675 15.5016C3.65821 15.5039 3.65969 15.5068 3.66087 15.5099C3.66205 15.513 3.66245 15.515 3.6625 15.5153C3.66254 15.5155 3.66211 15.5132 3.66211 15.5078H2.66211C2.66211 15.7577 2.74782 15.9918 2.92267 16.1801L3.65546 15.4996ZM3.66211 15.5078C3.66211 15.5055 3.6623 15.5058 3.66187 15.5081C3.66143 15.5106 3.66055 15.5139 3.65905 15.5177C3.65755 15.5215 3.65594 15.5245 3.65478 15.5263C3.65366 15.528 3.65355 15.5278 3.65546 15.5258L2.92267 14.8453C2.75268 15.0284 2.66211 15.2571 2.66211 15.5078H3.66211ZM3.65546 15.5258C3.65456 15.5267 3.65286 15.5283 3.65053 15.53C3.64821 15.5317 3.64644 15.5326 3.64587 15.5329C3.64447 15.5335 3.65257 15.5294 3.67613 15.5272L3.58559 14.5314C3.33998 14.5537 3.10422 14.6498 2.92267 14.8453L3.65546 15.5258ZM3.68608 15.5262C4.752 15.4078 5.66019 15.2653 6.40674 15.0972L6.18701 14.1216C5.48825 14.279 4.61909 14.4164 3.57564 14.5324L3.68608 15.5262ZM6.40674 15.0972C7.16536 14.9263 7.81629 14.6851 8.34471 14.3622L7.82326 13.5089C7.41418 13.7589 6.87371 13.9669 6.18701 14.1216L6.40674 15.0972ZM8.34471 14.3622C8.88274 14.0334 9.31752 13.5944 9.64503 13.0511L8.78857 12.5349C8.54315 12.942 8.22272 13.2648 7.82326 13.5089L8.34471 14.3622ZM9.64503 13.0511C9.96617 12.5183 10.2102 11.8631 10.3874 11.0994L9.41334 10.8733C9.25208 11.5679 9.04034 12.1172 8.78857 12.5349L9.64503 13.0511ZM10.3867 11.1025C10.568 10.3437 10.727 9.41977 10.8651 8.33461L9.87314 8.20836C9.73781 9.27164 9.58432 10.1576 9.41408 10.8701L10.3867 11.1025ZM10.8636 8.34565C10.8666 8.32585 10.8704 8.31868 10.8701 8.31931C10.87 8.3195 10.8693 8.32072 10.868 8.32246C10.8667 8.32421 10.8654 8.32557 10.8645 8.32639L10.1863 7.59158C10.0062 7.7578 9.90855 7.97149 9.87467 8.19731L10.8636 8.34565ZM10.8656 8.32538C10.8677 8.32347 10.8679 8.32358 10.8661 8.3247C10.8643 8.32587 10.8614 8.32748 10.8576 8.32897C10.8538 8.33047 10.8504 8.33135 10.848 8.33179C10.8456 8.33222 10.8453 8.33203 10.8477 8.33203V7.33203C10.597 7.33203 10.3682 7.4226 10.1852 7.59259L10.8656 8.32538ZM10.8477 8.33203C10.858 8.33203 10.8543 8.33356 10.8426 8.32897C10.8372 8.32682 10.8316 8.32395 10.8265 8.32055C10.8214 8.31718 10.818 8.31418 10.8164 8.31254L11.5235 7.60543C11.3364 7.41832 11.0976 7.33203 10.8477 7.33203V8.33203ZM10.8308 8.32639C10.8311 8.32667 10.8312 8.3268 10.8313 8.32697C10.8315 8.32716 10.8322 8.32811 10.8333 8.33028C10.8356 8.33446 10.841 8.34618 10.8456 8.36954L11.8262 8.17343C11.7828 7.95614 11.6827 7.75186 11.5091 7.59158L10.8308 8.32639ZM10.8399 8.33461C10.9779 9.41888 11.1334 10.3413 11.3077 11.0984L12.2822 10.8742C12.1179 10.16 11.9674 9.27252 11.8319 8.20836L10.8399 8.33461ZM11.3088 11.1035C11.4923 11.8647 11.7355 12.5167 12.0477 13.0467L12.9093 12.5392C12.6616 12.1187 12.4491 11.5663 12.281 10.8691L11.3088 11.1035ZM12.0503 13.0511C12.3778 13.5944 12.8126 14.0334 13.3506 14.3622L13.8721 13.5089C13.4726 13.2648 13.1522 12.942 12.9067 12.5349L12.0503 13.0511ZM13.3506 14.3622C13.879 14.6851 14.53 14.9263 15.2886 15.0972L15.5083 14.1216C14.8216 13.9669 14.2811 13.7589 13.8721 13.5089L13.3506 14.3622ZM15.2886 15.0972C16.0354 15.2653 16.947 15.4079 18.0193 15.5263L18.1291 14.5323C17.0791 14.4164 16.2068 14.2789 15.5083 14.1216L15.2886 15.0972ZM18.0268 15.527C18.0448 15.5288 18.0497 15.5318 18.0469 15.5305C18.0457 15.53 18.044 15.529 18.0422 15.5277C18.0404 15.5264 18.0396 15.5255 18.0399 15.5258L18.7726 14.8453C18.5957 14.6547 18.3667 14.5549 18.1216 14.5315L18.0268 15.527ZM18.0399 15.5258C18.0418 15.5278 18.0417 15.528 18.0405 15.5263C18.0394 15.5245 18.0378 15.5215 18.0363 15.5177C18.0348 15.5139 18.0339 15.5106 18.0334 15.5081C18.033 15.5058 18.0332 15.5055 18.0332 15.5078H19.0332C19.0332 15.2571 18.9426 15.0284 18.7726 14.8453L18.0399 15.5258ZM18.0332 15.5078C18.0332 15.5132 18.0328 15.5155 18.0328 15.5153C18.0329 15.515 18.0333 15.513 18.0344 15.5099C18.0356 15.5068 18.0371 15.5039 18.0386 15.5016C18.04 15.4993 18.0407 15.4987 18.0399 15.4996L18.7726 16.1801C18.9475 15.9918 19.0332 15.7577 19.0332 15.5078H18.0332ZM18.0399 15.4996C18.0396 15.4999 18.0404 15.499 18.0422 15.4977C18.044 15.4964 18.0457 15.4954 18.0469 15.4949C18.0497 15.4935 18.0448 15.4966 18.0268 15.4983L18.1216 16.4938C18.3667 16.4705 18.5957 16.3707 18.7726 16.1801L18.0399 15.4996ZM18.0193 15.4991C16.947 15.6175 16.0354 15.76 15.2886 15.9282L15.5083 16.9038C16.2068 16.7465 17.0791 16.609 18.1291 16.4931L18.0193 15.4991ZM15.2886 15.9282C14.53 16.0991 13.879 16.3403 13.3506 16.6632L13.8721 17.5165C14.2811 17.2665 14.8216 17.0585 15.5083 16.9038L15.2886 15.9282ZM13.355 16.6606C12.8145 16.9833 12.3784 17.4202 12.0503 17.9645L12.9067 18.4808C13.1516 18.0746 13.4706 17.7563 13.8677 17.5191L13.355 16.6606ZM12.0477 17.9689C11.7351 18.4996 11.492 19.1554 11.3086 19.9229L12.2812 20.1553C12.4494 19.4513 12.662 18.8963 12.9093 18.4764L12.0477 17.9689ZM11.3077 19.9269C11.1335 20.6838 10.978 21.6028 10.84 22.6806L11.8319 22.8076C11.9673 21.75 12.1178 20.8657 12.2822 20.1512L11.3077 19.9269ZM10.8448 22.6506C10.8394 22.6788 10.8331 22.6931 10.8304 22.6983C10.8282 22.7026 10.8281 22.7015 10.8308 22.699L11.5091 23.4338C11.6877 23.2689 11.7853 23.0572 11.8271 22.8377L10.8448 22.6506ZM10.8164 22.7129C10.818 22.7112 10.8214 22.7082 10.8265 22.7048C10.8316 22.7014 10.8372 22.6986 10.8426 22.6964C10.8543 22.6918 10.858 22.6934 10.8477 22.6934V23.6934C11.0976 23.6934 11.3364 23.6071 11.5235 23.42L10.8164 22.7129ZM4.22656 11.8926C4.22295 11.8926 4.23698 11.892 4.26157 11.9007C4.28807 11.91 4.31835 11.9271 4.34531 11.9532C4.39958 12.0059 4.39562 12.0491 4.3909 12.0101L3.39816 12.1305C3.41949 12.3064 3.48389 12.5107 3.64883 12.6708C3.8206 12.8375 4.03513 12.8926 4.22656 12.8926V11.8926ZM4.39097 12.0107C4.31188 11.3516 4.22438 10.8176 4.12619 10.4178L3.15506 10.6564C3.23916 10.9988 3.32094 11.4869 3.39809 12.1299L4.39097 12.0107ZM4.12811 10.4259C4.03029 9.99702 3.85526 9.61534 3.56186 9.3415L2.87954 10.0726C2.97677 10.1633 3.08169 10.335 3.15314 10.6483L4.12811 10.4259ZM3.57426 9.35348C3.29824 9.07746 2.91647 8.90258 2.48453 8.79276L2.23813 9.76193C2.57442 9.84743 2.76556 9.95899 2.86715 10.0606L3.57426 9.35348ZM2.48652 8.79327C2.08816 8.69025 1.55081 8.58328 0.881028 8.47165L0.716629 9.45804C1.37497 9.56776 1.87928 9.66913 2.23614 9.76142L2.48652 8.79327ZM0.871575 8.47016C0.823066 8.46303 0.85625 8.45676 0.903358 8.50387C0.927765 8.52828 0.945873 8.55756 0.956546 8.58644C0.966584 8.6136 0.966797 8.63142 0.966797 8.63281H-0.0332031C-0.0332031 8.8306 0.0283246 9.04305 0.196251 9.21098C0.354037 9.36876 0.553236 9.4341 0.726081 9.45952L0.871575 8.47016ZM0.966797 8.63281C0.966797 8.63139 0.967024 8.64578 0.958914 8.66984C0.950262 8.69551 0.93447 8.72496 0.910009 8.75186C0.859896 8.80699 0.815159 8.80821 0.841965 8.80374L0.677566 7.81735C0.50906 7.84543 0.317839 7.91664 0.170069 8.07919C0.0177166 8.24678 -0.0332031 8.45035 -0.0332031 8.63281H0.966797ZM0.855073 8.80138C1.52937 8.67045 2.06739 8.55442 2.465 8.45333L2.2186 7.48417C1.84798 7.57839 1.33131 7.69023 0.664458 7.81971L0.855073 8.80138ZM2.47266 8.45132C2.89989 8.33546 3.27521 8.16302 3.5521 7.90459L2.86978 7.17353C2.75604 7.27969 2.55193 7.39371 2.21093 7.48618L2.47266 8.45132ZM3.5521 7.90459C3.83941 7.63644 4.01913 7.26847 4.12517 6.85186L3.15608 6.60518C3.07983 6.90471 2.97309 7.07711 2.86978 7.17353L3.5521 7.90459ZM4.1257 6.84978C4.22431 6.45534 4.31189 5.92363 4.39097 5.26465L3.39809 5.14551C3.32092 5.78861 3.23923 6.27252 3.15555 6.60725L4.1257 6.84978ZM4.3909 5.26524C4.39562 5.22633 4.39958 5.2695 4.34531 5.32217C4.31835 5.34834 4.28807 5.36542 4.26157 5.37473C4.23698 5.38336 4.22295 5.38281 4.22656 5.38281V4.38281C4.03513 4.38281 3.8206 4.43787 3.64883 4.60459C3.48389 4.76468 3.41949 4.96898 3.39816 5.14491L4.3909 5.26524ZM4.22656 5.38281C4.2345 5.38281 4.17498 5.38302 4.11337 5.32504C4.05663 5.27163 4.0584 5.22492 4.06245 5.25733L5.05473 5.1333C5.03274 4.95737 4.96616 4.75441 4.79874 4.59684C4.62645 4.43469 4.41394 4.38281 4.22656 4.38281V5.38281ZM4.06268 5.25914C4.14812 5.92288 4.23506 6.45787 4.3246 6.8574L5.3004 6.63869C5.22067 6.28301 5.13834 5.78285 5.0545 5.13148L4.06268 5.25914ZM4.32646 6.86537C4.43003 7.29444 4.60112 7.67375 4.87293 7.95493L5.59192 7.25991C5.48612 7.15047 5.37726 6.95687 5.29854 6.63073L4.32646 6.86537ZM4.88491 7.96692C5.16761 8.24019 5.55184 8.41079 5.98612 8.51383L6.217 7.54085C5.88305 7.46161 5.68786 7.35225 5.57993 7.24793L4.88491 7.96692ZM5.98612 8.51383C6.39156 8.61004 6.93911 8.70693 7.62198 8.80543L7.76474 7.81567C7.09344 7.71885 6.57979 7.62694 6.217 7.54085L5.98612 8.51383ZM7.65501 8.80907C7.64345 8.80818 7.62075 8.80442 7.59314 8.79127C7.56482 8.77779 7.54149 8.75924 7.52473 8.74039L8.27214 8.07602C8.12652 7.9122 7.93372 7.82756 7.73171 7.81202L7.65501 8.80907ZM7.54488 8.76176C7.52694 8.74381 7.51 8.71929 7.49873 8.6905C7.48783 8.66264 7.48633 8.64131 7.48633 8.63281H8.48633C8.48633 8.42362 8.41417 8.21683 8.25199 8.05465L7.54488 8.76176ZM7.48633 8.63281C7.48633 8.6341 7.48614 8.6206 7.49368 8.59799C7.50169 8.57395 7.51615 8.54668 7.53817 8.52173C7.58328 8.4706 7.62284 8.46905 7.5953 8.47455L7.79142 9.45513C7.9592 9.42158 8.14523 9.34516 8.288 9.18335C8.43519 9.01655 8.48633 8.81598 8.48633 8.63281H7.48633ZM7.59894 8.47384C6.91706 8.60497 6.37244 8.72489 5.9707 8.83384L6.23243 9.79898C6.59891 9.69959 7.11549 9.58513 7.78778 9.45585L7.59894 8.47384ZM5.97637 8.83233C5.54939 8.94276 5.17335 9.11722 4.89468 9.3866L5.5897 10.1056C5.70165 9.99737 5.89853 9.88537 6.22675 9.80048L5.97637 8.83233ZM4.89489 9.38639C4.61565 9.656 4.44174 10.027 4.33719 10.4451L5.30734 10.6877C5.38509 10.3767 5.49112 10.2008 5.58948 10.1058L4.89489 9.38639ZM4.33719 10.4451C4.23917 10.8372 4.14835 11.3671 4.06277 12.0254L5.05442 12.1543C5.13811 11.5105 5.22307 11.0247 5.30734 10.6877L4.33719 10.4451ZM4.06441 12.0138C4.06525 12.0084 4.06787 11.9972 4.07476 11.9834C4.08172 11.9695 4.09026 11.9585 4.09762 11.9511L4.80473 12.6582C4.94116 12.5218 5.02417 12.3519 5.05278 12.1659L4.06441 12.0138ZM4.09762 11.9511C4.11556 11.9332 4.14008 11.9163 4.16887 11.905C4.19673 11.8941 4.21806 11.8926 4.22656 11.8926V12.8926C4.43576 12.8926 4.64255 12.8204 4.80473 12.6582L4.09762 11.9511ZM8.95312 5.17383C8.97991 5.17383 9.06334 5.18263 9.14298 5.25503C9.21862 5.3238 9.23157 5.39647 9.23275 5.40435L8.24381 5.55269C8.26453 5.69077 8.32304 5.8611 8.4703 5.99497C8.62156 6.13247 8.80264 6.17383 8.95312 6.17383V5.17383ZM9.22888 5.382C9.15001 4.98111 9.07952 4.6579 9.01745 4.4165L8.04896 4.66554C8.10407 4.87986 8.1703 5.18165 8.24768 5.57503L9.22888 5.382ZM9.02063 4.4296C8.9558 4.14597 8.83853 3.87556 8.63285 3.66988L7.92574 4.37699C7.95444 4.40569 8.00644 4.48033 8.04577 4.65243L9.02063 4.4296ZM8.65192 3.69004C8.458 3.47331 8.1906 3.3387 7.90783 3.25229L7.61561 4.20864C7.80159 4.26547 7.87924 4.32617 7.90668 4.35683L8.65192 3.69004ZM7.90783 3.25229C7.64318 3.17143 7.29 3.0956 6.85882 3.02263L6.69196 4.00862C7.10714 4.07888 7.41151 4.14628 7.61561 4.20864L7.90783 3.25229ZM6.87345 3.02533C6.88028 3.0267 6.94504 3.0415 7.00621 3.11185C7.07089 3.18624 7.08008 3.2631 7.08008 3.29102H6.08008C6.08008 3.44263 6.12182 3.61877 6.2516 3.76803C6.37788 3.91325 6.54029 3.97851 6.67733 4.00592L6.87345 3.02533ZM7.08008 3.29102C7.08008 3.32922 7.06686 3.41097 6.99888 3.48575C6.93715 3.55365 6.87487 3.56618 6.87345 3.56646L6.67733 2.58588C6.5457 2.61221 6.38577 2.67356 6.25894 2.81308C6.12585 2.95948 6.08008 3.13563 6.08008 3.29102H7.08008ZM6.86616 3.56786C7.29465 3.48876 7.64017 3.41402 7.89554 3.34309L7.6279 2.37957C7.41452 2.43884 7.10248 2.50734 6.68462 2.58448L6.86616 3.56786ZM7.90783 3.3395C8.18544 3.25468 8.44941 3.1262 8.6428 2.92144L7.91579 2.23481C7.88783 2.26442 7.80674 2.32475 7.61561 2.38315L7.90783 3.3395ZM8.64227 2.922C8.83975 2.71355 8.95572 2.44618 9.02063 2.16219L8.04577 1.93937C8.00652 2.11111 7.95322 2.19531 7.91632 2.23425L8.64227 2.922ZM9.01745 2.1753C9.07952 1.9339 9.15001 1.61069 9.22888 1.20979L8.24768 1.01677C8.1703 1.41015 8.10407 1.71193 8.04896 1.92626L9.01745 2.1753ZM9.23275 1.18745C9.23157 1.19533 9.21862 1.268 9.14298 1.33677C9.06334 1.40917 8.97991 1.41797 8.95312 1.41797V0.417969C8.80264 0.417969 8.62156 0.459324 8.4703 0.596827C8.32304 0.730699 8.26453 0.901027 8.24381 1.03911L9.23275 1.18745ZM8.95312 1.41797C8.91492 1.41797 8.83317 1.40475 8.75839 1.33677C8.69049 1.27504 8.67796 1.21276 8.67768 1.21134L9.65826 1.01522C9.63193 0.883594 9.57058 0.723657 9.43106 0.596827C9.28467 0.463737 9.10852 0.417969 8.95312 0.417969V1.41797ZM8.67591 1.20201C8.74839 1.604 8.81601 1.93019 8.87903 2.1753L9.84753 1.92626C9.79337 1.71564 9.73077 1.41684 9.66003 1.02455L8.67591 1.20201ZM8.87903 2.1753C8.94977 2.45036 9.06291 2.70849 9.24457 2.91152L9.98981 2.24473C9.95011 2.20036 9.89398 2.10693 9.84753 1.92626L8.87903 2.1753ZM9.26363 2.93168C9.45984 3.12789 9.72041 3.25455 9.99842 3.3395L10.2906 2.38315C10.0999 2.32487 10.0089 2.26274 9.97074 2.22457L9.26363 2.93168ZM10.0107 3.34309C10.2661 3.41402 10.6116 3.48876 11.0401 3.56786L11.2216 2.58448C10.8038 2.50734 10.4917 2.43884 10.2784 2.37957L10.0107 3.34309ZM11.0328 3.56646C11.0314 3.56618 10.9691 3.55365 10.9074 3.48575C10.8394 3.41097 10.8262 3.32922 10.8262 3.29102H11.8262C11.8262 3.13563 11.7804 2.95948 11.6473 2.81308C11.5205 2.67356 11.3605 2.61221 11.2289 2.58588L11.0328 3.56646ZM10.8262 3.29102C10.8262 3.2631 10.8354 3.18624 10.9 3.11185C10.9612 3.0415 11.026 3.0267 11.0328 3.02533L11.2289 4.00592C11.366 3.97851 11.5284 3.91325 11.6546 3.76803C11.7844 3.61877 11.8262 3.44263 11.8262 3.29102H10.8262ZM11.0474 3.02263C10.6163 3.0956 10.2631 3.17143 9.99842 3.25229L10.2906 4.20864C10.4947 4.14628 10.7991 4.07888 11.2143 4.00862L11.0474 3.02263ZM9.99842 3.25229C9.7154 3.33877 9.4513 3.47152 9.25421 3.67957L9.98016 4.36731C10.0174 4.32796 10.1049 4.26539 10.2906 4.20864L9.99842 3.25229ZM9.25368 3.68013C9.06424 3.88071 8.94968 4.14178 8.87903 4.4165L9.84753 4.66554C9.89407 4.48452 9.94878 4.40054 9.98069 4.36675L9.25368 3.68013ZM8.87903 4.4165C8.81601 4.66161 8.74839 4.9878 8.67591 5.38978L9.66003 5.56725C9.73077 5.17496 9.79337 4.87615 9.84753 4.66554L8.87903 4.4165ZM8.67768 5.38046C8.67796 5.37904 8.69049 5.31676 8.75839 5.25503C8.83317 5.18704 8.91492 5.17383 8.95312 5.17383V6.17383C9.10852 6.17383 9.28467 6.12806 9.43106 5.99497C9.57058 5.86814 9.63193 5.7082 9.65826 5.57657L8.67768 5.38046Z" fill="black" fill-opacity="0.25"/>
</svg>