<svg width="20" height="24" viewBox="0 0 20 24" fill="none" xmlns="http://www.w3.org/2000/svg">
<path d="M11.3477 23.1934C11.224 23.1934 11.1165 23.151 11.0254 23.0664C10.9408 22.9883 10.8887 22.8809 10.8691 22.7441C10.7194 21.6764 10.5566 20.778 10.3809 20.0488C10.2116 19.3262 9.98372 18.7305 9.69727 18.2617C9.41081 17.793 9.0332 17.4186 8.56445 17.1387C8.10221 16.8587 7.50977 16.6341 6.78711 16.4648C6.07096 16.2891 5.18555 16.1328 4.13086 15.9961C3.98763 15.9831 3.8737 15.931 3.78906 15.8398C3.70443 15.7487 3.66211 15.638 3.66211 15.5078C3.66211 15.3841 3.70443 15.2767 3.78906 15.1855C3.8737 15.0944 3.98763 15.0423 4.13086 15.0293C5.18555 14.9121 6.07422 14.7721 6.79688 14.6094C7.51953 14.4466 8.11523 14.222 8.58398 13.9355C9.05273 13.6491 9.43034 13.2682 9.7168 12.793C10.0033 12.3177 10.2311 11.7155 10.4004 10.9863C10.5762 10.2507 10.7324 9.3457 10.8691 8.27148C10.8887 8.14128 10.9408 8.03711 11.0254 7.95898C11.1165 7.87435 11.224 7.83203 11.3477 7.83203C11.4779 7.83203 11.5853 7.87435 11.6699 7.95898C11.7546 8.03711 11.8099 8.14128 11.8359 8.27148C11.9727 9.3457 12.1257 10.2507 12.2949 10.9863C12.4707 11.7155 12.6986 12.3177 12.9785 12.793C13.265 13.2682 13.6426 13.6491 14.1113 13.9355C14.5801 14.222 15.1758 14.4466 15.8984 14.6094C16.6211 14.7721 17.513 14.9121 18.5742 15.0293C18.7109 15.0423 18.8216 15.0944 18.9062 15.1855C18.9909 15.2767 19.0332 15.3841 19.0332 15.5078C19.0332 15.638 18.9909 15.7487 18.9062 15.8398C18.8216 15.931 18.7109 15.9831 18.5742 15.9961C17.513 16.1133 16.6211 16.2533 15.8984 16.416C15.1758 16.5788 14.5801 16.8034 14.1113 17.0898C13.6426 17.3698 13.265 17.7474 12.9785 18.2227C12.6986 18.6979 12.4707 19.3034 12.2949 20.0391C12.1257 20.7747 11.9727 21.6764 11.8359 22.7441C11.8099 22.8809 11.7546 22.9883 11.6699 23.0664C11.5853 23.151 11.4779 23.1934 11.3477 23.1934ZM4.72656 12.3926C4.53125 12.3926 4.42057 12.2852 4.39453 12.0703C4.31641 11.4193 4.23177 10.9082 4.14062 10.5371C4.05599 10.166 3.91602 9.88932 3.7207 9.70703C3.5319 9.51823 3.24544 9.375 2.86133 9.27734C2.48372 9.17969 1.96289 9.07552 1.29883 8.96484C1.07747 8.93229 0.966797 8.82161 0.966797 8.63281C0.966797 8.45052 1.06445 8.3431 1.25977 8.31055C1.93034 8.18034 2.45768 8.06641 2.8418 7.96875C3.22591 7.86458 3.51562 7.72135 3.71094 7.53906C3.90625 7.35677 4.04948 7.08659 4.14062 6.72852C4.23177 6.36393 4.31641 5.85612 4.39453 5.20508C4.42057 4.99023 4.53125 4.88281 4.72656 4.88281C4.92188 4.88281 5.03255 4.98698 5.05859 5.19531C5.14323 5.85286 5.22786 6.37044 5.3125 6.74805C5.40365 7.12565 5.54362 7.41211 5.73242 7.60742C5.92773 7.79622 6.21745 7.9362 6.60156 8.02734C6.98568 8.11849 7.51628 8.21289 8.19336 8.31055C8.27799 8.31706 8.34635 8.34961 8.39844 8.4082C8.45703 8.4668 8.48633 8.54167 8.48633 8.63281C8.48633 8.8151 8.38867 8.92578 8.19336 8.96484C7.51628 9.09505 6.98568 9.21224 6.60156 9.31641C6.22396 9.41406 5.9375 9.55729 5.74219 9.74609C5.55339 9.92839 5.41341 10.2018 5.32227 10.5664C5.23112 10.931 5.14323 11.4388 5.05859 12.0898C5.04557 12.1745 5.00977 12.2461 4.95117 12.3047C4.89258 12.3633 4.81771 12.3926 4.72656 12.3926ZM9.45312 5.67383C9.32943 5.67383 9.25781 5.60872 9.23828 5.47852C9.16016 5.08138 9.0918 4.76888 9.0332 4.54102C8.98112 4.31315 8.89648 4.14062 8.7793 4.02344C8.66862 3.89974 8.49609 3.80208 8.26172 3.73047C8.02734 3.65885 7.69857 3.58724 7.27539 3.51562C7.14518 3.48958 7.08008 3.41471 7.08008 3.29102C7.08008 3.17383 7.14518 3.10221 7.27539 3.07617C7.69857 2.99805 8.02734 2.92643 8.26172 2.86133C8.49609 2.78971 8.66862 2.69531 8.7793 2.57812C8.89648 2.45443 8.98112 2.27865 9.0332 2.05078C9.0918 1.82292 9.16016 1.51042 9.23828 1.11328C9.25781 0.983073 9.32943 0.917969 9.45312 0.917969C9.57031 0.917969 9.64193 0.983073 9.66797 1.11328C9.73958 1.51042 9.80469 1.82292 9.86328 2.05078C9.92188 2.27865 10.0065 2.45443 10.1172 2.57812C10.2344 2.69531 10.4102 2.78971 10.6445 2.86133C10.8789 2.92643 11.2077 2.99805 11.6309 3.07617C11.7611 3.10221 11.8262 3.17383 11.8262 3.29102C11.8262 3.41471 11.7611 3.48958 11.6309 3.51562C11.2077 3.58724 10.8789 3.65885 10.6445 3.73047C10.4102 3.80208 10.2344 3.89974 10.1172 4.02344C10.0065 4.14062 9.92188 4.31315 9.86328 4.54102C9.80469 4.76888 9.73958 5.08138 9.66797 5.47852C9.64193 5.60872 9.57031 5.67383 9.45312 5.67383Z" fill="url(#paint0_linear_22_178)"/>
<defs>
<linearGradient id="paint0_linear_22_178" x1="-1.5" y1="20.1494" x2="21.5194" y2="20.0901" gradientUnits="userSpaceOnUse">
<stop stop-color="#2E5DB0"/>
<stop offset="1" stop-color="#55B6C3"/>
</linearGradient>
</defs>
</svg>
