<svg width="20" height="20" viewBox="0 0 20 20" fill="none" xmlns="http://www.w3.org/2000/svg">
<path d="M5 18.75C4.83429 18.7498 4.67542 18.6839 4.55824 18.5668C4.44107 18.4496 4.37517 18.2907 4.375 18.125V15H2.5C1.46625 15 0.625 14.1588 0.625 13.125V3.125C0.625 2.09125 1.46625 1.25 2.5 1.25H17.5C18.5338 1.25 19.375 2.09125 19.375 3.125V13.125C19.375 14.1588 18.5338 15 17.5 15H9.90687L5.39062 18.6131C5.27979 18.7019 5.14199 18.7502 5 18.75ZM2.5 2.5C2.155 2.5 1.875 2.78063 1.875 3.125V13.125C1.875 13.4694 2.155 13.75 2.5 13.75H5C5.16576 13.75 5.32473 13.8158 5.44194 13.9331C5.55915 14.0503 5.625 14.2092 5.625 14.375V16.825L9.29688 13.8869C9.40776 13.7982 9.54552 13.7499 9.6875 13.75H17.5C17.845 13.75 18.125 13.4694 18.125 13.125V3.125C18.125 2.78063 17.845 2.5 17.5 2.5H2.5Z" fill="#2E5DB0"/>
<path d="M15 7.5H5C4.83424 7.5 4.67527 7.43415 4.55806 7.31694C4.44085 7.19973 4.375 7.04076 4.375 6.875C4.375 6.70924 4.44085 6.55027 4.55806 6.43306C4.67527 6.31585 4.83424 6.25 5 6.25H15C15.1658 6.25 15.3247 6.31585 15.4419 6.43306C15.5592 6.55027 15.625 6.70924 15.625 6.875C15.625 7.04076 15.5592 7.19973 15.4419 7.31694C15.3247 7.43415 15.1658 7.5 15 7.5ZM10 10H5C4.83424 10 4.67527 9.93415 4.55806 9.81694C4.44085 9.69973 4.375 9.54076 4.375 9.375C4.375 9.20924 4.44085 9.05027 4.55806 8.93306C4.67527 8.81585 4.83424 8.75 5 8.75H10C10.1658 8.75 10.3247 8.81585 10.4419 8.93306C10.5592 9.05027 10.625 9.20924 10.625 9.375C10.625 9.54076 10.5592 9.69973 10.4419 9.81694C10.3247 9.93415 10.1658 10 10 10Z" fill="#2E5DB0"/>
</svg>
