<svg width="75" height="78" viewBox="0 0 75 78" fill="none" xmlns="http://www.w3.org/2000/svg">
<mask id="path-1-inside-1_850_2618" fill="white">
<path fill-rule="evenodd" clip-rule="evenodd" d="M29.6383 52.8758H45.3617C48.5175 50.9656 50.922 47.9398 52.0295 44.3448C48.7791 39.8359 43.4828 36.9002 37.5 36.9002C31.517 36.9002 26.2208 39.8359 22.9703 44.3448C24.078 47.9398 26.4825 50.9656 29.6383 52.8758ZM18.5997 11.5872L20.128 15.6125C20.1493 15.6708 20.1876 15.7215 20.2378 15.758C20.2881 15.7945 20.3481 15.8152 20.4102 15.8175L24.7106 16.027C25.0031 16.0413 25.1228 16.4097 24.8945 16.5933L21.5386 19.2906C21.4897 19.3289 21.4533 19.381 21.4341 19.44C21.4149 19.4991 21.4137 19.5626 21.4308 19.6223L22.5603 23.7772C22.637 24.0598 22.3238 24.2873 22.0788 24.127L18.4762 21.7689C18.4247 21.7342 18.364 21.7157 18.3019 21.7157C18.2398 21.7157 18.179 21.7342 18.1275 21.7689L14.5252 24.127C14.2802 24.2873 13.9669 24.0597 14.0436 23.7772L15.1731 19.6223C15.1902 19.5626 15.189 19.4991 15.1698 19.44C15.1506 19.381 15.1142 19.3289 15.0653 19.2906L11.7094 16.5933C11.4811 16.4097 11.6008 16.0414 11.8933 16.027L16.1939 15.8175C16.256 15.8152 16.316 15.7945 16.3662 15.758C16.4165 15.7215 16.4547 15.6708 16.4761 15.6125L18.0044 11.5872C18.1077 11.315 18.4964 11.315 18.5997 11.5872ZM56.8381 11.5872L58.3664 15.6125C58.3878 15.6708 58.426 15.7215 58.4763 15.758C58.5265 15.7945 58.5865 15.8152 58.6486 15.8175L62.9491 16.027C63.2416 16.0413 63.3613 16.4098 63.133 16.5933L59.777 19.2906C59.7282 19.329 59.6918 19.381 59.6726 19.4401C59.6534 19.4991 59.6522 19.5626 59.6692 19.6223L60.7988 23.7772C60.8755 24.0598 60.5622 24.2873 60.3172 24.127L56.7147 21.7689C56.6631 21.7342 56.6024 21.7157 56.5403 21.7157C56.4782 21.7157 56.4175 21.7342 56.3659 21.7689L52.7636 24.127C52.5186 24.2873 52.2053 24.0597 52.282 23.7772L53.4116 19.6223C53.4286 19.5626 53.4274 19.4991 53.4082 19.44C53.389 19.381 53.3527 19.3289 53.3038 19.2906L49.9478 16.5933C49.7195 16.4097 49.8392 16.0414 50.1317 16.027L54.4323 15.8175C54.4944 15.8152 54.5544 15.7945 54.6047 15.758C54.6549 15.7215 54.6932 15.6708 54.7145 15.6125L56.2428 11.5872C56.3463 11.3148 56.7348 11.3148 56.8381 11.5872ZM37.7977 0.842812L39.3259 4.86797C39.3473 4.92632 39.3855 4.97699 39.4358 5.0135C39.486 5.05001 39.546 5.07072 39.6081 5.07297L43.9086 5.2825C44.2011 5.29672 44.3208 5.66531 44.0925 5.84875L40.7366 8.54609C40.6877 8.58445 40.6514 8.63647 40.6322 8.69554C40.613 8.75461 40.6118 8.81806 40.6287 8.87781L41.7583 13.0327C41.835 13.3153 41.5217 13.5428 41.2767 13.3825L37.6742 11.0242C37.6227 10.9896 37.562 10.971 37.4998 10.971C37.4377 10.971 37.377 10.9896 37.3255 11.0242L33.7231 13.3825C33.4781 13.5428 33.1648 13.3152 33.2416 13.0327L34.3711 8.87781C34.3881 8.81807 34.387 8.7546 34.3678 8.69551C34.3486 8.63643 34.3122 8.5844 34.2633 8.54609L30.9073 5.84875C30.6791 5.66516 30.7987 5.29688 31.0912 5.2825L35.3917 5.07297C35.4538 5.0707 35.5138 5.04999 35.5641 5.01347C35.6143 4.97696 35.6526 4.92631 35.6739 4.86797L37.2022 0.842812C37.3056 0.570625 37.6944 0.570625 37.7977 0.842812ZM19.7984 39.862C19.7984 49.6391 27.7228 57.5634 37.4998 57.5634C47.277 57.5634 55.2014 49.6391 55.2014 39.862H75V44.9369L68.7856 47.3289C67.9971 50.6394 66.6855 53.8029 64.9005 56.7003L67.6052 62.79L60.428 69.9673L54.3403 67.2634C51.4423 69.0491 48.2778 70.3609 44.9664 71.1494L42.575 77.3622H32.425L30.033 71.1478C26.7225 70.3593 23.5589 69.0477 20.6616 67.2627L14.5719 69.9673L7.39453 62.7902L10.0984 56.7025C8.31284 53.8044 7.00109 50.64 6.21266 47.3286L0 44.937V39.862H19.7984ZM37.5002 17.235C42.4991 17.235 46.5514 21.2875 46.5514 26.2864C46.5514 31.2853 42.4989 35.3377 37.5002 35.3377C32.5013 35.3377 28.4488 31.2852 28.4488 26.2864C28.4488 21.2875 32.5013 17.235 37.5002 17.235Z"/>
</mask>
<path fill-rule="evenodd" clip-rule="evenodd" d="M29.6383 52.8758H45.3617C48.5175 50.9656 50.922 47.9398 52.0295 44.3448C48.7791 39.8359 43.4828 36.9002 37.5 36.9002C31.517 36.9002 26.2208 39.8359 22.9703 44.3448C24.078 47.9398 26.4825 50.9656 29.6383 52.8758ZM18.5997 11.5872L20.128 15.6125C20.1493 15.6708 20.1876 15.7215 20.2378 15.758C20.2881 15.7945 20.3481 15.8152 20.4102 15.8175L24.7106 16.027C25.0031 16.0413 25.1228 16.4097 24.8945 16.5933L21.5386 19.2906C21.4897 19.3289 21.4533 19.381 21.4341 19.44C21.4149 19.4991 21.4137 19.5626 21.4308 19.6223L22.5603 23.7772C22.637 24.0598 22.3238 24.2873 22.0788 24.127L18.4762 21.7689C18.4247 21.7342 18.364 21.7157 18.3019 21.7157C18.2398 21.7157 18.179 21.7342 18.1275 21.7689L14.5252 24.127C14.2802 24.2873 13.9669 24.0597 14.0436 23.7772L15.1731 19.6223C15.1902 19.5626 15.189 19.4991 15.1698 19.44C15.1506 19.381 15.1142 19.3289 15.0653 19.2906L11.7094 16.5933C11.4811 16.4097 11.6008 16.0414 11.8933 16.027L16.1939 15.8175C16.256 15.8152 16.316 15.7945 16.3662 15.758C16.4165 15.7215 16.4547 15.6708 16.4761 15.6125L18.0044 11.5872C18.1077 11.315 18.4964 11.315 18.5997 11.5872ZM56.8381 11.5872L58.3664 15.6125C58.3878 15.6708 58.426 15.7215 58.4763 15.758C58.5265 15.7945 58.5865 15.8152 58.6486 15.8175L62.9491 16.027C63.2416 16.0413 63.3613 16.4098 63.133 16.5933L59.777 19.2906C59.7282 19.329 59.6918 19.381 59.6726 19.4401C59.6534 19.4991 59.6522 19.5626 59.6692 19.6223L60.7988 23.7772C60.8755 24.0598 60.5622 24.2873 60.3172 24.127L56.7147 21.7689C56.6631 21.7342 56.6024 21.7157 56.5403 21.7157C56.4782 21.7157 56.4175 21.7342 56.3659 21.7689L52.7636 24.127C52.5186 24.2873 52.2053 24.0597 52.282 23.7772L53.4116 19.6223C53.4286 19.5626 53.4274 19.4991 53.4082 19.44C53.389 19.381 53.3527 19.3289 53.3038 19.2906L49.9478 16.5933C49.7195 16.4097 49.8392 16.0414 50.1317 16.027L54.4323 15.8175C54.4944 15.8152 54.5544 15.7945 54.6047 15.758C54.6549 15.7215 54.6932 15.6708 54.7145 15.6125L56.2428 11.5872C56.3463 11.3148 56.7348 11.3148 56.8381 11.5872ZM37.7977 0.842812L39.3259 4.86797C39.3473 4.92632 39.3855 4.97699 39.4358 5.0135C39.486 5.05001 39.546 5.07072 39.6081 5.07297L43.9086 5.2825C44.2011 5.29672 44.3208 5.66531 44.0925 5.84875L40.7366 8.54609C40.6877 8.58445 40.6514 8.63647 40.6322 8.69554C40.613 8.75461 40.6118 8.81806 40.6287 8.87781L41.7583 13.0327C41.835 13.3153 41.5217 13.5428 41.2767 13.3825L37.6742 11.0242C37.6227 10.9896 37.562 10.971 37.4998 10.971C37.4377 10.971 37.377 10.9896 37.3255 11.0242L33.7231 13.3825C33.4781 13.5428 33.1648 13.3152 33.2416 13.0327L34.3711 8.87781C34.3881 8.81807 34.387 8.7546 34.3678 8.69551C34.3486 8.63643 34.3122 8.5844 34.2633 8.54609L30.9073 5.84875C30.6791 5.66516 30.7987 5.29688 31.0912 5.2825L35.3917 5.07297C35.4538 5.0707 35.5138 5.04999 35.5641 5.01347C35.6143 4.97696 35.6526 4.92631 35.6739 4.86797L37.2022 0.842812C37.3056 0.570625 37.6944 0.570625 37.7977 0.842812ZM19.7984 39.862C19.7984 49.6391 27.7228 57.5634 37.4998 57.5634C47.277 57.5634 55.2014 49.6391 55.2014 39.862H75V44.9369L68.7856 47.3289C67.9971 50.6394 66.6855 53.8029 64.9005 56.7003L67.6052 62.79L60.428 69.9673L54.3403 67.2634C51.4423 69.0491 48.2778 70.3609 44.9664 71.1494L42.575 77.3622H32.425L30.033 71.1478C26.7225 70.3593 23.5589 69.0477 20.6616 67.2627L14.5719 69.9673L7.39453 62.7902L10.0984 56.7025C8.31284 53.8044 7.00109 50.64 6.21266 47.3286L0 44.937V39.862H19.7984ZM37.5002 17.235C42.4991 17.235 46.5514 21.2875 46.5514 26.2864C46.5514 31.2853 42.4989 35.3377 37.5002 35.3377C32.5013 35.3377 28.4488 31.2852 28.4488 26.2864C28.4488 21.2875 32.5013 17.235 37.5002 17.235Z" stroke="#5D636B" stroke-width="6" stroke-linejoin="round" mask="url(#path-1-inside-1_850_2618)"/>
</svg>
