<?xml version="1.0" standalone="no"?>
<svg id="Button/Primary" width="240" height="44" viewBox="0 0 240 44" fill="none" xmlns="http://www.w3.org/2000/svg" style="max-width: 100%; max-height: 100%;">
<rect x="0.8" y="1.63984" width="238.4" height="41.4" rx="20.7" stroke="url(#paint0_linear_96_2295)" stroke-width="1.6" stroke-dasharray="0,0,0,523.223876953125"><animate attributeType="XML" attributeName="stroke-dasharray" repeatCount="20" dur="2.5s" values="0,0,0,523.223876953125; 
          0,261.6119384765625,261.6119384765625,0; 
          523.223876953125,0,0,0" keyTimes="0; 0.5; 1" fill="freeze"></animate></rect>
<g style="mix-blend-mode:multiply">
<path d="M26.0781 30.3945C25.9792 30.3945 25.8932 30.3607 25.8203 30.293C25.7526 30.2305 25.7109 30.1445 25.6953 30.0352C25.5755 29.181 25.4453 28.4622 25.3047 27.8789C25.1693 27.3008 24.987 26.8242 24.7578 26.4492C24.5286 26.0742 24.2266 25.7747 23.8516 25.5508C23.4818 25.3268 23.0078 25.1471 22.4297 25.0117C21.8568 24.8711 21.1484 24.7461 20.3047 24.6367C20.1901 24.6263 20.099 24.5846 20.0312 24.5117C19.9635 24.4388 19.9297 24.3503 19.9297 24.2461C19.9297 24.1471 19.9635 24.0612 20.0312 23.9883C20.099 23.9154 20.1901 23.8737 20.3047 23.8633C21.1484 23.7695 21.8594 23.6576 22.4375 23.5273C23.0156 23.3971 23.4922 23.2174 23.8672 22.9883C24.2422 22.7591 24.5443 22.4544 24.7734 22.0742C25.0026 21.694 25.1849 21.2122 25.3203 20.6289C25.4609 20.0404 25.5859 19.3164 25.6953 18.457C25.7109 18.3529 25.7526 18.2695 25.8203 18.207C25.8932 18.1393 25.9792 18.1055 26.0781 18.1055C26.1823 18.1055 26.2682 18.1393 26.3359 18.207C26.4036 18.2695 26.4479 18.3529 26.4688 18.457C26.5781 19.3164 26.7005 20.0404 26.8359 20.6289C26.9766 21.2122 27.1589 21.694 27.3828 22.0742C27.612 22.4544 27.9141 22.7591 28.2891 22.9883C28.6641 23.2174 29.1406 23.3971 29.7188 23.5273C30.2969 23.6576 31.0104 23.7695 31.8594 23.8633C31.9688 23.8737 32.0573 23.9154 32.125 23.9883C32.1927 24.0612 32.2266 24.1471 32.2266 24.2461C32.2266 24.3503 32.1927 24.4388 32.125 24.5117C32.0573 24.5846 31.9688 24.6263 31.8594 24.6367C31.0104 24.7305 30.2969 24.8424 29.7188 24.9727C29.1406 25.1029 28.6641 25.2826 28.2891 25.5117C27.9141 25.7357 27.612 26.0378 27.3828 26.418C27.1589 26.7982 26.9766 27.2826 26.8359 27.8711C26.7005 28.4596 26.5781 29.181 26.4688 30.0352C26.4479 30.1445 26.4036 30.2305 26.3359 30.293C26.2682 30.3607 26.1823 30.3945 26.0781 30.3945ZM20.7812 21.7539C20.625 21.7539 20.5365 21.668 20.5156 21.4961C20.4531 20.9753 20.3854 20.5664 20.3125 20.2695C20.2448 19.9727 20.1328 19.7513 19.9766 19.6055C19.8255 19.4544 19.5964 19.3398 19.2891 19.2617C18.987 19.1836 18.5703 19.1003 18.0391 19.0117C17.862 18.9857 17.7734 18.8971 17.7734 18.7461C17.7734 18.6003 17.8516 18.5143 18.0078 18.4883C18.5443 18.3841 18.9661 18.293 19.2734 18.2148C19.5807 18.1315 19.8125 18.0169 19.9688 17.8711C20.125 17.7253 20.2396 17.5091 20.3125 17.2227C20.3854 16.931 20.4531 16.5247 20.5156 16.0039C20.5365 15.832 20.625 15.7461 20.7812 15.7461C20.9375 15.7461 21.026 15.8294 21.0469 15.9961C21.1146 16.5221 21.1823 16.9362 21.25 17.2383C21.3229 17.5404 21.4349 17.7695 21.5859 17.9258C21.7422 18.0768 21.974 18.1888 22.2812 18.2617C22.5885 18.3346 23.013 18.4102 23.5547 18.4883C23.6224 18.4935 23.6771 18.5195 23.7188 18.5664C23.7656 18.6133 23.7891 18.6732 23.7891 18.7461C23.7891 18.8919 23.7109 18.9805 23.5547 19.0117C23.013 19.1159 22.5885 19.2096 22.2812 19.293C21.9792 19.3711 21.75 19.4857 21.5938 19.6367C21.4427 19.7826 21.3307 20.0013 21.2578 20.293C21.1849 20.5846 21.1146 20.9909 21.0469 21.5117C21.0365 21.5794 21.0078 21.6367 20.9609 21.6836C20.9141 21.7305 20.8542 21.7539 20.7812 21.7539ZM24.5625 16.3789C24.4635 16.3789 24.4062 16.3268 24.3906 16.2227C24.3281 15.9049 24.2734 15.6549 24.2266 15.4727C24.1849 15.2904 24.1172 15.1523 24.0234 15.0586C23.9349 14.9596 23.7969 14.8815 23.6094 14.8242C23.4219 14.7669 23.1589 14.7096 22.8203 14.6523C22.7161 14.6315 22.6641 14.5716 22.6641 14.4727C22.6641 14.3789 22.7161 14.3216 22.8203 14.3008C23.1589 14.2383 23.4219 14.181 23.6094 14.1289C23.7969 14.0716 23.9349 13.9961 24.0234 13.9023C24.1172 13.8034 24.1849 13.6628 24.2266 13.4805C24.2734 13.2982 24.3281 13.0482 24.3906 12.7305C24.4062 12.6263 24.4635 12.5742 24.5625 12.5742C24.6562 12.5742 24.7135 12.6263 24.7344 12.7305C24.7917 13.0482 24.8438 13.2982 24.8906 13.4805C24.9375 13.6628 25.0052 13.8034 25.0938 13.9023C25.1875 13.9961 25.3281 14.0716 25.5156 14.1289C25.7031 14.181 25.9661 14.2383 26.3047 14.3008C26.4089 14.3216 26.4609 14.3789 26.4609 14.4727C26.4609 14.5716 26.4089 14.6315 26.3047 14.6523C25.9661 14.7096 25.7031 14.7669 25.5156 14.8242C25.3281 14.8815 25.1875 14.9596 25.0938 15.0586C25.0052 15.1523 24.9375 15.2904 24.8906 15.4727C24.8438 15.6549 24.7917 15.9049 24.7344 16.2227C24.7135 16.3268 24.6562 16.3789 24.5625 16.3789Z" fill="#2E5DB0" stroke-dasharray="0,0,0,71.29747009277344"><animate attributeType="XML" attributeName="stroke-dasharray" repeatCount="100" dur="16s" values="0,0,0,71.29747009277344; 
          0,35.64873504638672,35.64873504638672,0; 
          71.29747009277344,0,0,0" keyTimes="0; 0.5; 1" fill="freeze"></animate></path>
</g>
<g style="mix-blend-mode:multiply">
<path d="M53.2166 19.9194C53.1219 19.6126 52.9912 19.3379 52.8246 19.0955C52.6617 18.8493 52.4647 18.6391 52.2337 18.4648C52.0064 18.2906 51.745 18.1599 51.4496 18.0728C51.1541 17.9819 50.8321 17.9364 50.4837 17.9364C49.8587 17.9364 49.3018 18.0936 48.8132 18.408C48.3246 18.7224 47.9401 19.1845 47.6598 19.7944C47.3833 20.4004 47.245 21.1391 47.245 22.0103C47.245 22.8891 47.3833 23.6334 47.6598 24.2433C47.9363 24.8531 48.3208 25.3171 48.8132 25.6353C49.3056 25.9497 49.8776 26.1069 50.5291 26.1069C51.12 26.1069 51.6314 25.9933 52.0632 25.766C52.4988 25.5387 52.834 25.2167 53.0689 24.8001C53.3037 24.3796 53.4212 23.8872 53.4212 23.3228L53.8984 23.3967H50.7393V21.7489H55.4609V23.1467C55.4609 24.1429 55.2488 25.0046 54.8246 25.7319C54.4003 26.4592 53.817 27.0198 53.0746 27.4137C52.3321 27.8039 51.4799 27.9989 50.5178 27.9989C49.4458 27.9989 48.5045 27.7584 47.6939 27.2773C46.8871 26.7925 46.2564 26.105 45.8018 25.2148C45.3511 24.3209 45.1257 23.2603 45.1257 22.033C45.1257 21.0936 45.2583 20.2546 45.5234 19.516C45.7924 18.7773 46.1674 18.1504 46.6484 17.6353C47.1295 17.1164 47.6939 16.7224 48.3416 16.4535C48.9893 16.1808 49.6939 16.0444 50.4553 16.0444C51.0992 16.0444 51.6996 16.1391 52.2564 16.3285C52.8132 16.5141 53.3075 16.7792 53.7393 17.1239C54.175 17.4686 54.5329 17.8777 54.8132 18.3512C55.0935 18.8247 55.2772 19.3474 55.3643 19.9194H53.2166ZM61.272 28.0103C60.397 28.0103 59.6413 27.8285 59.005 27.4648C58.3724 27.0974 57.8857 26.5785 57.5447 25.908C57.2038 25.2338 57.0334 24.4402 57.0334 23.5273C57.0334 22.6296 57.2038 21.8417 57.5447 21.1637C57.8894 20.4819 58.3705 19.9516 58.9879 19.5728C59.6054 19.1902 60.3307 18.9989 61.1641 18.9989C61.7019 18.9989 62.2095 19.0861 62.6868 19.2603C63.1679 19.4308 63.5921 19.6959 63.9595 20.0558C64.3307 20.4156 64.6224 20.8739 64.8345 21.4308C65.0466 21.9838 65.1527 22.6429 65.1527 23.408V24.0387H57.9993V22.6523H63.1811C63.1773 22.2584 63.0921 21.908 62.9254 21.6012C62.7588 21.2906 62.5258 21.0463 62.2266 20.8683C61.9311 20.6902 61.5864 20.6012 61.1925 20.6012C60.772 20.6012 60.4027 20.7035 60.0845 20.908C59.7663 21.1088 59.5182 21.3739 59.3402 21.7035C59.166 22.0292 59.0769 22.3872 59.0732 22.7773V23.9876C59.0732 24.4951 59.166 24.9308 59.3516 25.2944C59.5372 25.6542 59.7966 25.9308 60.13 26.1239C60.4633 26.3133 60.8535 26.408 61.3004 26.408C61.5997 26.408 61.8705 26.3664 62.1129 26.283C62.3554 26.1959 62.5656 26.069 62.7436 25.9023C62.9216 25.7357 63.0561 25.5292 63.147 25.283L65.0675 25.4989C64.9463 26.0065 64.7152 26.4497 64.3743 26.8285C64.0372 27.2035 63.6054 27.4951 63.0788 27.7035C62.5523 27.908 61.95 28.0103 61.272 28.0103ZM68.9496 22.7262V27.8398H66.8928V19.1126H68.8587V20.5955H68.9609C69.1617 20.1069 69.4818 19.7186 69.9212 19.4308C70.3643 19.1429 70.9117 18.9989 71.5632 18.9989C72.1655 18.9989 72.6901 19.1277 73.1371 19.3853C73.5878 19.6429 73.9363 20.016 74.1825 20.5046C74.4325 20.9933 74.5556 21.5861 74.5518 22.283V27.8398H72.495V22.6012C72.495 22.0179 72.3435 21.5614 72.0405 21.2319C71.7412 20.9023 71.3265 20.7376 70.7962 20.7376C70.4363 20.7376 70.1162 20.8171 69.8359 20.9762C69.5594 21.1315 69.3416 21.3569 69.1825 21.6523C69.0272 21.9478 68.9496 22.3058 68.9496 22.7262ZM80.5064 28.0103C79.6314 28.0103 78.8757 27.8285 78.2393 27.4648C77.6068 27.0974 77.12 26.5785 76.7791 25.908C76.4382 25.2338 76.2678 24.4402 76.2678 23.5273C76.2678 22.6296 76.4382 21.8417 76.7791 21.1637C77.1238 20.4819 77.6049 19.9516 78.2223 19.5728C78.8397 19.1902 79.5651 18.9989 80.3984 18.9989C80.9363 18.9989 81.4439 19.0861 81.9212 19.2603C82.4022 19.4308 82.8265 19.6959 83.1939 20.0558C83.5651 20.4156 83.8568 20.8739 84.0689 21.4308C84.281 21.9838 84.3871 22.6429 84.3871 23.408V24.0387H77.2337V22.6523H82.4155C82.4117 22.2584 82.3265 21.908 82.1598 21.6012C81.9931 21.2906 81.7602 21.0463 81.4609 20.8683C81.1655 20.6902 80.8208 20.6012 80.4268 20.6012C80.0064 20.6012 79.6371 20.7035 79.3189 20.908C79.0007 21.1088 78.7526 21.3739 78.5746 21.7035C78.4003 22.0292 78.3113 22.3872 78.3075 22.7773V23.9876C78.3075 24.4951 78.4003 24.9308 78.5859 25.2944C78.7715 25.6542 79.031 25.9308 79.3643 26.1239C79.6977 26.3133 80.0878 26.408 80.5348 26.408C80.834 26.408 81.1049 26.3664 81.3473 26.283C81.5897 26.1959 81.8 26.069 81.978 25.9023C82.156 25.7357 82.2905 25.5292 82.3814 25.283L84.3018 25.4989C84.1806 26.0065 83.9496 26.4497 83.6087 26.8285C83.2715 27.2035 82.8397 27.4951 82.3132 27.7035C81.7867 27.908 81.1844 28.0103 80.5064 28.0103ZM86.1271 27.8398V19.1126H88.1214V20.5671H88.2124C88.3714 20.0633 88.6442 19.6751 89.0305 19.4023C89.4207 19.1258 89.8658 18.9876 90.3658 18.9876C90.4794 18.9876 90.6063 18.9933 90.7464 19.0046C90.8904 19.0122 91.0097 19.0254 91.1044 19.0444V20.9364C91.0173 20.9061 90.879 20.8796 90.6896 20.8569C90.504 20.8304 90.3241 20.8171 90.1499 20.8171C89.7749 20.8171 89.4377 20.8986 89.1385 21.0614C88.843 21.2205 88.6101 21.4421 88.4396 21.7262C88.2692 22.0103 88.1839 22.3379 88.1839 22.7092V27.8398H86.1271ZM94.826 28.016C94.273 28.016 93.7749 27.9175 93.3317 27.7205C92.8923 27.5198 92.5438 27.2243 92.2862 26.8342C92.0324 26.444 91.9055 25.9629 91.9055 25.391C91.9055 24.8986 91.9964 24.4914 92.1783 24.1694C92.3601 23.8474 92.6082 23.5898 92.9226 23.3967C93.237 23.2035 93.5911 23.0576 93.9851 22.9592C94.3828 22.8569 94.7938 22.783 95.218 22.7376C95.7294 22.6845 96.1442 22.6372 96.4624 22.5955C96.7805 22.5501 97.0116 22.4819 97.1555 22.391C97.3033 22.2963 97.3771 22.1504 97.3771 21.9535V21.9194C97.3771 21.4914 97.2502 21.1599 96.9964 20.9251C96.7427 20.6902 96.3771 20.5728 95.8999 20.5728C95.3961 20.5728 94.9964 20.6826 94.701 20.9023C94.4093 21.122 94.2124 21.3815 94.1101 21.6808L92.1896 21.408C92.3411 20.8777 92.5911 20.4345 92.9396 20.0785C93.2881 19.7186 93.7143 19.4497 94.218 19.2717C94.7218 19.0898 95.2786 18.9989 95.8885 18.9989C96.3089 18.9989 96.7275 19.0482 97.1442 19.1467C97.5608 19.2451 97.9415 19.408 98.2862 19.6353C98.6309 19.8588 98.9074 20.1637 99.1158 20.5501C99.3279 20.9364 99.4339 21.4194 99.4339 21.9989V27.8398H97.4567V26.641H97.3885C97.2635 26.8834 97.0874 27.1107 96.8601 27.3228C96.6366 27.5311 96.3544 27.6997 96.0135 27.8285C95.6764 27.9535 95.2805 28.016 94.826 28.016ZM95.3601 26.5046C95.773 26.5046 96.1309 26.4232 96.4339 26.2603C96.737 26.0936 96.9699 25.8739 97.1328 25.6012C97.2995 25.3285 97.3828 25.0311 97.3828 24.7092V23.6808C97.3184 23.7338 97.2086 23.783 97.0533 23.8285C96.9018 23.8739 96.7313 23.9137 96.5419 23.9478C96.3525 23.9819 96.165 24.0122 95.9794 24.0387C95.7938 24.0652 95.6328 24.0879 95.4964 24.1069C95.1896 24.1486 94.915 24.2167 94.6726 24.3114C94.4302 24.4061 94.2389 24.5387 94.0987 24.7092C93.9586 24.8758 93.8885 25.0917 93.8885 25.3569C93.8885 25.7357 94.0268 26.0217 94.3033 26.2148C94.5798 26.408 94.9321 26.5046 95.3601 26.5046ZM105.86 19.1126V20.7035H100.843V19.1126H105.86ZM102.082 17.0217H104.138V25.2148C104.138 25.4914 104.18 25.7035 104.263 25.8512C104.351 25.9951 104.464 26.0936 104.604 26.1467C104.745 26.1997 104.9 26.2262 105.07 26.2262C105.199 26.2262 105.317 26.2167 105.423 26.1978C105.532 26.1789 105.616 26.1618 105.673 26.1467L106.019 27.7546C105.909 27.7925 105.752 27.8342 105.548 27.8796C105.347 27.9251 105.101 27.9516 104.809 27.9592C104.294 27.9743 103.83 27.8967 103.417 27.7262C103.004 27.552 102.676 27.283 102.434 26.9194C102.195 26.5558 102.078 26.1012 102.082 25.5558V17.0217ZM107.58 27.8398V19.1126H109.637V27.8398H107.58ZM108.614 17.8739C108.289 17.8739 108.008 17.766 107.773 17.5501C107.539 17.3304 107.421 17.0671 107.421 16.7603C107.421 16.4497 107.539 16.1864 107.773 15.9705C108.008 15.7508 108.289 15.641 108.614 15.641C108.944 15.641 109.224 15.7508 109.455 15.9705C109.69 16.1864 109.808 16.4497 109.808 16.7603C109.808 17.0671 109.69 17.3304 109.455 17.5501C109.224 17.766 108.944 17.8739 108.614 17.8739ZM113.809 22.7262V27.8398H111.752V19.1126H113.718V20.5955H113.82C114.021 20.1069 114.341 19.7186 114.781 19.4308C115.224 19.1429 115.771 18.9989 116.423 18.9989C117.025 18.9989 117.549 19.1277 117.996 19.3853C118.447 19.6429 118.796 20.016 119.042 20.5046C119.292 20.9933 119.415 21.5861 119.411 22.283V27.8398H117.354V22.6012C117.354 22.0179 117.203 21.5614 116.9 21.2319C116.601 20.9023 116.186 20.7376 115.656 20.7376C115.296 20.7376 114.976 20.8171 114.695 20.9762C114.419 21.1315 114.201 21.3569 114.042 21.6523C113.887 21.9478 113.809 22.3058 113.809 22.7262ZM125.298 31.2944C124.559 31.2944 123.924 31.194 123.394 30.9933C122.864 30.7963 122.438 30.5311 122.116 30.1978C121.794 29.8645 121.57 29.4951 121.445 29.0898L123.298 28.641C123.381 28.8114 123.502 28.98 123.661 29.1467C123.82 29.3171 124.034 29.4573 124.303 29.5671C124.576 29.6808 124.919 29.7376 125.332 29.7376C125.915 29.7376 126.398 29.5955 126.781 29.3114C127.163 29.0311 127.354 28.569 127.354 27.9251V26.2717H127.252C127.146 26.4838 126.991 26.7016 126.786 26.9251C126.585 27.1486 126.318 27.3361 125.985 27.4876C125.656 27.6391 125.241 27.7148 124.741 27.7148C124.07 27.7148 123.462 27.5576 122.917 27.2433C122.375 26.9251 121.943 26.4516 121.621 25.8228C121.303 25.1902 121.144 24.3986 121.144 23.4478C121.144 22.4895 121.303 21.6808 121.621 21.0217C121.943 20.3588 122.377 19.8569 122.923 19.516C123.468 19.1713 124.076 18.9989 124.746 18.9989C125.258 18.9989 125.678 19.0861 126.008 19.2603C126.341 19.4308 126.606 19.6372 126.803 19.8796C127 20.1183 127.15 20.3436 127.252 20.5558H127.366V19.1126H129.394V27.9819C129.394 28.7281 129.216 29.3455 128.86 29.8342C128.504 30.3228 128.017 30.6883 127.4 30.9308C126.782 31.1732 126.082 31.2944 125.298 31.2944ZM125.315 26.1012C125.75 26.1012 126.121 25.9951 126.428 25.783C126.735 25.5709 126.968 25.266 127.127 24.8683C127.286 24.4705 127.366 23.9933 127.366 23.4364C127.366 22.8872 127.286 22.4061 127.127 21.9933C126.972 21.5804 126.741 21.2603 126.434 21.033C126.131 20.802 125.758 20.6864 125.315 20.6864C124.856 20.6864 124.474 20.8058 124.167 21.0444C123.86 21.283 123.629 21.6107 123.474 22.0273C123.318 22.4402 123.241 22.9099 123.241 23.4364C123.241 23.9705 123.318 24.4383 123.474 24.8398C123.633 25.2376 123.866 25.5482 124.173 25.7717C124.483 25.9914 124.864 26.1012 125.315 26.1012ZM135.562 27.8398V16.2035H143.016V17.9705H137.67V21.1296H142.505V22.8967H137.67V27.8398H135.562ZM148.069 28.0103C147.194 28.0103 146.438 27.8285 145.802 27.4648C145.169 27.0974 144.683 26.5785 144.342 25.908C144.001 25.2338 143.83 24.4402 143.83 23.5273C143.83 22.6296 144.001 21.8417 144.342 21.1637C144.686 20.4819 145.167 19.9516 145.785 19.5728C146.402 19.1902 147.128 18.9989 147.961 18.9989C148.499 18.9989 149.006 19.0861 149.484 19.2603C149.965 19.4308 150.389 19.6959 150.756 20.0558C151.128 20.4156 151.419 20.8739 151.631 21.4308C151.844 21.9838 151.95 22.6429 151.95 23.408V24.0387H144.796V22.6523H149.978C149.974 22.2584 149.889 21.908 149.722 21.6012C149.556 21.2906 149.323 21.0463 149.023 20.8683C148.728 20.6902 148.383 20.6012 147.989 20.6012C147.569 20.6012 147.2 20.7035 146.881 20.908C146.563 21.1088 146.315 21.3739 146.137 21.7035C145.963 22.0292 145.874 22.3872 145.87 22.7773V23.9876C145.87 24.4951 145.963 24.9308 146.148 25.2944C146.334 25.6542 146.594 25.9308 146.927 26.1239C147.26 26.3133 147.65 26.408 148.097 26.408C148.397 26.408 148.667 26.3664 148.91 26.283C149.152 26.1959 149.362 26.069 149.54 25.9023C149.719 25.7357 149.853 25.5292 149.944 25.283L151.864 25.4989C151.743 26.0065 151.512 26.4497 151.171 26.8285C150.834 27.2035 150.402 27.4951 149.876 27.7035C149.349 27.908 148.747 28.0103 148.069 28.0103ZM157.553 28.0103C156.678 28.0103 155.923 27.8285 155.286 27.4648C154.654 27.0974 154.167 26.5785 153.826 25.908C153.485 25.2338 153.315 24.4402 153.315 23.5273C153.315 22.6296 153.485 21.8417 153.826 21.1637C154.171 20.4819 154.652 19.9516 155.269 19.5728C155.887 19.1902 156.612 18.9989 157.445 18.9989C157.983 18.9989 158.491 19.0861 158.968 19.2603C159.449 19.4308 159.873 19.6959 160.241 20.0558C160.612 20.4156 160.904 20.8739 161.116 21.4308C161.328 21.9838 161.434 22.6429 161.434 23.408V24.0387H154.281V22.6523H159.462C159.459 22.2584 159.373 21.908 159.207 21.6012C159.04 21.2906 158.807 21.0463 158.508 20.8683C158.212 20.6902 157.868 20.6012 157.474 20.6012C157.053 20.6012 156.684 20.7035 156.366 20.908C156.048 21.1088 155.799 21.3739 155.621 21.7035C155.447 22.0292 155.358 22.3872 155.354 22.7773V23.9876C155.354 24.4951 155.447 24.9308 155.633 25.2944C155.818 25.6542 156.078 25.9308 156.411 26.1239C156.745 26.3133 157.135 26.408 157.582 26.408C157.881 26.408 158.152 26.3664 158.394 26.283C158.637 26.1959 158.847 26.069 159.025 25.9023C159.203 25.7357 159.337 25.5292 159.428 25.283L161.349 25.4989C161.228 26.0065 160.996 26.4497 160.656 26.8285C160.318 27.2035 159.887 27.4951 159.36 27.7035C158.834 27.908 158.231 28.0103 157.553 28.0103ZM166.413 27.9933C165.727 27.9933 165.113 27.8171 164.572 27.4648C164.03 27.1126 163.602 26.6012 163.288 25.9308C162.973 25.2603 162.816 24.4459 162.816 23.4876C162.816 22.5179 162.975 21.6997 163.293 21.033C163.615 20.3626 164.049 19.8569 164.594 19.516C165.14 19.1713 165.748 18.9989 166.418 18.9989C166.93 18.9989 167.35 19.0861 167.68 19.2603C168.009 19.4308 168.271 19.6372 168.464 19.8796C168.657 20.1183 168.807 20.3436 168.913 20.5558H168.998V16.2035H171.06V27.8398H169.038V26.4648H168.913C168.807 26.677 168.653 26.9023 168.452 27.141C168.252 27.3758 167.987 27.5766 167.657 27.7433C167.327 27.9099 166.913 27.9933 166.413 27.9933ZM166.987 26.3058C167.422 26.3058 167.793 26.1883 168.1 25.9535C168.407 25.7148 168.64 25.3834 168.799 24.9592C168.958 24.5349 169.038 24.0406 169.038 23.4762C169.038 22.9118 168.958 22.4213 168.799 22.0046C168.644 21.5879 168.413 21.2641 168.106 21.033C167.803 20.802 167.43 20.6864 166.987 20.6864C166.528 20.6864 166.146 20.8058 165.839 21.0444C165.532 21.283 165.301 21.6126 165.146 22.033C164.99 22.4535 164.913 22.9345 164.913 23.4762C164.913 24.0217 164.99 24.5084 165.146 24.9364C165.305 25.3607 165.538 25.6959 165.844 25.9421C166.155 26.1845 166.536 26.3058 166.987 26.3058ZM173.343 27.8398V16.2035H175.4V20.5558H175.485C175.591 20.3436 175.741 20.1183 175.934 19.8796C176.127 19.6372 176.388 19.4308 176.718 19.2603C177.048 19.0861 177.468 18.9989 177.979 18.9989C178.654 18.9989 179.262 19.1713 179.803 19.516C180.349 19.8569 180.781 20.3626 181.099 21.033C181.421 21.6997 181.582 22.5179 181.582 23.4876C181.582 24.4459 181.424 25.2603 181.11 25.9308C180.796 26.6012 180.368 27.1126 179.826 27.4648C179.284 27.8171 178.671 27.9933 177.985 27.9933C177.485 27.9933 177.07 27.9099 176.741 27.7433C176.411 27.5766 176.146 27.3758 175.945 27.141C175.748 26.9023 175.595 26.677 175.485 26.4648H175.366V27.8398H173.343ZM175.36 23.4762C175.36 24.0406 175.44 24.5349 175.599 24.9592C175.762 25.3834 175.995 25.7148 176.298 25.9535C176.604 26.1883 176.976 26.3058 177.411 26.3058C177.866 26.3058 178.246 26.1845 178.553 25.9421C178.86 25.6959 179.091 25.3607 179.246 24.9364C179.406 24.5084 179.485 24.0217 179.485 23.4762C179.485 22.9345 179.407 22.4535 179.252 22.033C179.097 21.6126 178.866 21.283 178.559 21.0444C178.252 20.8058 177.87 20.6864 177.411 20.6864C176.972 20.6864 176.599 20.802 176.292 21.033C175.985 21.2641 175.752 21.5879 175.593 22.0046C175.438 22.4213 175.36 22.9118 175.36 23.4762ZM185.842 28.016C185.289 28.016 184.79 27.9175 184.347 27.7205C183.908 27.5198 183.559 27.2243 183.302 26.8342C183.048 26.444 182.921 25.9629 182.921 25.391C182.921 24.8986 183.012 24.4914 183.194 24.1694C183.376 23.8474 183.624 23.5898 183.938 23.3967C184.253 23.2035 184.607 23.0576 185.001 22.9592C185.398 22.8569 185.809 22.783 186.234 22.7376C186.745 22.6845 187.16 22.6372 187.478 22.5955C187.796 22.5501 188.027 22.4819 188.171 22.391C188.319 22.2963 188.393 22.1504 188.393 21.9535V21.9194C188.393 21.4914 188.266 21.1599 188.012 20.9251C187.758 20.6902 187.393 20.5728 186.915 20.5728C186.412 20.5728 186.012 20.6826 185.717 20.9023C185.425 21.122 185.228 21.3815 185.126 21.6808L183.205 21.408C183.357 20.8777 183.607 20.4345 183.955 20.0785C184.304 19.7186 184.73 19.4497 185.234 19.2717C185.737 19.0898 186.294 18.9989 186.904 18.9989C187.325 18.9989 187.743 19.0482 188.16 19.1467C188.576 19.2451 188.957 19.408 189.302 19.6353C189.647 19.8588 189.923 20.1637 190.131 20.5501C190.344 20.9364 190.45 21.4194 190.45 21.9989V27.8398H188.472V26.641H188.404C188.279 26.8834 188.103 27.1107 187.876 27.3228C187.652 27.5311 187.37 27.6997 187.029 27.8285C186.692 27.9535 186.296 28.016 185.842 28.016ZM186.376 26.5046C186.789 26.5046 187.147 26.4232 187.45 26.2603C187.753 26.0936 187.986 25.8739 188.148 25.6012C188.315 25.3285 188.398 25.0311 188.398 24.7092V23.6808C188.334 23.7338 188.224 23.783 188.069 23.8285C187.917 23.8739 187.747 23.9137 187.558 23.9478C187.368 23.9819 187.181 24.0122 186.995 24.0387C186.809 24.0652 186.648 24.0879 186.512 24.1069C186.205 24.1486 185.931 24.2167 185.688 24.3114C185.446 24.4061 185.254 24.5387 185.114 24.7092C184.974 24.8758 184.904 25.0917 184.904 25.3569C184.904 25.7357 185.042 26.0217 185.319 26.2148C185.595 26.408 185.948 26.5046 186.376 26.5046ZM196.325 28.0103C195.453 28.0103 194.705 27.819 194.08 27.4364C193.459 27.0539 192.98 26.5254 192.643 25.8512C192.309 25.1732 192.143 24.3929 192.143 23.5103C192.143 22.6239 192.313 21.8417 192.654 21.1637C192.995 20.4819 193.476 19.9516 194.097 19.5728C194.722 19.1902 195.461 18.9989 196.313 18.9989C197.022 18.9989 197.648 19.1296 198.194 19.391C198.743 19.6486 199.181 20.0141 199.506 20.4876C199.832 20.9573 200.018 21.5065 200.063 22.1353H198.097C198.018 21.7148 197.828 21.3645 197.529 21.0842C197.234 20.8001 196.838 20.658 196.342 20.658C195.921 20.658 195.552 20.7717 195.234 20.9989C194.915 21.2224 194.667 21.5444 194.489 21.9648C194.315 22.3853 194.228 22.8891 194.228 23.4762C194.228 24.0709 194.315 24.5823 194.489 25.0103C194.664 25.4345 194.908 25.7622 195.222 25.9933C195.54 26.2205 195.914 26.3342 196.342 26.3342C196.645 26.3342 196.915 26.2773 197.154 26.1637C197.397 26.0463 197.599 25.8777 197.762 25.658C197.925 25.4383 198.037 25.1713 198.097 24.8569H200.063C200.014 25.4743 199.832 26.0217 199.518 26.4989C199.203 26.9724 198.775 27.3436 198.234 27.6126C197.692 27.8777 197.056 28.0103 196.325 28.0103ZM203.627 25.1012L203.621 22.6183H203.951L207.087 19.1126H209.491L205.633 23.408H205.207L203.627 25.1012ZM201.752 27.8398V16.2035H203.809V27.8398H201.752ZM207.229 27.8398L204.388 23.8683L205.775 22.4194L209.69 27.8398H207.229ZM212.129 27.9648C211.784 27.9648 211.488 27.8436 211.242 27.6012C210.996 27.3588 210.875 27.0633 210.879 26.7148C210.875 26.3739 210.996 26.0823 211.242 25.8398C211.488 25.5974 211.784 25.4762 212.129 25.4762C212.462 25.4762 212.752 25.5974 212.998 25.8398C213.248 26.0823 213.375 26.3739 213.379 26.7148C213.375 26.9459 213.314 27.1561 213.197 27.3455C213.083 27.5349 212.932 27.6864 212.742 27.8001C212.557 27.9099 212.352 27.9648 212.129 27.9648ZM216.769 27.9648C216.424 27.9648 216.129 27.8436 215.883 27.6012C215.637 27.3588 215.515 27.0633 215.519 26.7148C215.515 26.3739 215.637 26.0823 215.883 25.8398C216.129 25.5974 216.424 25.4762 216.769 25.4762C217.103 25.4762 217.392 25.5974 217.638 25.8398C217.888 26.0823 218.015 26.3739 218.019 26.7148C218.015 26.9459 217.955 27.1561 217.837 27.3455C217.724 27.5349 217.572 27.6864 217.383 27.8001C217.197 27.9099 216.993 27.9648 216.769 27.9648ZM221.41 27.9648C221.065 27.9648 220.77 27.8436 220.523 27.6012C220.277 27.3588 220.156 27.0633 220.16 26.7148C220.156 26.3739 220.277 26.0823 220.523 25.8398C220.77 25.5974 221.065 25.4762 221.41 25.4762C221.743 25.4762 222.033 25.5974 222.279 25.8398C222.529 26.0823 222.656 26.3739 222.66 26.7148C222.656 26.9459 222.595 27.1561 222.478 27.3455C222.364 27.5349 222.213 27.6864 222.023 27.8001C221.838 27.9099 221.633 27.9648 221.41 27.9648Z" fill="url(#paint1_linear_96_2295)" stroke-dasharray="0,0,0,936.9564819335938"><animate attributeType="XML" attributeName="stroke-dasharray" repeatCount="100" dur="20s" values="0,0,0,936.9564819335938; 
          0,468.4782409667969,468.4782409667969,0; 
          936.9564819335938,0,0,0" keyTimes="0; 0.5; 1" fill="freeze"></animate></path>
</g>
<defs>
<linearGradient id="paint0_linear_96_2295" x1="-11.0924" y1="43.9998" x2="237.35" y2="-0.719533" gradientUnits="userSpaceOnUse">
<stop offset="0.0378703" stop-color="#2E5DB0"></stop>
<stop offset="1" stop-color="#55B6C3"></stop>
</linearGradient>
<linearGradient id="paint1_linear_96_2295" x1="44" y1="27.9998" x2="224.036" y2="23.4178" gradientUnits="userSpaceOnUse">
<stop stop-color="#2E5DB0"></stop>
<stop offset="0.267406" stop-color="#3875B5"></stop>
<stop offset="1" stop-color="#55B6C3"></stop>
</linearGradient>
</defs>
</svg>