<svg width="64" height="64" viewBox="0 0 64 64" fill="none" xmlns="http://www.w3.org/2000/svg">
<circle cx="32" cy="32" r="32" fill="#D9F6FF"/>
<g clip-path="url(#clip0_597_6447)">
<path d="M47.012 20.4965L47.012 20.4966C47.0902 20.6584 47.1016 20.8446 47.0436 21.0147C46.9855 21.1849 46.8628 21.3253 46.702 21.4056C46.5412 21.486 46.3552 21.4997 46.1843 21.4439C46.0134 21.3881 45.8714 21.2672 45.789 21.1074L45.7881 21.1057L44.3777 18.2843L43.634 20.4093L43.634 20.4094C39.7706 31.4184 29.8153 39.1425 18.1916 40.1494L18.0419 40.1624L18.0292 40.0127L17.9385 38.9461L17.9258 38.7968L18.075 38.7839C29.1613 37.8234 38.6569 30.4575 42.3435 19.958L43.0644 17.8998L40.3051 19.2784L40.3034 19.2793C40.1415 19.3576 39.9554 19.3689 39.7852 19.3109L39.8336 19.1689L39.7852 19.3109C39.6151 19.2528 39.4746 19.1301 39.3943 18.9693L39.5285 18.9023L39.3943 18.9693C39.314 18.8085 39.3002 18.6225 39.3561 18.4516C39.4119 18.2807 39.5328 18.1387 39.6926 18.0563L39.6942 18.0554L43.9612 15.9219L43.9614 15.9219C44.1235 15.841 44.3112 15.8278 44.4831 15.8853C44.6549 15.9427 44.7969 16.066 44.8778 16.2281L47.012 20.4965ZM47.012 20.4965L47.0111 20.4948L44.8779 16.2283L47.012 20.4965ZM16 46.7832H15.85V46.9332V47.9999V48.1499H16H47.9996H48.1496V47.9999V46.9332V46.7832H47.9996H16ZM22.3999 41.45H18.6666C18.4854 41.45 18.3116 41.522 18.1834 41.6501C18.0553 41.7783 17.9833 41.9521 17.9833 42.1333V45.3333C17.9833 45.5145 18.0553 45.6883 18.1834 45.8164C18.3116 45.9446 18.4854 46.0166 18.6666 46.0166H22.3999C22.5812 46.0166 22.755 45.9446 22.8831 45.8164C23.0113 45.6883 23.0832 45.5145 23.0832 45.3333V42.1333C23.0832 41.9521 23.0113 41.7783 22.8831 41.6501C22.755 41.522 22.5812 41.45 22.3999 41.45ZM21.7166 44.6499H19.35V42.8166H21.7166V44.6499ZM28.2665 39.85H24.5332C24.352 39.85 24.1782 39.922 24.05 40.0501C23.9219 40.1783 23.8499 40.3521 23.8499 40.5333V45.3333C23.8499 45.5145 23.9219 45.6883 24.05 45.8164C24.1782 45.9446 24.352 46.0166 24.5332 46.0166H28.2665C28.4477 46.0166 28.6216 45.9446 28.7497 45.8164C28.8778 45.6883 28.9498 45.5145 28.9498 45.3333V40.5333C28.9498 40.3521 28.8778 40.1783 28.7497 40.0501C28.6215 39.922 28.4477 39.85 28.2665 39.85ZM27.5832 44.6499H25.2166V41.2167H27.5832V44.6499ZM34.1331 37.1834H30.3998C30.2186 37.1834 30.0448 37.2554 29.9166 37.3835C29.7885 37.5117 29.7165 37.6855 29.7165 37.8667V45.3333C29.7165 45.5145 29.7885 45.6883 29.9166 45.8164C30.0448 45.9446 30.2186 46.0166 30.3998 46.0166H34.1331C34.3143 46.0166 34.4881 45.9446 34.6163 45.8164C34.7444 45.6883 34.8164 45.5145 34.8164 45.3333V37.8667C34.8164 37.6855 34.7444 37.5117 34.6163 37.3835C34.4881 37.2554 34.3143 37.1834 34.1331 37.1834ZM33.4498 44.6499H31.0831V38.55H33.4498V44.6499Z" fill="#55B6C3" stroke="#55B6C3" stroke-width="0.3"/>
<path d="M35.7833 33.6505L35.8883 33.7555L35.7833 33.6505C35.6551 33.7787 35.5832 33.9525 35.5832 34.1337V45.3335C35.5832 45.5148 35.6551 45.6886 35.7833 45.8167C35.9114 45.9449 36.0853 46.0169 36.2665 46.0169H39.9998C40.181 46.0169 40.3548 45.9449 40.483 45.8167C40.6111 45.6886 40.6831 45.5148 40.6831 45.3335V34.1337C40.6831 33.9525 40.6111 33.7787 40.483 33.6505C40.3548 33.5224 40.181 33.4504 39.9998 33.4504H36.2665C36.0853 33.4504 35.9114 33.5224 35.7833 33.6505ZM46.3495 26.1839L46.2437 26.2897L46.3495 26.1839C46.2214 26.0558 46.0476 25.9838 45.8664 25.9838H42.1331C41.9518 25.9838 41.778 26.0558 41.6499 26.1839C41.5217 26.3121 41.4497 26.4859 41.4497 26.6671V45.3335C41.4497 45.5148 41.5217 45.6886 41.6499 45.8167C41.778 45.9449 41.9518 46.0169 42.1331 46.0169H45.8664C46.0476 46.0169 46.2214 45.9449 46.3495 45.8167C46.4777 45.6886 46.5497 45.5148 46.5497 45.3335V26.6671C46.5497 26.4859 46.4777 26.3121 46.3495 26.1839ZM39.3164 44.6502H36.9498V34.817H39.3164V44.6502ZM45.183 44.6502H42.8164V27.3504H45.183V44.6502Z" fill="#55B6C3" stroke="#55B6C3" stroke-width="0.3"/>
</g>
<defs>
<clipPath id="clip0_597_6447">
<rect width="32" height="32" fill="white" transform="translate(16 16)"/>
</clipPath>
</defs>
</svg>
