<svg width="64" height="64" viewBox="0 0 64 64" fill="none" xmlns="http://www.w3.org/2000/svg">
<circle cx="32" cy="32" r="32" fill="#FEDFFF"/>
<g clip-path="url(#clip0_597_6461)">
<path d="M44 31.35H43.85V31.5V32.5V32.65H44H45H45.15V32.5V31.5V31.35H45H44ZM44 35.35H43.85V35.5V36.5V36.65H44H45H45.15V36.5V35.5V35.35H45H44ZM31.624 30.7829L32.4341 31.35H28.645V21.5C28.645 20.0372 27.4578 18.85 25.995 18.85H23.995H23.845V19V20V20.15H23.995H25.995C26.7372 20.15 27.345 20.7578 27.345 21.5V31.35H23.995H23.845V31.5V32.5V32.65H23.995H27.345V42.5C27.345 43.2422 26.7372 43.85 25.995 43.85H23.995H23.845V44V45V45.15H23.995H25.995C27.4578 45.15 28.645 43.9628 28.645 42.5V32.65H32.4341L31.624 33.2171L31.501 33.3032L31.5872 33.4261L32.1622 34.2461L32.2482 34.3688L32.371 34.2829L34.8703 32.5334C34.8704 32.5333 34.8705 32.5332 34.8706 32.5332C34.9567 32.4735 35.0272 32.3939 35.0758 32.3011C35.1245 32.2082 35.1499 32.1049 35.1499 32C35.1499 31.8951 35.1245 31.7918 35.0758 31.6989C35.0272 31.6061 34.9568 31.5265 34.8707 31.4669C34.8706 31.4668 34.8705 31.4667 34.8703 31.4666L32.371 29.7171L32.2482 29.6312L32.1622 29.7539L31.5872 30.5739L31.501 30.6968L31.624 30.7829ZM19.5 41.35C17.7622 41.35 16.35 42.7622 16.35 44.5C16.35 46.2378 17.7622 47.65 19.5 47.65C21.2378 47.65 22.65 46.2378 22.65 44.5C22.65 42.7622 21.2378 41.35 19.5 41.35ZM19.5 46.35C18.4778 46.35 17.65 45.5222 17.65 44.5C17.65 43.4778 18.4778 42.65 19.5 42.65C20.5222 42.65 21.35 43.4778 21.35 44.5C21.35 45.5222 20.5222 46.35 19.5 46.35ZM19.5 28.85C17.7622 28.85 16.35 30.2622 16.35 32C16.35 33.7378 17.7622 35.15 19.5 35.15C21.2378 35.15 22.65 33.7378 22.65 32C22.65 30.2622 21.2378 28.85 19.5 28.85ZM19.5 33.85C18.4778 33.85 17.65 33.0222 17.65 32C17.65 30.9778 18.4778 30.15 19.5 30.15C20.5222 30.15 21.35 30.9778 21.35 32C21.35 33.0222 20.5222 33.85 19.5 33.85ZM19.5 16.35C17.7622 16.35 16.35 17.7622 16.35 19.5C16.35 21.2378 17.7622 22.65 19.5 22.65C21.2378 22.65 22.65 21.2378 22.65 19.5C22.65 17.7622 21.2378 16.35 19.5 16.35ZM19.5 21.35C18.4778 21.35 17.65 20.5222 17.65 19.5C17.65 18.4778 18.4778 17.65 19.5 17.65C20.5222 17.65 21.35 18.4778 21.35 19.5C21.35 20.5222 20.5222 21.35 19.5 21.35Z" fill="#A655C3" stroke="#A655C3" stroke-width="0.3"/>
<path d="M42 24.85C40.4381 24.85 39.0372 25.1838 38.0213 25.7383C37.0097 26.2905 36.35 27.0808 36.35 28V36C36.35 36.9192 37.0097 37.7095 38.0213 38.2617C39.0372 38.8162 40.4381 39.15 42 39.15C43.5619 39.15 44.9628 38.8162 45.9787 38.2617C46.9903 37.7095 47.65 36.9192 47.65 36V28C47.65 27.0808 46.9903 26.2905 45.9787 25.7383C44.9628 25.1838 43.5619 24.85 42 24.85ZM46.35 36C46.35 36.1859 46.2587 36.3943 46.0595 36.6092C45.861 36.8234 45.564 37.0338 45.1787 37.2192C44.4086 37.5897 43.3065 37.85 42 37.85C40.6935 37.85 39.5914 37.5897 38.8213 37.2192C38.436 37.0338 38.139 36.8234 37.9405 36.6092C37.7413 36.3943 37.65 36.1859 37.65 36V34.0329C38.6805 34.7228 40.2374 35.15 42 35.15C43.7626 35.15 45.3195 34.7228 46.35 34.0329V36ZM46.35 32C46.35 32.1859 46.2587 32.3943 46.0595 32.6092C45.861 32.8234 45.564 33.0338 45.1787 33.2192C44.4086 33.5897 43.3065 33.85 42 33.85C40.6935 33.85 39.5914 33.5897 38.8213 33.2192C38.436 33.0338 38.139 32.8234 37.9405 32.6092C37.7413 32.3943 37.65 32.1859 37.65 32V30.0329C38.6805 30.7228 40.2374 31.15 42 31.15C43.7626 31.15 45.3195 30.7228 46.35 30.0329V32ZM42 29.85C40.6935 29.85 39.5914 29.5897 38.8213 29.2192C38.436 29.0338 38.139 28.8234 37.9405 28.6092C37.7413 28.3943 37.65 28.1859 37.65 28C37.65 27.8141 37.7413 27.6057 37.9405 27.3908C38.139 27.1766 38.436 26.9662 38.8213 26.7808C39.5914 26.4103 40.6935 26.15 42 26.15C43.3065 26.15 44.4086 26.4103 45.1787 26.7808C45.564 26.9662 45.861 27.1766 46.0595 27.3908C46.2587 27.6057 46.35 27.8141 46.35 28C46.35 28.1859 46.2587 28.3943 46.0595 28.6092C45.861 28.8234 45.564 29.0338 45.1787 29.2192C44.4086 29.5897 43.3065 29.85 42 29.85Z" fill="#A655C3" stroke="#A655C3" stroke-width="0.3"/>
</g>
<defs>
<clipPath id="clip0_597_6461">
<rect width="32" height="32" fill="white" transform="translate(16 16)"/>
</clipPath>
</defs>
</svg>
