<svg width="16" height="20" viewBox="0 0 16 20" fill="none" xmlns="http://www.w3.org/2000/svg">
<mask id="path-1-outside-1_679_3552" maskUnits="userSpaceOnUse" x="-0.835449" y="-1" width="17" height="22" fill="black">
<rect fill="white" x="-0.835449" y="-1" width="17" height="22"/>
<path d="M15.5415 16.4211C15.6195 16.4211 15.6943 16.3901 15.7494 16.335C15.8046 16.2798 15.8356 16.205 15.8356 16.127V15.2955C15.8356 13.3016 14.1296 12.5774 14.057 12.5475C14.0552 12.5468 14.0533 12.546 14.0514 12.5453L9.92334 10.9466V9.94637C10.2442 9.70718 10.517 9.40967 10.7277 9.06942C11.6256 9.06942 12.15 8.40871 12.15 7.72203V7.06688C12.9966 6.92613 13.6442 6.18902 13.6442 5.30313C13.6442 4.4082 12.9835 3.66477 12.1242 3.53492C12.0288 2.66555 11.6464 1.84152 11.0402 1.20637C10.416 0.552344 9.58123 0.124727 8.68955 0.00230526C8.61272 -0.00736861 8.53517 0.0136463 8.47374 0.0607897C8.4123 0.107933 8.37194 0.177401 8.3614 0.25412C8.35086 0.330838 8.37101 0.408616 8.41746 0.470577C8.46391 0.532537 8.53292 0.573681 8.60951 0.585079C10.009 0.777266 11.1454 1.83629 11.4682 3.18406H11.1572C10.8561 3.18406 10.611 3.42902 10.611 3.7302V4.03777C10.4517 3.86812 10.2928 3.69812 10.1343 3.52777C10.0445 3.43092 9.92332 3.36901 9.79224 3.35302C9.66115 3.33703 9.52864 3.368 9.41822 3.44043C8.25865 4.19797 6.89975 4.59594 5.38455 4.52164V3.73016C5.38455 3.42898 5.13955 3.18402 4.83838 3.18402H4.52615C4.68141 2.52303 5.03051 1.92345 5.5287 1.46213C6.02689 1.0008 6.65148 0.698737 7.32244 0.594649C7.3606 0.588681 7.39721 0.575253 7.43018 0.555134C7.46315 0.535014 7.49184 0.508596 7.51459 0.47739C7.53735 0.446183 7.55374 0.410798 7.56282 0.373257C7.5719 0.335715 7.5735 0.296753 7.56752 0.258594C7.54236 0.0981256 7.39205 -0.0117572 7.23146 0.0135162C5.43717 0.294493 4.06744 1.73637 3.87135 3.53492C3.01213 3.66484 2.35139 4.4082 2.35139 5.30313C2.35139 6.20199 3.01811 6.94781 3.88287 7.07277C3.96205 7.27691 4.15998 7.42227 4.39174 7.42227H4.79658C4.80006 8.43535 5.27928 9.36094 6.07221 9.94453V10.9467L1.94865 12.5454L1.94311 12.5475C1.87049 12.5774 0.164551 13.3016 0.164551 15.2955V19.3341C0.164668 19.7011 0.463223 19.9996 0.830137 19.9996H15.1733C15.5385 19.9996 15.8355 19.7025 15.8355 19.3374V17.4995C15.8355 17.337 15.7039 17.2054 15.5414 17.2054C15.379 17.2054 15.2473 17.337 15.2473 17.4995V19.3374C15.2473 19.3782 15.2141 19.4114 15.1733 19.4114H13.1188V15.921C13.1188 15.7586 12.9871 15.6269 12.8247 15.6269C12.6622 15.6269 12.5306 15.7586 12.5306 15.921V19.4114H9.6874L8.91939 14.8738L9.23385 14.4005L9.41811 14.5313C9.69404 14.7274 10.0799 14.6305 10.2308 14.328L11.3312 12.1227L13.8349 13.0923C13.9214 13.1292 15.2473 13.7214 15.2473 15.2956V16.127C15.2473 16.1657 15.2549 16.2039 15.2697 16.2396C15.2845 16.2753 15.3062 16.3077 15.3335 16.335C15.3608 16.3623 15.3932 16.3839 15.4289 16.3987C15.4646 16.4135 15.5028 16.4211 15.5415 16.4211ZM12.15 4.13941C12.6701 4.2709 13.0561 4.74277 13.0561 5.30316C13.0561 5.86348 12.6701 6.33539 12.15 6.46688V4.13941ZM11.1993 3.77223H11.5618V6.83406H11.1993V3.77223ZM11.199 7.42223H11.5618V7.72203C11.5618 8.06379 11.3348 8.35328 11.0237 8.4482C11.1387 8.11833 11.198 7.77159 11.199 7.42223ZM3.84572 6.46688C3.32564 6.33539 2.93971 5.86348 2.93971 5.30316C2.93971 4.74281 3.32568 4.27094 3.84572 4.13941V6.46688ZM4.79643 5.08066V6.83402H4.43393V3.77219H4.79643V5.08066ZM5.38463 7.41117V5.11117C6.88193 5.21113 8.45568 4.76574 9.71994 3.94594C10.2517 4.51727 10.534 4.80984 10.6111 4.90918C10.6111 7.59902 10.6728 7.83766 10.377 8.48121H8.9926C8.8767 8.2009 8.60057 8.00305 8.27889 8.00305H7.90893C7.48311 8.00305 7.1367 8.34945 7.1367 8.77531C7.1367 9.20117 7.48311 9.54758 7.90893 9.54758H8.27889C8.60061 9.54758 8.8767 9.34973 8.99264 9.06942H10.0029C9.51275 9.64891 8.79775 9.98246 8.04076 9.98281H8.03814C6.38623 9.98215 5.38463 8.68406 5.38463 7.41117ZM8.46287 8.77531C8.46282 8.82411 8.44342 8.87089 8.40892 8.90539C8.37442 8.9399 8.32764 8.95931 8.27885 8.95938H7.90889C7.8074 8.95938 7.72486 8.8768 7.72486 8.77531C7.72486 8.67383 7.8074 8.59125 7.90889 8.59125H8.27885C8.32764 8.59132 8.37441 8.61074 8.40891 8.64524C8.4434 8.67975 8.46281 8.72652 8.46287 8.77531ZM7.99896 12.6933L6.66053 11.0412V10.2859C7.0815 10.4725 7.55393 10.5711 8.03846 10.5711H8.0401C8.4866 10.571 8.92799 10.4761 9.33514 10.2929V11.0439L7.99896 12.6933ZM7.999 13.5234L8.75408 14.0596L8.45232 14.5138H7.54564L7.24393 14.0596L7.999 13.5234ZM6.27342 11.5004L7.57291 13.1045C7.11174 13.432 6.31443 13.9983 6.27428 14.0268L5.21771 11.9093L6.27342 11.5004ZM3.46971 19.4114V15.9211C3.46971 15.7586 3.33807 15.627 3.17561 15.627C3.01314 15.627 2.8815 15.7586 2.8815 15.9211V19.4114H0.830137C0.809658 19.4114 0.790023 19.4032 0.775538 19.3888C0.761054 19.3743 0.752902 19.3547 0.752871 19.3342V15.2955C0.752871 13.7175 2.08529 13.1263 2.16494 13.0923L4.66662 12.1225L5.76705 14.3279L5.76709 14.328C5.91787 14.6301 6.30365 14.7275 6.57978 14.5313L6.76404 14.4004L7.07846 14.8737L6.31045 19.4114H3.46971V19.4114ZM9.09088 19.4114H6.90705L7.63643 15.102H8.3615L9.09088 19.4114ZM9.72373 14.0269C9.48506 13.8574 9.50822 13.8737 8.42373 13.1035L9.72291 11.4998L10.7803 11.9093L9.72373 14.0269Z"/>
</mask>
<path d="M15.5415 16.4211C15.6195 16.4211 15.6943 16.3901 15.7494 16.335C15.8046 16.2798 15.8356 16.205 15.8356 16.127V15.2955C15.8356 13.3016 14.1296 12.5774 14.057 12.5475C14.0552 12.5468 14.0533 12.546 14.0514 12.5453L9.92334 10.9466V9.94637C10.2442 9.70718 10.517 9.40967 10.7277 9.06942C11.6256 9.06942 12.15 8.40871 12.15 7.72203V7.06688C12.9966 6.92613 13.6442 6.18902 13.6442 5.30313C13.6442 4.4082 12.9835 3.66477 12.1242 3.53492C12.0288 2.66555 11.6464 1.84152 11.0402 1.20637C10.416 0.552344 9.58123 0.124727 8.68955 0.00230526C8.61272 -0.00736861 8.53517 0.0136463 8.47374 0.0607897C8.4123 0.107933 8.37194 0.177401 8.3614 0.25412C8.35086 0.330838 8.37101 0.408616 8.41746 0.470577C8.46391 0.532537 8.53292 0.573681 8.60951 0.585079C10.009 0.777266 11.1454 1.83629 11.4682 3.18406H11.1572C10.8561 3.18406 10.611 3.42902 10.611 3.7302V4.03777C10.4517 3.86812 10.2928 3.69812 10.1343 3.52777C10.0445 3.43092 9.92332 3.36901 9.79224 3.35302C9.66115 3.33703 9.52864 3.368 9.41822 3.44043C8.25865 4.19797 6.89975 4.59594 5.38455 4.52164V3.73016C5.38455 3.42898 5.13955 3.18402 4.83838 3.18402H4.52615C4.68141 2.52303 5.03051 1.92345 5.5287 1.46213C6.02689 1.0008 6.65148 0.698737 7.32244 0.594649C7.3606 0.588681 7.39721 0.575253 7.43018 0.555134C7.46315 0.535014 7.49184 0.508596 7.51459 0.47739C7.53735 0.446183 7.55374 0.410798 7.56282 0.373257C7.5719 0.335715 7.5735 0.296753 7.56752 0.258594C7.54236 0.0981256 7.39205 -0.0117572 7.23146 0.0135162C5.43717 0.294493 4.06744 1.73637 3.87135 3.53492C3.01213 3.66484 2.35139 4.4082 2.35139 5.30313C2.35139 6.20199 3.01811 6.94781 3.88287 7.07277C3.96205 7.27691 4.15998 7.42227 4.39174 7.42227H4.79658C4.80006 8.43535 5.27928 9.36094 6.07221 9.94453V10.9467L1.94865 12.5454L1.94311 12.5475C1.87049 12.5774 0.164551 13.3016 0.164551 15.2955V19.3341C0.164668 19.7011 0.463223 19.9996 0.830137 19.9996H15.1733C15.5385 19.9996 15.8355 19.7025 15.8355 19.3374V17.4995C15.8355 17.337 15.7039 17.2054 15.5414 17.2054C15.379 17.2054 15.2473 17.337 15.2473 17.4995V19.3374C15.2473 19.3782 15.2141 19.4114 15.1733 19.4114H13.1188V15.921C13.1188 15.7586 12.9871 15.6269 12.8247 15.6269C12.6622 15.6269 12.5306 15.7586 12.5306 15.921V19.4114H9.6874L8.91939 14.8738L9.23385 14.4005L9.41811 14.5313C9.69404 14.7274 10.0799 14.6305 10.2308 14.328L11.3312 12.1227L13.8349 13.0923C13.9214 13.1292 15.2473 13.7214 15.2473 15.2956V16.127C15.2473 16.1657 15.2549 16.2039 15.2697 16.2396C15.2845 16.2753 15.3062 16.3077 15.3335 16.335C15.3608 16.3623 15.3932 16.3839 15.4289 16.3987C15.4646 16.4135 15.5028 16.4211 15.5415 16.4211ZM12.15 4.13941C12.6701 4.2709 13.0561 4.74277 13.0561 5.30316C13.0561 5.86348 12.6701 6.33539 12.15 6.46688V4.13941ZM11.1993 3.77223H11.5618V6.83406H11.1993V3.77223ZM11.199 7.42223H11.5618V7.72203C11.5618 8.06379 11.3348 8.35328 11.0237 8.4482C11.1387 8.11833 11.198 7.77159 11.199 7.42223ZM3.84572 6.46688C3.32564 6.33539 2.93971 5.86348 2.93971 5.30316C2.93971 4.74281 3.32568 4.27094 3.84572 4.13941V6.46688ZM4.79643 5.08066V6.83402H4.43393V3.77219H4.79643V5.08066ZM5.38463 7.41117V5.11117C6.88193 5.21113 8.45568 4.76574 9.71994 3.94594C10.2517 4.51727 10.534 4.80984 10.6111 4.90918C10.6111 7.59902 10.6728 7.83766 10.377 8.48121H8.9926C8.8767 8.2009 8.60057 8.00305 8.27889 8.00305H7.90893C7.48311 8.00305 7.1367 8.34945 7.1367 8.77531C7.1367 9.20117 7.48311 9.54758 7.90893 9.54758H8.27889C8.60061 9.54758 8.8767 9.34973 8.99264 9.06942H10.0029C9.51275 9.64891 8.79775 9.98246 8.04076 9.98281H8.03814C6.38623 9.98215 5.38463 8.68406 5.38463 7.41117ZM8.46287 8.77531C8.46282 8.82411 8.44342 8.87089 8.40892 8.90539C8.37442 8.9399 8.32764 8.95931 8.27885 8.95938H7.90889C7.8074 8.95938 7.72486 8.8768 7.72486 8.77531C7.72486 8.67383 7.8074 8.59125 7.90889 8.59125H8.27885C8.32764 8.59132 8.37441 8.61074 8.40891 8.64524C8.4434 8.67975 8.46281 8.72652 8.46287 8.77531ZM7.99896 12.6933L6.66053 11.0412V10.2859C7.0815 10.4725 7.55393 10.5711 8.03846 10.5711H8.0401C8.4866 10.571 8.92799 10.4761 9.33514 10.2929V11.0439L7.99896 12.6933ZM7.999 13.5234L8.75408 14.0596L8.45232 14.5138H7.54564L7.24393 14.0596L7.999 13.5234ZM6.27342 11.5004L7.57291 13.1045C7.11174 13.432 6.31443 13.9983 6.27428 14.0268L5.21771 11.9093L6.27342 11.5004ZM3.46971 19.4114V15.9211C3.46971 15.7586 3.33807 15.627 3.17561 15.627C3.01314 15.627 2.8815 15.7586 2.8815 15.9211V19.4114H0.830137C0.809658 19.4114 0.790023 19.4032 0.775538 19.3888C0.761054 19.3743 0.752902 19.3547 0.752871 19.3342V15.2955C0.752871 13.7175 2.08529 13.1263 2.16494 13.0923L4.66662 12.1225L5.76705 14.3279L5.76709 14.328C5.91787 14.6301 6.30365 14.7275 6.57978 14.5313L6.76404 14.4004L7.07846 14.8737L6.31045 19.4114H3.46971V19.4114ZM9.09088 19.4114H6.90705L7.63643 15.102H8.3615L9.09088 19.4114ZM9.72373 14.0269C9.48506 13.8574 9.50822 13.8737 8.42373 13.1035L9.72291 11.4998L10.7803 11.9093L9.72373 14.0269Z" fill="#2E5DB0"/>
<path d="M15.5415 16.4211C15.6195 16.4211 15.6943 16.3901 15.7494 16.335C15.8046 16.2798 15.8356 16.205 15.8356 16.127V15.2955C15.8356 13.3016 14.1296 12.5774 14.057 12.5475C14.0552 12.5468 14.0533 12.546 14.0514 12.5453L9.92334 10.9466V9.94637C10.2442 9.70718 10.517 9.40967 10.7277 9.06942C11.6256 9.06942 12.15 8.40871 12.15 7.72203V7.06688C12.9966 6.92613 13.6442 6.18902 13.6442 5.30313C13.6442 4.4082 12.9835 3.66477 12.1242 3.53492C12.0288 2.66555 11.6464 1.84152 11.0402 1.20637C10.416 0.552344 9.58123 0.124727 8.68955 0.00230526C8.61272 -0.00736861 8.53517 0.0136463 8.47374 0.0607897C8.4123 0.107933 8.37194 0.177401 8.3614 0.25412C8.35086 0.330838 8.37101 0.408616 8.41746 0.470577C8.46391 0.532537 8.53292 0.573681 8.60951 0.585079C10.009 0.777266 11.1454 1.83629 11.4682 3.18406H11.1572C10.8561 3.18406 10.611 3.42902 10.611 3.7302V4.03777C10.4517 3.86812 10.2928 3.69812 10.1343 3.52777C10.0445 3.43092 9.92332 3.36901 9.79224 3.35302C9.66115 3.33703 9.52864 3.368 9.41822 3.44043C8.25865 4.19797 6.89975 4.59594 5.38455 4.52164V3.73016C5.38455 3.42898 5.13955 3.18402 4.83838 3.18402H4.52615C4.68141 2.52303 5.03051 1.92345 5.5287 1.46213C6.02689 1.0008 6.65148 0.698737 7.32244 0.594649C7.3606 0.588681 7.39721 0.575253 7.43018 0.555134C7.46315 0.535014 7.49184 0.508596 7.51459 0.47739C7.53735 0.446183 7.55374 0.410798 7.56282 0.373257C7.5719 0.335715 7.5735 0.296753 7.56752 0.258594C7.54236 0.0981256 7.39205 -0.0117572 7.23146 0.0135162C5.43717 0.294493 4.06744 1.73637 3.87135 3.53492C3.01213 3.66484 2.35139 4.4082 2.35139 5.30313C2.35139 6.20199 3.01811 6.94781 3.88287 7.07277C3.96205 7.27691 4.15998 7.42227 4.39174 7.42227H4.79658C4.80006 8.43535 5.27928 9.36094 6.07221 9.94453V10.9467L1.94865 12.5454L1.94311 12.5475C1.87049 12.5774 0.164551 13.3016 0.164551 15.2955V19.3341C0.164668 19.7011 0.463223 19.9996 0.830137 19.9996H15.1733C15.5385 19.9996 15.8355 19.7025 15.8355 19.3374V17.4995C15.8355 17.337 15.7039 17.2054 15.5414 17.2054C15.379 17.2054 15.2473 17.337 15.2473 17.4995V19.3374C15.2473 19.3782 15.2141 19.4114 15.1733 19.4114H13.1188V15.921C13.1188 15.7586 12.9871 15.6269 12.8247 15.6269C12.6622 15.6269 12.5306 15.7586 12.5306 15.921V19.4114H9.6874L8.91939 14.8738L9.23385 14.4005L9.41811 14.5313C9.69404 14.7274 10.0799 14.6305 10.2308 14.328L11.3312 12.1227L13.8349 13.0923C13.9214 13.1292 15.2473 13.7214 15.2473 15.2956V16.127C15.2473 16.1657 15.2549 16.2039 15.2697 16.2396C15.2845 16.2753 15.3062 16.3077 15.3335 16.335C15.3608 16.3623 15.3932 16.3839 15.4289 16.3987C15.4646 16.4135 15.5028 16.4211 15.5415 16.4211ZM12.15 4.13941C12.6701 4.2709 13.0561 4.74277 13.0561 5.30316C13.0561 5.86348 12.6701 6.33539 12.15 6.46688V4.13941ZM11.1993 3.77223H11.5618V6.83406H11.1993V3.77223ZM11.199 7.42223H11.5618V7.72203C11.5618 8.06379 11.3348 8.35328 11.0237 8.4482C11.1387 8.11833 11.198 7.77159 11.199 7.42223ZM3.84572 6.46688C3.32564 6.33539 2.93971 5.86348 2.93971 5.30316C2.93971 4.74281 3.32568 4.27094 3.84572 4.13941V6.46688ZM4.79643 5.08066V6.83402H4.43393V3.77219H4.79643V5.08066ZM5.38463 7.41117V5.11117C6.88193 5.21113 8.45568 4.76574 9.71994 3.94594C10.2517 4.51727 10.534 4.80984 10.6111 4.90918C10.6111 7.59902 10.6728 7.83766 10.377 8.48121H8.9926C8.8767 8.2009 8.60057 8.00305 8.27889 8.00305H7.90893C7.48311 8.00305 7.1367 8.34945 7.1367 8.77531C7.1367 9.20117 7.48311 9.54758 7.90893 9.54758H8.27889C8.60061 9.54758 8.8767 9.34973 8.99264 9.06942H10.0029C9.51275 9.64891 8.79775 9.98246 8.04076 9.98281H8.03814C6.38623 9.98215 5.38463 8.68406 5.38463 7.41117ZM8.46287 8.77531C8.46282 8.82411 8.44342 8.87089 8.40892 8.90539C8.37442 8.9399 8.32764 8.95931 8.27885 8.95938H7.90889C7.8074 8.95938 7.72486 8.8768 7.72486 8.77531C7.72486 8.67383 7.8074 8.59125 7.90889 8.59125H8.27885C8.32764 8.59132 8.37441 8.61074 8.40891 8.64524C8.4434 8.67975 8.46281 8.72652 8.46287 8.77531ZM7.99896 12.6933L6.66053 11.0412V10.2859C7.0815 10.4725 7.55393 10.5711 8.03846 10.5711H8.0401C8.4866 10.571 8.92799 10.4761 9.33514 10.2929V11.0439L7.99896 12.6933ZM7.999 13.5234L8.75408 14.0596L8.45232 14.5138H7.54564L7.24393 14.0596L7.999 13.5234ZM6.27342 11.5004L7.57291 13.1045C7.11174 13.432 6.31443 13.9983 6.27428 14.0268L5.21771 11.9093L6.27342 11.5004ZM3.46971 19.4114V15.9211C3.46971 15.7586 3.33807 15.627 3.17561 15.627C3.01314 15.627 2.8815 15.7586 2.8815 15.9211V19.4114H0.830137C0.809658 19.4114 0.790023 19.4032 0.775538 19.3888C0.761054 19.3743 0.752902 19.3547 0.752871 19.3342V15.2955C0.752871 13.7175 2.08529 13.1263 2.16494 13.0923L4.66662 12.1225L5.76705 14.3279L5.76709 14.328C5.91787 14.6301 6.30365 14.7275 6.57978 14.5313L6.76404 14.4004L7.07846 14.8737L6.31045 19.4114H3.46971V19.4114ZM9.09088 19.4114H6.90705L7.63643 15.102H8.3615L9.09088 19.4114ZM9.72373 14.0269C9.48506 13.8574 9.50822 13.8737 8.42373 13.1035L9.72291 11.4998L10.7803 11.9093L9.72373 14.0269Z" stroke="#2E5DB0" stroke-width="0.3" mask="url(#path-1-outside-1_679_3552)"/>
</svg>
