<svg width="16" height="16" viewBox="0 0 16 16" fill="none" xmlns="http://www.w3.org/2000/svg">
<path d="M2.99866 12.668C2.07972 12.668 1.33203 11.9203 1.33203 11.0013V10.3347C1.33203 9.41566 2.07972 8.66797 2.99866 8.66797C3.91759 8.66797 4.66528 9.41566 4.66528 10.3347V11.0013C4.66528 11.9203 3.91759 12.668 2.99866 12.668ZM2.99866 9.33472C2.44725 9.33472 1.99866 9.78331 1.99866 10.3347V11.0013C1.99866 11.5528 2.44725 12.0013 2.99866 12.0013C3.55006 12.0013 3.99866 11.5528 3.99866 11.0013V10.3347C3.99866 9.78331 3.55006 9.33472 2.99866 9.33472Z" fill="#2E5DB0"/>
<path d="M2 16.0013C0.875 16.0013 0.129032 15.2683 0.0976565 15.2371C0.0666519 15.2061 0.0420634 15.1694 0.0253042 15.1289C0.00854507 15.0885 -5.43373e-05 15.0451 2.58337e-07 15.0013V13.8463C2.58337e-07 13.6223 0.110938 13.415 0.297375 13.2914L2.14869 12.0574C2.30163 11.955 2.50869 11.9963 2.61097 12.1497C2.713 12.303 2.67163 12.5097 2.51869 12.6121L0.666625 13.8463V14.849C0.866688 15.0073 1.35828 15.3347 2 15.3347C2.18397 15.3347 2.33338 15.4837 2.33338 15.668C2.33338 15.8523 2.18397 16.0013 2 16.0013ZM5.48169 13.9453L3.48169 12.6121C3.43608 12.5816 3.39869 12.5403 3.37282 12.492C3.34695 12.4436 3.33341 12.3896 3.33338 12.3347V12.0013H4V12.1563L5.85169 13.3906L5.48169 13.9453ZM8 12.668C7.08106 12.668 6.33338 11.9203 6.33338 11.0013V10.3347C6.33338 9.41566 7.08106 8.66797 8 8.66797C8.91894 8.66797 9.66663 9.41566 9.66663 10.3347V11.0013C9.66663 11.9203 8.91894 12.668 8 12.668ZM8 9.33472C7.44859 9.33472 7 9.78331 7 10.3347V11.0013C7 11.5528 7.44859 12.0013 8 12.0013C8.55141 12.0013 9 11.5528 9 11.0013V10.3347C9 9.78331 8.55141 9.33472 8 9.33472Z" fill="#2E5DB0"/>
<path d="M5.33337 14.668C5.14931 14.668 5 14.519 5 14.3347V13.8463C5 13.6223 5.11094 13.4151 5.29738 13.2914L7.14869 12.0574C7.30162 11.955 7.50869 11.9963 7.61097 12.1497C7.713 12.303 7.67163 12.5097 7.51869 12.6121L5.66663 13.8463V14.3347C5.66663 14.519 5.51734 14.668 5.33337 14.668ZM10.6666 14.668C10.6228 14.668 10.5795 14.6594 10.539 14.6427C10.4986 14.626 10.4618 14.6014 10.4309 14.5705C10.3999 14.5395 10.3754 14.5028 10.3587 14.4623C10.3419 14.4218 10.3333 14.3785 10.3334 14.3347V13.8463L8.48169 12.6121C8.40819 12.5629 8.35718 12.4867 8.33986 12.4C8.32253 12.3133 8.34031 12.2233 8.38928 12.1497C8.49134 11.9963 8.69762 11.955 8.85169 12.0574L10.7034 13.2916C10.7947 13.3525 10.8696 13.435 10.9213 13.5318C10.9731 13.6285 11.0001 13.7366 11 13.8463V14.3348C11 14.5191 10.8509 14.668 10.6666 14.668V14.668ZM13 12.668C12.0811 12.668 11.3334 11.9203 11.3334 11.0013V10.3347C11.3334 9.41566 12.0811 8.66797 13 8.66797C13.9189 8.66797 14.6666 9.41566 14.6666 10.3347V11.0013C14.6666 11.9203 13.9189 12.668 13 12.668ZM13 9.33472C12.4486 9.33472 12 9.78331 12 10.3347V11.0013C12 11.5528 12.4486 12.0013 13 12.0013C13.5514 12.0013 14 11.5528 14 11.0013V10.3347C14 9.78331 13.5514 9.33472 13 9.33472Z" fill="#2E5DB0"/>
<path d="M10.5183 13.9426L10.1487 13.3879L12 12.1537V11.9987H12.6666V12.332C12.6666 12.4433 12.611 12.5473 12.5183 12.6094L10.5183 13.9426ZM14 15.9987C13.9562 15.9987 13.9128 15.9901 13.8724 15.9733C13.8319 15.9566 13.7952 15.932 13.7642 15.9011C13.7332 15.8701 13.7087 15.8334 13.6919 15.7929C13.6752 15.7524 13.6666 15.7091 13.6666 15.6653C13.6666 15.481 13.8157 15.332 14 15.332C14.6479 15.332 15.135 15.006 15.3334 14.8477V13.8436L13.4817 12.6094C13.3284 12.507 13.287 12.3003 13.3893 12.147C13.4913 11.9937 13.6976 11.9523 13.8517 12.0547L15.7034 13.2889C15.7947 13.3498 15.8696 13.4323 15.9213 13.5291C15.9731 13.6258 16.0001 13.7339 16 13.8437V14.9987C16 15.0873 15.965 15.172 15.9023 15.2344C15.871 15.2656 15.125 15.9987 14 15.9987ZM12.6666 15.9987H2C1.81603 15.9987 1.66663 15.8496 1.66663 15.6653C1.66663 15.481 1.81603 15.332 2 15.332H12.6666C12.7104 15.332 12.7538 15.3406 12.7942 15.3573C12.8347 15.374 12.8715 15.3986 12.9024 15.4295C12.9334 15.4605 12.9579 15.4972 12.9747 15.5377C12.9914 15.5781 13 15.6215 13 15.6653C13 15.7091 12.9914 15.7524 12.9747 15.7929C12.9579 15.8334 12.9334 15.8701 12.9024 15.9011C12.8715 15.932 12.8347 15.9566 12.7942 15.9733C12.7538 15.9901 12.7104 15.9987 12.6666 15.9987ZM14.3334 7.33203C14.2467 7.33203 14.1614 7.29797 14.0977 7.23437L12.862 5.99866H9.66666C9.11541 5.99866 8.66666 5.55006 8.66666 4.99866V4.33203C8.66666 4.14797 8.81572 3.99866 9.00003 3.99866C9.18434 3.99866 9.33341 4.14794 9.33341 4.33203V4.99866C9.33341 5.18237 9.48269 5.33203 9.66666 5.33203H13C13.0886 5.33203 13.1733 5.36694 13.2357 5.42969L14 6.19397V5.66528C14 5.48131 14.1491 5.33203 14.3334 5.33203H15C15.184 5.33203 15.3334 5.18234 15.3334 4.99866V2.33203C15.3334 2.14831 15.184 1.99866 15 1.99866H12.6666C12.4823 1.99866 12.3334 1.84938 12.3334 1.66528C12.3334 1.48131 12.4823 1.33203 12.6666 1.33203H15C15.5514 1.33203 16 1.78062 16 2.33203V4.99866C16 5.55006 15.5514 5.99866 15 5.99866H14.6666V6.99866C14.6666 7.13331 14.5857 7.255 14.4611 7.30662C14.4197 7.32359 14.3763 7.33203 14.3334 7.33203ZM1.66663 8.66528C1.62366 8.66528 1.58031 8.65734 1.53894 8.64C1.47809 8.61471 1.42609 8.57196 1.38951 8.51715C1.35292 8.46234 1.33339 8.39793 1.33337 8.33203V7.33203H1C0.448594 7.33203 0 6.88328 0 6.33203V3.66528C0 3.11403 0.448594 2.66528 1 2.66528H4.66663C4.85069 2.66528 5 2.81469 5 2.99866C5 3.18262 4.85072 3.33203 4.66663 3.33203H1C0.816281 3.33203 0.666625 3.48169 0.666625 3.66528V6.33203C0.666625 6.51562 0.816312 6.66528 1 6.66528H1.66663C1.85069 6.66528 2 6.81469 2 6.99866V7.52734L2.76428 6.76294C2.79521 6.73195 2.83196 6.70738 2.87241 6.69062C2.91286 6.67386 2.95622 6.66525 3 6.66528H6.33337C6.51697 6.66528 6.66663 6.51562 6.66663 6.33203C6.66663 6.14797 6.81603 5.99866 7 5.99866C7.18397 5.99866 7.33337 6.14794 7.33337 6.33203C7.33337 6.88328 6.88462 7.33203 6.33337 7.33203H3.13794L1.90234 8.56762C1.83983 8.63014 1.75504 8.66527 1.66663 8.66528Z" fill="#2E5DB0"/>
<path d="M5.99866 6C5.95569 6 5.91234 5.99169 5.87097 5.97459C5.81011 5.94929 5.75811 5.90655 5.72151 5.85175C5.6849 5.79694 5.66534 5.73253 5.66528 5.66663V4.66663H5.33203C4.78062 4.66663 4.33203 4.21803 4.33203 3.66663V1C4.33203 0.448594 4.78062 0 5.33203 0H10.6653C11.2167 0 11.6653 0.448594 11.6653 1V3.66663C11.6653 4.21803 11.2167 4.66663 10.6653 4.66663H7.46997L6.23438 5.90234C6.17183 5.96481 6.08706 5.99993 5.99866 6ZM5.33203 0.666625C5.14831 0.666625 4.99866 0.816312 4.99866 1V3.66663C4.99866 3.85034 5.14834 4 5.33203 4H5.99866C6.18263 4 6.33203 4.14928 6.33203 4.33337V4.86206L7.09631 4.09766C7.12725 4.06667 7.16399 4.0421 7.20444 4.02534C7.24489 4.00858 7.28825 3.99997 7.33203 4H10.6653C10.8493 4 10.9987 3.85031 10.9987 3.66663V1C10.9987 0.816281 10.8494 0.666625 10.6653 0.666625H5.33203Z" fill="#2E5DB0"/>
</svg>
