<svg width="24" height="24" viewBox="0 0 24 24" fill="none" xmlns="http://www.w3.org/2000/svg">
<mask id="path-1-inside-1_879_151" fill="white">
<path fill-rule="evenodd" clip-rule="evenodd" d="M9.64148 16.1633H14.3585C15.3053 15.5903 16.0266 14.6825 16.3589 13.604C15.3837 12.2514 13.7948 11.3706 12 11.3706C10.2051 11.3706 8.61623 12.2514 7.64109 13.604C7.97339 14.6825 8.69475 15.5903 9.64148 16.1633ZM6.32991 3.77674L6.78839 4.98434C6.7948 5.00184 6.80627 5.01703 6.82135 5.02799C6.83642 5.03894 6.85442 5.04515 6.87305 5.04584L8.16319 5.1087C8.25094 5.11296 8.28684 5.22349 8.21836 5.27857L7.21158 6.08777C7.19691 6.09927 7.18599 6.11487 7.18023 6.1326C7.17447 6.15032 7.17412 6.16937 7.17923 6.18729L7.51809 7.43374C7.54111 7.51854 7.44713 7.58679 7.37363 7.53869L6.29288 6.83126C6.27741 6.82086 6.2592 6.8153 6.24056 6.8153C6.22193 6.8153 6.20371 6.82086 6.18825 6.83126L5.10755 7.53869C5.03405 7.58679 4.94006 7.51849 4.96308 7.43374L5.30194 6.18729C5.30705 6.16937 5.3067 6.15032 5.30094 6.1326C5.29518 6.11487 5.28427 6.09927 5.26959 6.08777L4.26281 5.27857C4.19433 5.22349 4.23023 5.11301 4.31798 5.1087L5.60817 5.04584C5.6268 5.04515 5.64479 5.03894 5.65987 5.02799C5.67495 5.01703 5.68642 5.00184 5.69283 4.98434L6.15131 3.77674C6.1823 3.69509 6.29892 3.69509 6.32991 3.77674ZM17.8014 3.77674L18.2599 4.98434C18.2663 5.00184 18.2778 5.01703 18.2929 5.02799C18.308 5.03894 18.326 5.04515 18.3446 5.04584L19.6347 5.1087C19.7225 5.11296 19.7584 5.22354 19.6899 5.27857L18.6831 6.08777C18.6684 6.09928 18.6575 6.11488 18.6518 6.1326C18.646 6.15033 18.6457 6.16936 18.6508 6.18729L18.9896 7.43374C19.0126 7.51854 18.9187 7.58679 18.8452 7.53869L17.7644 6.83126C17.7489 6.82086 17.7307 6.8153 17.7121 6.8153C17.6935 6.8153 17.6752 6.82086 17.6598 6.83126L16.5791 7.53869C16.5056 7.58679 16.4116 7.51849 16.4346 7.43374L16.7735 6.18729C16.7786 6.16937 16.7782 6.15032 16.7725 6.1326C16.7667 6.11487 16.7558 6.09927 16.7411 6.08777L15.7343 5.27857C15.6659 5.22349 15.7018 5.11301 15.7895 5.1087L17.0797 5.04584C17.0983 5.04515 17.1163 5.03894 17.1314 5.02799C17.1465 5.01703 17.158 5.00184 17.1644 4.98434L17.6228 3.77674C17.6539 3.69504 17.7705 3.69504 17.8014 3.77674ZM12.0893 0.55343L12.5478 1.76098C12.5542 1.77848 12.5657 1.79368 12.5807 1.80464C12.5958 1.81559 12.6138 1.8218 12.6324 1.82248L13.9226 1.88534C14.0103 1.8896 14.0462 2.00018 13.9777 2.05521L12.971 2.86441C12.9563 2.87592 12.9454 2.89153 12.9396 2.90925C12.9339 2.92697 12.9335 2.946 12.9386 2.96393L13.2775 4.21038C13.3005 4.29518 13.2065 4.36343 13.133 4.31534L12.0523 3.60785C12.0368 3.59745 12.0186 3.5919 12 3.5919C11.9813 3.5919 11.9631 3.59745 11.9476 3.60785L10.8669 4.31534C10.7934 4.36343 10.6995 4.29513 10.7225 4.21038L11.0613 2.96393C11.0664 2.94601 11.0661 2.92696 11.0603 2.90924C11.0546 2.89151 11.0437 2.87591 11.029 2.86441L10.0222 2.05521C9.95372 2.00013 9.98962 1.88965 10.0774 1.88534L11.3675 1.82248C11.3861 1.8218 11.4041 1.81558 11.4192 1.80463C11.4343 1.79367 11.4458 1.77848 11.4522 1.76098L11.9107 0.55343C11.9417 0.471773 12.0583 0.471773 12.0893 0.55343ZM6.68953 12.2592C6.68953 15.1923 9.06684 17.5696 12 17.5696C14.9331 17.5696 17.3104 15.1923 17.3104 12.2592H23.25V13.7816L21.3857 14.4993C21.1491 15.4924 20.7557 16.4415 20.2201 17.3107L21.0315 19.1376L18.8784 21.2908L17.0521 20.4796C16.1827 21.0153 15.2334 21.4088 14.2399 21.6454L13.5225 23.5092H10.4775L9.75989 21.6449C8.76674 21.4084 7.81768 21.0149 6.94847 20.4794L5.12156 21.2908L2.96836 19.1376L3.77953 17.3113C3.24385 16.4419 2.85033 15.4926 2.6138 14.4992L0.75 13.7817V12.2592H6.68953ZM12 5.47109C13.4997 5.47109 14.7154 6.68684 14.7154 8.18651C14.7154 9.68618 13.4997 10.9019 12 10.9019C10.5004 10.9019 9.28463 9.68613 9.28463 8.18651C9.28463 6.68684 10.5004 5.47109 12 5.47109Z"/>
</mask>
<path fill-rule="evenodd" clip-rule="evenodd" d="M9.64148 16.1633H14.3585C15.3053 15.5903 16.0266 14.6825 16.3589 13.604C15.3837 12.2514 13.7948 11.3706 12 11.3706C10.2051 11.3706 8.61623 12.2514 7.64109 13.604C7.97339 14.6825 8.69475 15.5903 9.64148 16.1633ZM6.32991 3.77674L6.78839 4.98434C6.7948 5.00184 6.80627 5.01703 6.82135 5.02799C6.83642 5.03894 6.85442 5.04515 6.87305 5.04584L8.16319 5.1087C8.25094 5.11296 8.28684 5.22349 8.21836 5.27857L7.21158 6.08777C7.19691 6.09927 7.18599 6.11487 7.18023 6.1326C7.17447 6.15032 7.17412 6.16937 7.17923 6.18729L7.51809 7.43374C7.54111 7.51854 7.44713 7.58679 7.37363 7.53869L6.29288 6.83126C6.27741 6.82086 6.2592 6.8153 6.24056 6.8153C6.22193 6.8153 6.20371 6.82086 6.18825 6.83126L5.10755 7.53869C5.03405 7.58679 4.94006 7.51849 4.96308 7.43374L5.30194 6.18729C5.30705 6.16937 5.3067 6.15032 5.30094 6.1326C5.29518 6.11487 5.28427 6.09927 5.26959 6.08777L4.26281 5.27857C4.19433 5.22349 4.23023 5.11301 4.31798 5.1087L5.60817 5.04584C5.6268 5.04515 5.64479 5.03894 5.65987 5.02799C5.67495 5.01703 5.68642 5.00184 5.69283 4.98434L6.15131 3.77674C6.1823 3.69509 6.29892 3.69509 6.32991 3.77674ZM17.8014 3.77674L18.2599 4.98434C18.2663 5.00184 18.2778 5.01703 18.2929 5.02799C18.308 5.03894 18.326 5.04515 18.3446 5.04584L19.6347 5.1087C19.7225 5.11296 19.7584 5.22354 19.6899 5.27857L18.6831 6.08777C18.6684 6.09928 18.6575 6.11488 18.6518 6.1326C18.646 6.15033 18.6457 6.16936 18.6508 6.18729L18.9896 7.43374C19.0126 7.51854 18.9187 7.58679 18.8452 7.53869L17.7644 6.83126C17.7489 6.82086 17.7307 6.8153 17.7121 6.8153C17.6935 6.8153 17.6752 6.82086 17.6598 6.83126L16.5791 7.53869C16.5056 7.58679 16.4116 7.51849 16.4346 7.43374L16.7735 6.18729C16.7786 6.16937 16.7782 6.15032 16.7725 6.1326C16.7667 6.11487 16.7558 6.09927 16.7411 6.08777L15.7343 5.27857C15.6659 5.22349 15.7018 5.11301 15.7895 5.1087L17.0797 5.04584C17.0983 5.04515 17.1163 5.03894 17.1314 5.02799C17.1465 5.01703 17.158 5.00184 17.1644 4.98434L17.6228 3.77674C17.6539 3.69504 17.7705 3.69504 17.8014 3.77674ZM12.0893 0.55343L12.5478 1.76098C12.5542 1.77848 12.5657 1.79368 12.5807 1.80464C12.5958 1.81559 12.6138 1.8218 12.6324 1.82248L13.9226 1.88534C14.0103 1.8896 14.0462 2.00018 13.9777 2.05521L12.971 2.86441C12.9563 2.87592 12.9454 2.89153 12.9396 2.90925C12.9339 2.92697 12.9335 2.946 12.9386 2.96393L13.2775 4.21038C13.3005 4.29518 13.2065 4.36343 13.133 4.31534L12.0523 3.60785C12.0368 3.59745 12.0186 3.5919 12 3.5919C11.9813 3.5919 11.9631 3.59745 11.9476 3.60785L10.8669 4.31534C10.7934 4.36343 10.6995 4.29513 10.7225 4.21038L11.0613 2.96393C11.0664 2.94601 11.0661 2.92696 11.0603 2.90924C11.0546 2.89151 11.0437 2.87591 11.029 2.86441L10.0222 2.05521C9.95372 2.00013 9.98962 1.88965 10.0774 1.88534L11.3675 1.82248C11.3861 1.8218 11.4041 1.81558 11.4192 1.80463C11.4343 1.79367 11.4458 1.77848 11.4522 1.76098L11.9107 0.55343C11.9417 0.471773 12.0583 0.471773 12.0893 0.55343ZM6.68953 12.2592C6.68953 15.1923 9.06684 17.5696 12 17.5696C14.9331 17.5696 17.3104 15.1923 17.3104 12.2592H23.25V13.7816L21.3857 14.4993C21.1491 15.4924 20.7557 16.4415 20.2201 17.3107L21.0315 19.1376L18.8784 21.2908L17.0521 20.4796C16.1827 21.0153 15.2334 21.4088 14.2399 21.6454L13.5225 23.5092H10.4775L9.75989 21.6449C8.76674 21.4084 7.81768 21.0149 6.94847 20.4794L5.12156 21.2908L2.96836 19.1376L3.77953 17.3113C3.24385 16.4419 2.85033 15.4926 2.6138 14.4992L0.75 13.7817V12.2592H6.68953ZM12 5.47109C13.4997 5.47109 14.7154 6.68684 14.7154 8.18651C14.7154 9.68618 13.4997 10.9019 12 10.9019C10.5004 10.9019 9.28463 9.68613 9.28463 8.18651C9.28463 6.68684 10.5004 5.47109 12 5.47109Z" stroke="#F58A43" stroke-width="2" mask="url(#path-1-inside-1_879_151)"/>
</svg>
