<svg width="20" height="18" viewBox="0 0 20 18" fill="none" xmlns="http://www.w3.org/2000/svg">
<path d="M18.8089 7.2158L2.67244 0.520136C1.99263 0.238027 1.22466 0.362128 0.668181 0.843847C0.111696 1.32564 -0.121038 2.06795 0.0608368 2.78115L1.64654 8.99959L0.0608368 15.218C-0.121038 15.9312 0.111657 16.6735 0.668142 17.1553C1.22568 17.6381 1.99384 17.7606 2.67244 17.479L18.8089 10.7834C19.5436 10.4785 20 9.79502 20 8.99959C20 8.20416 19.5436 7.52064 18.8089 7.2158ZM18.3597 9.70096L2.2233 16.3966C1.95193 16.5092 1.65736 16.4617 1.43521 16.2693C1.2131 16.077 1.12384 15.7923 1.19642 15.5076L2.70654 9.58553H8.52939C8.85302 9.58553 9.11537 9.32318 9.11537 8.99955C9.11537 8.67592 8.85302 8.41357 8.52939 8.41357H2.70658L1.19642 2.49162C1.12384 2.20693 1.2131 1.92217 1.43521 1.72986C1.65732 1.53756 1.95181 1.48998 2.22326 1.60256L18.3597 8.29822C18.7943 8.47853 18.8281 8.88064 18.8281 8.99959C18.8281 9.11854 18.7943 9.52064 18.3597 9.70096Z" fill="#989EA5"/>
</svg>
