<svg width="15" height="15" viewBox="0 0 15 15" fill="none" xmlns="http://www.w3.org/2000/svg">
<path d="M3.075 11.3047V11.2297H3H1.5C0.714421 11.2297 0.075 10.5903 0.075 9.80469V1.80469C0.075 1.01911 0.714421 0.379688 1.5 0.379688H13.5C14.2856 0.379688 14.925 1.01911 14.925 1.80469V9.80469C14.925 10.5903 14.2856 11.2297 13.5 11.2297H7.4255H7.39919L7.37865 11.2461L3.76565 14.1366L3.76562 14.1366C3.69028 14.197 3.59661 14.2298 3.50009 14.2297C3.38737 14.2296 3.27932 14.1848 3.19963 14.1051C3.11993 14.0254 3.07511 13.9173 3.075 13.8046V11.3047ZM3.925 12.7647V12.9208L4.04686 12.8232L6.98434 10.4728C6.98435 10.4728 6.98435 10.4728 6.98436 10.4727C7.05976 10.4125 7.15343 10.3796 7.24996 10.3797H7.25H13.5C13.8175 10.3797 14.075 10.1216 14.075 9.80469V1.80469C14.075 1.48781 13.8175 1.22969 13.5 1.22969H1.5C1.18253 1.22969 0.925 1.48781 0.925 1.80469V9.80469C0.925 10.1216 1.18253 10.3797 1.5 10.3797H3.5C3.61272 10.3797 3.72082 10.4245 3.80052 10.5042C3.88022 10.5839 3.925 10.692 3.925 10.8047V12.7647Z" fill="#2E5DB0" stroke="#2E5DB0" stroke-width="0.15"/>
<path d="M11.5 5.30469H3.5C3.36739 5.30469 3.24021 5.25201 3.14645 5.15824C3.05268 5.06447 3 4.9373 3 4.80469C3 4.67208 3.05268 4.5449 3.14645 4.45113C3.24021 4.35737 3.36739 4.30469 3.5 4.30469H11.5C11.6326 4.30469 11.7598 4.35737 11.8536 4.45113C11.9473 4.5449 12 4.67208 12 4.80469C12 4.9373 11.9473 5.06447 11.8536 5.15824C11.7598 5.25201 11.6326 5.30469 11.5 5.30469ZM7.5 7.30469H3.5C3.36739 7.30469 3.24021 7.25201 3.14645 7.15824C3.05268 7.06447 3 6.9373 3 6.80469C3 6.67208 3.05268 6.5449 3.14645 6.45113C3.24021 6.35737 3.36739 6.30469 3.5 6.30469H7.5C7.63261 6.30469 7.75979 6.35737 7.85355 6.45113C7.94732 6.5449 8 6.67208 8 6.80469C8 6.9373 7.94732 7.06447 7.85355 7.15824C7.75979 7.25201 7.63261 7.30469 7.5 7.30469Z" fill="#2E5DB0"/>
</svg>
