<svg width="20" height="20" viewBox="0 0 20 20" fill="none" xmlns="http://www.w3.org/2000/svg">
<rect width="20" height="20" rx="10" fill="#FFDEDF"/>
<path d="M3.60352 12.8721C3.60352 12.6963 3.62142 12.5156 3.65723 12.3301C3.69303 12.1413 3.75651 11.9411 3.84766 11.7295L5.81543 7.04688C5.97168 6.67904 6.19792 6.39583 6.49414 6.19727C6.79362 5.9987 7.14355 5.89941 7.54395 5.89941C8.04525 5.89941 8.44564 6.04915 8.74512 6.34863C9.04785 6.64486 9.19922 7.04036 9.19922 7.53516V7.9209C9.32943 7.88509 9.46126 7.85742 9.59473 7.83789C9.72819 7.81836 9.86491 7.80859 10.0049 7.80859C10.1481 7.80859 10.2848 7.81673 10.415 7.83301C10.5485 7.84603 10.6771 7.86882 10.8008 7.90137V7.54004C10.8008 7.04525 10.9505 6.64974 11.25 6.35352C11.5527 6.05404 11.9548 5.9043 12.4561 5.9043C12.8532 5.9043 13.2015 6.00358 13.501 6.20215C13.8005 6.39746 14.0283 6.68066 14.1846 7.05176L16.1523 11.7344C16.2435 11.946 16.307 12.1445 16.3428 12.3301C16.3786 12.5156 16.3965 12.6979 16.3965 12.877C16.3965 13.3457 16.2695 13.7656 16.0156 14.1367C15.765 14.5078 15.4281 14.8008 15.0049 15.0156C14.5817 15.2337 14.1113 15.3428 13.5938 15.3428C13.0762 15.3428 12.6058 15.2337 12.1826 15.0156C11.7594 14.8008 11.4225 14.5078 11.1719 14.1367C10.9245 13.7656 10.8008 13.3457 10.8008 12.877V11.7393C10.5794 11.6676 10.3141 11.6318 10.0049 11.6318C9.86165 11.6318 9.72168 11.6432 9.58496 11.666C9.44824 11.6888 9.31966 11.7197 9.19922 11.7588V12.8721C9.19922 13.3408 9.07389 13.7607 8.82324 14.1318C8.57259 14.5029 8.23568 14.7959 7.8125 15.0107C7.38932 15.2288 6.92057 15.3379 6.40625 15.3379C5.88867 15.3379 5.41829 15.2288 4.99512 15.0107C4.57194 14.7959 4.2334 14.5029 3.97949 14.1318C3.72884 13.7607 3.60352 13.3408 3.60352 12.8721ZM4.64355 12.8721C4.64355 13.1585 4.72005 13.4124 4.87305 13.6338C5.0293 13.8519 5.23926 14.0228 5.50293 14.1465C5.76986 14.2702 6.07096 14.332 6.40625 14.332C6.74479 14.332 7.04753 14.2702 7.31445 14.1465C7.58464 14.026 7.79622 13.8568 7.94922 13.6387C8.10547 13.4173 8.18359 13.1618 8.18359 12.8721C8.18359 12.5791 8.10547 12.3236 7.94922 12.1055C7.79622 11.8841 7.58464 11.7132 7.31445 11.5928C7.04427 11.4723 6.74154 11.4121 6.40625 11.4121C6.07096 11.4121 5.76986 11.4723 5.50293 11.5928C5.23926 11.7132 5.0293 11.8841 4.87305 12.1055C4.72005 12.3236 4.64355 12.5791 4.64355 12.8721ZM11.8164 12.877C11.8164 13.1667 11.8945 13.4206 12.0508 13.6387C12.207 13.8568 12.4186 14.026 12.6855 14.1465C12.9557 14.2702 13.2585 14.332 13.5938 14.332C13.9323 14.332 14.2334 14.2702 14.4971 14.1465C14.7607 14.0228 14.9691 13.8519 15.1221 13.6338C15.2751 13.4157 15.3516 13.1634 15.3516 12.877C15.3516 12.584 15.2751 12.3285 15.1221 12.1104C14.9691 11.889 14.7607 11.7181 14.4971 11.5977C14.2334 11.474 13.9323 11.4121 13.5938 11.4121C13.2585 11.4121 12.9557 11.474 12.6855 11.5977C12.4186 11.7181 12.207 11.889 12.0508 12.1104C11.8945 12.3285 11.8164 12.584 11.8164 12.877ZM9.19922 10.2598C9.31966 10.2207 9.44824 10.1898 9.58496 10.167C9.72168 10.1442 9.86165 10.1328 10.0049 10.1328C10.3141 10.1328 10.5794 10.1654 10.8008 10.2305V9.41016C10.6771 9.38086 10.5485 9.35807 10.415 9.3418C10.2848 9.32552 10.1481 9.31738 10.0049 9.31738C9.72493 9.31738 9.45638 9.35482 9.19922 9.42969V10.2598Z" fill="#2E5DB0"/>
</svg>
