<svg width="14" height="14" viewBox="0 0 14 14" fill="none" xmlns="http://www.w3.org/2000/svg">
<path d="M6.99512 12.5186C6.30501 12.5186 5.6556 12.3867 5.04688 12.123C4.43815 11.8626 3.90104 11.4997 3.43555 11.0342C2.97331 10.5687 2.61035 10.0316 2.34668 9.42285C2.08301 8.81413 1.95117 8.16471 1.95117 7.47461C1.95117 6.78451 2.08301 6.13509 2.34668 5.52637C2.61035 4.91764 2.97331 4.38216 3.43555 3.91992C3.90104 3.45443 4.43652 3.08984 5.04199 2.82617C5.65072 2.5625 6.30013 2.43066 6.99023 2.43066C7.68359 2.43066 8.33464 2.5625 8.94336 2.82617C9.55208 3.08984 10.0892 3.45443 10.5547 3.91992C11.0202 4.38216 11.3848 4.91764 11.6484 5.52637C11.9121 6.13509 12.0439 6.78451 12.0439 7.47461C12.0439 8.16471 11.9121 8.81413 11.6484 9.42285C11.3848 10.0316 11.0202 10.5687 10.5547 11.0342C10.0892 11.4997 9.55208 11.8626 8.94336 12.123C8.33464 12.3867 7.68522 12.5186 6.99512 12.5186ZM7.00488 4.86719C6.87467 4.86719 6.76562 4.90951 6.67773 4.99414C6.58984 5.07552 6.5459 5.18132 6.5459 5.31152V7.69434L6.59473 8.73926L6.14062 8.17285L5.57422 7.58203C5.49284 7.49414 5.3903 7.4502 5.2666 7.4502C5.14616 7.4502 5.04525 7.48926 4.96387 7.56738C4.88574 7.64551 4.84668 7.74316 4.84668 7.86035C4.84668 7.98405 4.88737 8.08659 4.96875 8.16797L6.64355 9.86719C6.75098 9.98112 6.87142 10.0381 7.00488 10.0381C7.13509 10.0381 7.25553 9.98112 7.36621 9.86719L9.04102 8.16797C9.1224 8.08333 9.16309 7.98079 9.16309 7.86035C9.16309 7.74316 9.1224 7.64551 9.04102 7.56738C8.95964 7.48926 8.85872 7.4502 8.73828 7.4502C8.61133 7.4502 8.50879 7.49414 8.43066 7.58203L7.86914 8.16797L7.41016 8.74414L7.4541 7.69434V5.31152C7.4541 5.18132 7.41178 5.07552 7.32715 4.99414C7.24251 4.90951 7.13509 4.86719 7.00488 4.86719Z" fill="white" fill-opacity="0.85"/>
</svg>
