<svg width="12" height="13" viewBox="0 0 12 13" fill="none" xmlns="http://www.w3.org/2000/svg">
<path d="M6.02539 12.752C5.20898 12.752 4.43945 12.5957 3.7168 12.2832C2.99805 11.9707 2.36328 11.5391 1.8125 10.9883C1.26172 10.4375 0.830078 9.80273 0.517578 9.08398C0.205078 8.36133 0.0488281 7.5918 0.0488281 6.77539C0.0488281 5.95898 0.205078 5.19141 0.517578 4.47266C0.830078 3.75 1.25977 3.11328 1.80664 2.5625C2.35742 2.01172 2.99219 1.58008 3.71094 1.26758C4.43359 0.955078 5.20312 0.798828 6.01953 0.798828C6.83594 0.798828 7.60547 0.955078 8.32812 1.26758C9.05078 1.58008 9.6875 2.01172 10.2383 2.5625C10.7891 3.11328 11.2207 3.75 11.5332 4.47266C11.8457 5.19141 12.002 5.95898 12.002 6.77539C12.002 7.5918 11.8457 8.36133 11.5332 9.08398C11.2207 9.80273 10.7891 10.4375 10.2383 10.9883C9.6875 11.5391 9.05078 11.9707 8.32812 12.2832C7.60938 12.5957 6.8418 12.752 6.02539 12.752ZM2.96094 7.66602C3.0625 7.66602 3.14844 7.63086 3.21875 7.56055C3.28906 7.49023 3.32422 7.4043 3.32422 7.30273V6.23633C3.32422 6.13867 3.28906 6.05469 3.21875 5.98438C3.14844 5.91406 3.0625 5.87891 2.96094 5.87891C2.85938 5.87891 2.77344 5.91406 2.70312 5.98438C2.63281 6.05469 2.59766 6.13867 2.59766 6.23633V7.30273C2.59766 7.4043 2.63281 7.49023 2.70312 7.56055C2.77734 7.63086 2.86328 7.66602 2.96094 7.66602ZM4.18555 8.69727C4.29102 8.69727 4.37891 8.66211 4.44922 8.5918C4.51953 8.52148 4.55469 8.43359 4.55469 8.32812V5.21094C4.55469 5.10938 4.51953 5.02344 4.44922 4.95312C4.37891 4.88281 4.29102 4.84766 4.18555 4.84766C4.08398 4.84766 3.99805 4.88281 3.92773 4.95312C3.85742 5.02344 3.82227 5.10938 3.82227 5.21094V8.32812C3.82227 8.43359 3.85742 8.52148 3.92773 8.5918C3.99805 8.66211 4.08398 8.69727 4.18555 8.69727ZM5.41602 10.1211C5.51758 10.1211 5.60352 10.0859 5.67383 10.0156C5.74414 9.94141 5.7793 9.85352 5.7793 9.75195V3.79883C5.7793 3.69336 5.74414 3.60547 5.67383 3.53516C5.60352 3.46484 5.51758 3.42969 5.41602 3.42969C5.31445 3.42969 5.22852 3.46484 5.1582 3.53516C5.08789 3.60547 5.05273 3.69336 5.05273 3.79883V9.75195C5.05273 9.85742 5.08594 9.94531 5.15234 10.0156C5.22266 10.0859 5.31055 10.1211 5.41602 10.1211ZM6.63477 8.14648C6.74023 8.14648 6.82812 8.11133 6.89844 8.04102C6.96875 7.9707 7.00391 7.88672 7.00391 7.78906V5.75586C7.00391 5.6582 6.96875 5.57422 6.89844 5.50391C6.82812 5.43359 6.74023 5.39844 6.63477 5.39844C6.5332 5.39844 6.44727 5.43359 6.37695 5.50391C6.31055 5.57422 6.27734 5.6582 6.27734 5.75586V7.78906C6.27734 7.88672 6.31055 7.9707 6.37695 8.04102C6.44727 8.11133 6.5332 8.14648 6.63477 8.14648ZM7.86523 9.27148C7.9668 9.27148 8.05273 9.23828 8.12305 9.17188C8.19336 9.10156 8.22852 9.01562 8.22852 8.91406V4.63086C8.22852 4.5293 8.19336 4.44531 8.12305 4.37891C8.05273 4.30859 7.9668 4.27344 7.86523 4.27344C7.75977 4.27344 7.67188 4.30859 7.60156 4.37891C7.53125 4.44531 7.49609 4.5293 7.49609 4.63086V8.91406C7.49609 9.01562 7.53125 9.10156 7.60156 9.17188C7.67188 9.23828 7.75977 9.27148 7.86523 9.27148ZM9.0957 7.90625C9.19727 7.90625 9.28125 7.87305 9.34766 7.80664C9.41797 7.73633 9.45312 7.64844 9.45312 7.54297V6.00195C9.45312 5.89648 9.41797 5.81055 9.34766 5.74414C9.28125 5.67383 9.19727 5.63867 9.0957 5.63867C8.99023 5.63867 8.90234 5.67383 8.83203 5.74414C8.76172 5.81445 8.72656 5.90039 8.72656 6.00195V7.54297C8.72656 7.64453 8.76172 7.73047 8.83203 7.80078C8.90234 7.87109 8.99023 7.90625 9.0957 7.90625Z" fill="black" fill-opacity="0.85"/>
</svg>
