<svg width="12" height="11" viewBox="0 0 12 11" fill="none" xmlns="http://www.w3.org/2000/svg">
<path d="M3 10.5547C2.90057 10.5546 2.80525 10.515 2.73494 10.4447C2.66464 10.3744 2.6251 10.2791 2.625 10.1797V8.30469H1.5C0.87975 8.30469 0.375 7.79994 0.375 7.17969V1.17969C0.375 0.559438 0.87975 0.0546875 1.5 0.0546875H10.5C11.1202 0.0546875 11.625 0.559438 11.625 1.17969V7.17969C11.625 7.79994 11.1202 8.30469 10.5 8.30469H5.94413L3.23438 10.4726C3.16787 10.5258 3.0852 10.5548 3 10.5547ZM1.5 0.804688C1.293 0.804688 1.125 0.973063 1.125 1.17969V7.17969C1.125 7.38631 1.293 7.55469 1.5 7.55469H3C3.09946 7.55469 3.19484 7.5942 3.26516 7.66452C3.33549 7.73485 3.375 7.83023 3.375 7.92969V9.39969L5.57812 7.63681C5.64465 7.58361 5.72731 7.55465 5.8125 7.55469H10.5C10.707 7.55469 10.875 7.38631 10.875 7.17969V1.17969C10.875 0.973063 10.707 0.804688 10.5 0.804688H1.5Z" fill="#5D636B"/>
<path d="M9 3.80469H3C2.90054 3.80469 2.80516 3.76518 2.73484 3.69485C2.66451 3.62453 2.625 3.52914 2.625 3.42969C2.625 3.33023 2.66451 3.23485 2.73484 3.16452C2.80516 3.0942 2.90054 3.05469 3 3.05469H9C9.09946 3.05469 9.19484 3.0942 9.26517 3.16452C9.33549 3.23485 9.375 3.33023 9.375 3.42969C9.375 3.52914 9.33549 3.62453 9.26517 3.69485C9.19484 3.76518 9.09946 3.80469 9 3.80469ZM6 5.30469H3C2.90054 5.30469 2.80516 5.26518 2.73484 5.19485C2.66451 5.12453 2.625 5.02914 2.625 4.92969C2.625 4.83023 2.66451 4.73485 2.73484 4.66452C2.80516 4.5942 2.90054 4.55469 3 4.55469H6C6.09946 4.55469 6.19484 4.5942 6.26517 4.66452C6.33549 4.73485 6.375 4.83023 6.375 4.92969C6.375 5.02914 6.33549 5.12453 6.26517 5.19485C6.19484 5.26518 6.09946 5.30469 6 5.30469Z" fill="#5D636B"/>
</svg>
