<svg width="33" height="33" viewBox="0 0 33 33" fill="none" xmlns="http://www.w3.org/2000/svg">
<path d="M13.7659 24.7737L9.99521 28.5444C8.43195 30.1077 5.90038 30.1077 4.33843 28.5448C2.77617 26.9825 2.77617 24.4507 4.33812 22.8887L11.8808 15.346C13.4428 13.784 15.9746 13.784 17.5366 15.346C18.0573 15.8667 18.9015 15.8667 19.4222 15.346C19.9429 14.8253 19.9429 13.981 19.4222 13.4604C16.8188 10.857 12.5986 10.857 9.99521 13.4604L2.45254 21.003C-0.150848 23.6064 -0.150848 27.8266 2.45254 30.43C5.05562 33.0348 9.27615 33.0348 11.8809 30.43L15.6516 26.6593C16.1723 26.1386 16.1723 25.2944 15.6516 24.7737C15.1309 24.253 14.2866 24.253 13.7659 24.7737Z" fill="#2E5DB0"/>
<path d="M30.5432 2.33536C27.9399 -0.268035 23.7183 -0.268035 21.1149 2.33536L16.5909 6.85938C16.0702 7.38007 16.0702 8.22433 16.5909 8.74502C17.1115 9.26571 17.9558 9.26571 18.4765 8.74502L23.0005 4.22099C24.5625 2.65898 27.0956 2.65898 28.6576 4.22099C30.2196 5.78294 30.2196 8.31477 28.6576 9.87671L20.3616 18.1728C18.7996 19.7348 16.2678 19.7348 14.7058 18.1728C14.1852 17.6521 13.3409 17.6521 12.8202 18.1728C12.2995 18.6935 12.2995 19.5378 12.8202 20.0585C15.4236 22.6618 19.6438 22.6618 22.2472 20.0585L30.5432 11.7624C33.1466 9.15902 33.1466 4.93875 30.5432 2.33536Z" fill="#2E5DB0"/>
</svg>
