<svg width="20" height="20" viewBox="0 0 20 20" fill="none" xmlns="http://www.w3.org/2000/svg">
<g clip-path="url(#clip0_12407_63815)">
<path d="M10.007 19.164C10.2238 19.16 10.4305 19.0719 10.5834 18.9183L14.7472 14.7514C14.8353 14.6769 14.907 14.5849 14.9578 14.4813C15.0086 14.3777 15.0373 14.2647 15.0422 14.1494C15.0471 14.0341 15.0281 13.9191 14.9862 13.8115C14.9444 13.704 14.8808 13.6063 14.7993 13.5246C14.7178 13.4429 14.6203 13.379 14.5129 13.3369C14.4054 13.2948 14.2904 13.2754 14.1751 13.28C14.0598 13.2846 13.9468 13.313 13.843 13.3635C13.7393 13.414 13.6471 13.4855 13.5724 13.5734L10.8354 16.3104L10.8291 1.6742C10.8291 1.45283 10.7411 1.24054 10.5846 1.08401C10.4281 0.927486 10.2158 0.83955 9.99443 0.83955C9.77307 0.83955 9.56077 0.927486 9.40425 1.08401C9.24772 1.24054 9.15979 1.45283 9.15979 1.6742L9.16923 16.3262L6.41963 13.5734C6.2615 13.4264 6.05256 13.3464 5.83667 13.3501C5.62079 13.3539 5.41477 13.4412 5.26189 13.5937C5.10901 13.7462 5.02117 13.9519 5.01681 14.1678C5.01246 14.3837 5.09192 14.5928 5.23853 14.7514L9.4023 18.9183C9.48143 18.9978 9.57575 19.0605 9.67965 19.1027C9.78355 19.1449 9.8949 19.1657 10.007 19.164Z" fill="#E74649"/>
</g>
<defs>
<clipPath id="clip0_12407_63815">
<rect width="20" height="20" fill="white" transform="translate(20 20) rotate(-180)"/>
</clipPath>
</defs>
</svg>
