<svg width="11" height="7" viewBox="0 0 11 7" fill="none" xmlns="http://www.w3.org/2000/svg">
<path d="M5.29492 6.21045C5.03711 6.21045 4.80078 6.10482 4.58594 5.89355L0.611328 1.82764C0.532552 1.74528 0.47168 1.65576 0.428711 1.55908C0.389323 1.45882 0.369629 1.3514 0.369629 1.23682C0.369629 1.07568 0.407227 0.930664 0.482422 0.801758C0.561198 0.669271 0.665039 0.56543 0.793945 0.490234C0.922852 0.411458 1.06608 0.37207 1.22363 0.37207C1.46354 0.37207 1.6748 0.463379 1.85742 0.645996L5.51514 4.41113H5.08008L8.72705 0.645996C8.90967 0.463379 9.11914 0.37207 9.35547 0.37207C9.51302 0.37207 9.65625 0.411458 9.78516 0.490234C9.91406 0.56543 10.0161 0.669271 10.0913 0.801758C10.1701 0.930664 10.2095 1.07568 10.2095 1.23682C10.2095 1.46956 10.1289 1.6665 9.96777 1.82764L5.99854 5.89355C5.89111 6.00098 5.78011 6.07975 5.66553 6.12988C5.55094 6.18001 5.42741 6.20687 5.29492 6.21045Z" fill="black" fill-opacity="0.5"/>
</svg>
