<svg width="42" height="14" viewBox="0 0 42 14" fill="none" xmlns="http://www.w3.org/2000/svg">
<rect width="42" height="14" rx="6" fill="#DFEBF7" fill-opacity="0.5"/>
<path d="M20.6855 9.98047C20.4902 9.98047 20.3125 9.90234 20.1523 9.74609L15.6934 5.18164C15.627 5.11914 15.5762 5.04883 15.541 4.9707C15.5098 4.88867 15.4941 4.80078 15.4941 4.70703C15.4941 4.57812 15.5234 4.46094 15.582 4.35547C15.6445 4.25 15.7266 4.16797 15.8281 4.10938C15.9297 4.04688 16.0449 4.01562 16.1738 4.01562C16.3613 4.01562 16.5254 4.08594 16.666 4.22656L20.9727 8.63867H20.4043L24.7051 4.22656C24.8457 4.08594 25.0098 4.01562 25.1973 4.01562C25.3262 4.01562 25.4414 4.04688 25.543 4.10938C25.6445 4.16797 25.7246 4.25 25.7832 4.35547C25.8457 4.46094 25.877 4.57812 25.877 4.70703C25.877 4.89062 25.8105 5.04883 25.6777 5.18164L21.2188 9.74609C21.1445 9.82422 21.0625 9.88281 20.9727 9.92188C20.8828 9.96094 20.7871 9.98047 20.6855 9.98047Z" fill="#2E5DB0" fill-opacity="0.85"/>
</svg>
