<svg width="18" height="14" viewBox="0 0 18 14" fill="none" xmlns="http://www.w3.org/2000/svg">
<path d="M16.3828 10.8447C16.4102 11.5055 16.2552 12.0091 15.918 12.3555C15.5807 12.7018 15.068 12.875 14.3799 12.875H3.30566C2.736 12.875 2.30534 12.7132 2.01367 12.3896C1.72201 12.0661 1.56706 11.5876 1.54883 10.9541L4.12598 8.64355C4.26725 8.51139 4.40853 8.41569 4.5498 8.35645C4.69564 8.29264 4.84831 8.26074 5.00781 8.26074C5.16732 8.26074 5.32454 8.29492 5.47949 8.36328C5.639 8.42708 5.78939 8.52279 5.93066 8.65039L7.19531 9.79199L10.2783 7.03027C10.4378 6.89355 10.6019 6.79102 10.7705 6.72266C10.9391 6.6543 11.1169 6.62012 11.3037 6.62012C11.486 6.62012 11.6637 6.65658 11.8369 6.72949C12.0146 6.79785 12.1787 6.90267 12.3291 7.04395L16.3828 10.8447ZM6.19727 7.19434C5.89648 7.19434 5.62077 7.12142 5.37012 6.97559C5.12402 6.82975 4.92578 6.63151 4.77539 6.38086C4.62956 6.13021 4.55664 5.85449 4.55664 5.55371C4.55664 5.25749 4.62956 4.98405 4.77539 4.7334C4.92578 4.48275 5.12402 4.28451 5.37012 4.13867C5.62077 3.98828 5.89648 3.91309 6.19727 3.91309C6.49805 3.91309 6.77148 3.98828 7.01758 4.13867C7.26367 4.28451 7.45964 4.48275 7.60547 4.7334C7.75586 4.98405 7.83105 5.25749 7.83105 5.55371C7.83105 5.85449 7.75586 6.13021 7.60547 6.38086C7.45964 6.63151 7.26367 6.82975 7.01758 6.97559C6.77148 7.12142 6.49805 7.19434 6.19727 7.19434ZM3.1416 13.4492C2.40332 13.4492 1.84505 13.2624 1.4668 12.8887C1.08854 12.515 0.899414 11.9635 0.899414 11.2344V2.9082C0.899414 2.17904 1.08854 1.6276 1.4668 1.25391C1.84505 0.875651 2.40332 0.686523 3.1416 0.686523H14.8447C15.5876 0.686523 16.1481 0.875651 16.5264 1.25391C16.9046 1.6276 17.0938 2.17904 17.0938 2.9082V11.2344C17.0938 11.9635 16.9046 12.515 16.5264 12.8887C16.1481 13.2624 15.5876 13.4492 14.8447 13.4492H3.1416ZM3.22363 12.1094H14.7695C15.084 12.1094 15.3255 12.0273 15.4941 11.8633C15.6628 11.6947 15.7471 11.4463 15.7471 11.1182V3.02441C15.7471 2.69629 15.6628 2.4502 15.4941 2.28613C15.3255 2.11751 15.084 2.0332 14.7695 2.0332H3.22363C2.90462 2.0332 2.66081 2.11751 2.49219 2.28613C2.32812 2.4502 2.24609 2.69629 2.24609 3.02441V11.1182C2.24609 11.4463 2.32812 11.6947 2.49219 11.8633C2.66081 12.0273 2.90462 12.1094 3.22363 12.1094Z" fill="black" fill-opacity="0.85"/>
</svg>
