<svg width="12" height="14" viewBox="0 0 12 14" fill="none" xmlns="http://www.w3.org/2000/svg">
<path d="M6.53516 14.0098C6.44922 14.0098 6.37305 13.9805 6.30664 13.9219C6.24414 13.8633 6.20703 13.7871 6.19531 13.6934C6.10156 13.0605 6.00195 12.5273 5.89648 12.0938C5.79102 11.6641 5.6543 11.3105 5.48633 11.0332C5.31836 10.7559 5.0957 10.5352 4.81836 10.3711C4.54492 10.2031 4.19531 10.0684 3.76953 9.9668C3.34766 9.86523 2.82422 9.77344 2.19922 9.69141C2.09766 9.67969 2.01758 9.64258 1.95898 9.58008C1.90039 9.51367 1.87109 9.43359 1.87109 9.33984C1.87109 9.25 1.90039 9.17383 1.95898 9.11133C2.02148 9.04492 2.10156 9.00586 2.19922 8.99414C2.82422 8.92383 3.34961 8.8418 3.77539 8.74805C4.20117 8.65039 4.55273 8.51758 4.83008 8.34961C5.10742 8.17773 5.33008 7.95117 5.49805 7.66992C5.66992 7.38867 5.80664 7.03125 5.9082 6.59766C6.01367 6.16406 6.10938 5.62891 6.19531 4.99219C6.20703 4.89844 6.24414 4.82227 6.30664 4.76367C6.37305 4.70508 6.44922 4.67578 6.53516 4.67578C6.62891 4.67578 6.70508 4.70508 6.76367 4.76367C6.82617 4.82227 6.86719 4.89844 6.88672 4.99219C6.97266 5.62891 7.06641 6.16406 7.16797 6.59766C7.27344 7.03125 7.41016 7.38867 7.57812 7.66992C7.75 7.94727 7.97266 8.17188 8.24609 8.34375C8.52344 8.51172 8.875 8.64453 9.30078 8.74219C9.72656 8.83984 10.252 8.92383 10.877 8.99414C10.9746 9.00586 11.0527 9.04492 11.1113 9.11133C11.1738 9.17773 11.2051 9.25391 11.2051 9.33984C11.2051 9.43359 11.1738 9.51367 11.1113 9.58008C11.0527 9.64648 10.9746 9.68359 10.877 9.69141C10.252 9.76172 9.72461 9.8457 9.29492 9.94336C8.86914 10.0371 8.51758 10.168 8.24023 10.3359C7.96289 10.5039 7.74023 10.7285 7.57227 11.0098C7.4043 11.291 7.26758 11.6504 7.16211 12.0879C7.06055 12.5254 6.96875 13.0605 6.88672 13.6934C6.87109 13.7871 6.83203 13.8633 6.76953 13.9219C6.70703 13.9805 6.62891 14.0098 6.53516 14.0098ZM2.48633 7.51758C2.35352 7.51758 2.27734 7.44531 2.25781 7.30078C2.21094 6.91406 2.16211 6.61133 2.11133 6.39258C2.06055 6.16992 1.97852 6.00391 1.86523 5.89453C1.75195 5.78125 1.58008 5.69531 1.34961 5.63672C1.12305 5.57812 0.8125 5.51562 0.417969 5.44922C0.269531 5.42969 0.195312 5.35547 0.195312 5.22656C0.195312 5.10547 0.259766 5.0332 0.388672 5.00977C0.791016 4.93555 1.10742 4.86914 1.33789 4.81055C1.56836 4.74805 1.74023 4.66211 1.85352 4.55273C1.9707 4.44336 2.05469 4.28125 2.10547 4.06641C2.16016 3.85156 2.21094 3.55078 2.25781 3.16406C2.27734 3.01953 2.35352 2.94727 2.48633 2.94727C2.61523 2.94727 2.68945 3.01563 2.70898 3.15234C2.75586 3.54687 2.80469 3.85742 2.85547 4.08398C2.91016 4.31055 2.99414 4.48047 3.10742 4.59375C3.2207 4.70703 3.39258 4.79102 3.62305 4.8457C3.85352 4.89648 4.16992 4.95117 4.57227 5.00977C4.63086 5.01367 4.67773 5.03711 4.71289 5.08008C4.75195 5.11914 4.77148 5.16797 4.77148 5.22656C4.77148 5.35156 4.70703 5.42578 4.57812 5.44922C4.17188 5.52734 3.85352 5.59766 3.62305 5.66016C3.39648 5.71875 3.22656 5.80469 3.11328 5.91797C3 6.02734 2.91602 6.19141 2.86133 6.41016C2.80664 6.625 2.75586 6.92578 2.70898 7.3125C2.69727 7.37109 2.67188 7.41992 2.63281 7.45898C2.59375 7.49805 2.54492 7.51758 2.48633 7.51758ZM5.32227 3.42188C5.24023 3.42188 5.19336 3.37891 5.18164 3.29297C5.13867 3.05469 5.09961 2.86719 5.06445 2.73047C5.0332 2.59375 4.98242 2.49023 4.91211 2.41992C4.8457 2.34961 4.74219 2.29492 4.60156 2.25586C4.46484 2.21289 4.26953 2.16992 4.01562 2.12695C3.92969 2.10742 3.88672 2.05664 3.88672 1.97461C3.88672 1.90039 3.92969 1.85352 4.01562 1.83398C4.26953 1.78711 4.46484 1.74414 4.60156 1.70508C4.74219 1.66211 4.8457 1.60547 4.91211 1.53516C4.98242 1.46484 5.0332 1.36328 5.06445 1.23047C5.09961 1.09375 5.13867 0.90625 5.18164 0.667969C5.19336 0.582031 5.24023 0.539062 5.32227 0.539062C5.4043 0.539062 5.45312 0.582031 5.46875 0.667969C5.50781 0.90625 5.54492 1.09375 5.58008 1.23047C5.61523 1.36719 5.66602 1.4707 5.73242 1.54102C5.80273 1.61133 5.90625 1.66797 6.04297 1.71094C6.18359 1.75 6.38086 1.79102 6.63477 1.83398C6.7207 1.84961 6.76367 1.89648 6.76367 1.97461C6.76367 2.05664 6.7207 2.10742 6.63477 2.12695C6.38086 2.16992 6.18359 2.21289 6.04297 2.25586C5.90625 2.29492 5.80273 2.35156 5.73242 2.42578C5.66602 2.49609 5.61523 2.59961 5.58008 2.73633C5.54492 2.86914 5.50781 3.05469 5.46875 3.29297C5.45312 3.37891 5.4043 3.42188 5.32227 3.42188Z" fill="black" fill-opacity="0.5"/>
</svg>
