<svg width="20" height="20" viewBox="0 0 20 20" fill="none" xmlns="http://www.w3.org/2000/svg">
<path d="M9.99297 0.836042C9.77623 0.839976 9.56953 0.928081 9.41659 1.08171L5.25281 5.24864C5.1647 5.32314 5.09299 5.41509 5.04221 5.5187C4.99143 5.62231 4.96268 5.73532 4.95778 5.8506C4.95289 5.96589 4.97195 6.08093 5.01376 6.18847C5.05557 6.29602 5.11922 6.39372 5.2007 6.47542C5.28218 6.55712 5.37972 6.62104 5.48715 6.66313C5.59458 6.70523 5.70957 6.7246 5.82487 6.72001C5.94016 6.71542 6.05325 6.68698 6.157 6.63648C6.26074 6.58597 6.35289 6.51451 6.42762 6.42659L9.16463 3.68959L9.17092 18.3258C9.17092 18.5472 9.25886 18.7595 9.41539 18.916C9.57191 19.0725 9.78421 19.1604 10.0056 19.1604C10.2269 19.1604 10.4392 19.0725 10.5958 18.916C10.7523 18.7595 10.8402 18.5472 10.8402 18.3258L10.8308 3.67384L13.5804 6.42659C13.7385 6.57362 13.9474 6.65364 14.1633 6.64986C14.3792 6.64608 14.5852 6.55879 14.7381 6.40631C14.891 6.25384 14.9788 6.04806 14.9832 5.83219C14.9875 5.61632 14.9081 5.40716 14.7615 5.24864L10.5977 1.08171C10.5186 1.00224 10.4242 0.939521 10.3203 0.897312C10.2164 0.855102 10.1051 0.834265 9.99297 0.836042Z" fill="#1BAD70"/>
</svg>
