<svg width="17" height="17" viewBox="0 0 17 17" fill="none" xmlns="http://www.w3.org/2000/svg">
<path d="M8.30469 0.641602C3.89349 0.641602 0.304688 4.23041 0.304688 8.6416C0.304688 13.0528 3.89349 16.6416 8.30469 16.6416C12.7159 16.6416 16.3047 13.0528 16.3047 8.6416C16.3047 4.23041 12.7159 0.641602 8.30469 0.641602ZM8.30469 15.7767C6.34488 15.7767 4.56718 14.9823 3.2764 13.6989C2.75846 13.184 2.32219 12.593 1.98266 11.9464C1.46373 10.9578 1.16956 9.83346 1.16956 8.6416C1.16956 4.70728 4.37036 1.50648 8.30469 1.50648C10.1708 1.50648 11.8716 2.22692 13.1444 3.40391C13.8043 4.01408 14.3492 4.74685 14.7421 5.56588C15.1892 6.49774 15.4398 7.54094 15.4398 8.6416C15.4398 12.5759 12.239 15.7767 8.30469 15.7767Z" fill="#1BAD70"/>
<path d="M5.693 7.72243C6.17066 7.72243 6.55788 7.33521 6.55788 6.85755C6.55788 6.37989 6.17066 5.99268 5.693 5.99268C5.21534 5.99268 4.82812 6.37989 4.82812 6.85755C4.82812 7.33521 5.21534 7.72243 5.693 7.72243Z" fill="#1BAD70"/>
<path d="M11.0446 7.72243C11.5222 7.72243 11.9094 7.33521 11.9094 6.85755C11.9094 6.37989 11.5222 5.99268 11.0446 5.99268C10.5669 5.99268 10.1797 6.37989 10.1797 6.85755C10.1797 7.33521 10.5669 7.72243 11.0446 7.72243Z" fill="#1BAD70"/>
<path d="M8.28927 13.0739C9.96248 13.0739 11.566 12.2183 12.4841 10.7975L11.7577 10.3281C10.9146 11.6327 9.37248 12.3608 7.82829 12.1826C6.62493 12.0439 5.5121 11.3506 4.85139 10.3281L4.125 10.7975C4.92447 12.0348 6.27184 12.8737 7.72916 13.0418C7.91624 13.0634 8.10305 13.0739 8.28927 13.0739Z" fill="#1BAD70"/>
</svg>
