<svg width="81" height="80" viewBox="0 0 81 80" fill="none" xmlns="http://www.w3.org/2000/svg">
<g clip-path="url(#clip0_761_14623)">
<path d="M38.1918 59.2008C37.59 58.7592 36.7433 58.8881 36.3011 59.4901L36.1341 59.7175C35.9219 60.0063 35.833 60.3676 35.887 60.7219C35.941 61.0762 36.1334 61.3946 36.4219 61.6072C36.6538 61.7787 36.9347 61.8712 37.2232 61.8711C37.435 61.8714 37.6439 61.8218 37.8331 61.7265C38.0222 61.6311 38.1862 61.4925 38.3119 61.322L38.4815 61.0915C38.6937 60.8024 38.7824 60.4407 38.7281 60.0862C38.6738 59.7316 38.4809 59.4131 38.1918 59.2008Z" fill="#5D636B"/>
<path d="M38.5447 72.0687L35.0661 65.7434L38.3139 61.32C38.4191 61.1768 38.495 61.0143 38.5374 60.8418C38.5797 60.6693 38.5877 60.4901 38.5608 60.3146C38.5339 60.139 38.4727 59.9704 38.3806 59.8185C38.2885 59.6666 38.1674 59.5343 38.0242 59.4292C37.8811 59.324 37.7186 59.2481 37.5461 59.2057C37.3736 59.1634 37.1945 59.1554 37.0189 59.1824C36.8433 59.2093 36.6747 59.2705 36.5228 59.3626C36.371 59.4547 36.2387 59.5758 36.1336 59.719L32.3746 64.8386C32.2219 65.0464 32.1319 65.2935 32.1151 65.5509C32.0982 65.8082 32.1553 66.0649 32.2796 66.2909L36.1746 73.3723V73.3722C36.3475 73.6865 36.6381 73.9192 36.9826 74.0192C37.3271 74.1192 37.6973 74.0783 38.0116 73.9054C38.1672 73.8198 38.3044 73.7044 38.4154 73.5658C38.5264 73.4272 38.609 73.268 38.6586 73.0975C38.7081 72.9269 38.7235 72.7483 38.704 72.5718C38.6844 72.3953 38.6303 72.2243 38.5447 72.0687ZM48.6257 64.8387L44.8819 59.74C44.6683 59.454 44.3504 59.264 43.9973 59.2114C43.6443 59.1588 43.2848 59.2479 42.9971 59.4592C42.7095 59.6705 42.517 59.9869 42.4616 60.3395C42.4062 60.6921 42.4924 61.0524 42.7014 61.3417L45.9333 65.7436L42.4785 72.0259C42.3055 72.3402 42.2644 72.7104 42.3644 73.055C42.4643 73.3996 42.6971 73.6904 43.0114 73.8634C43.3258 74.0364 43.696 74.0774 44.0406 73.9775C44.3852 73.8775 44.6759 73.6448 44.8489 73.3304L48.7205 66.2914C48.8448 66.0654 48.9019 65.8086 48.8851 65.5512C48.8683 65.2938 48.7783 65.0466 48.6257 64.8387ZM50.7689 43.5829C50.5506 43.4683 50.3051 43.4154 50.059 43.4302C49.8129 43.4449 49.5754 43.5266 49.3724 43.6665C48.5678 44.2207 47.8213 44.8079 47.1535 45.4115C43.5135 48.7022 40.0552 48.2568 39.9197 48.2375C39.8382 48.2244 39.7557 48.219 39.6732 48.2214C38.2346 48.2582 35.6408 46.9437 32.8969 44.7887C32.4816 44.4623 32.0548 44.1509 31.6172 43.8551C31.4138 43.7177 31.1768 43.6383 30.9316 43.6254C30.6865 43.6124 30.4425 43.6664 30.2257 43.7816C30.0089 43.8968 29.8276 44.0689 29.7012 44.2793C29.5747 44.4897 29.508 44.7306 29.508 44.9761V49.6161C29.5081 49.8431 29.5654 50.0666 29.6745 50.2657C29.7837 50.4648 29.9412 50.6333 30.1325 50.7556L39.7233 57.1643C39.7249 57.1653 39.7263 57.1665 39.7278 57.1676L39.7532 57.1845C39.9747 57.3312 40.2345 57.4094 40.5002 57.4093C40.772 57.4093 41.0376 57.3275 41.2624 57.1747L41.2761 57.1656C41.2815 57.1621 41.2868 57.1586 41.2921 57.155L50.8602 50.7614C51.0538 50.6396 51.2133 50.4707 51.3239 50.2705C51.4344 50.0702 51.4924 49.8452 51.4924 49.6165V44.7804C51.4924 44.5338 51.4251 44.2919 51.2975 44.0809C51.17 43.8698 50.9872 43.6976 50.7689 43.5829ZM48.7871 48.8926L40.5 54.4301L32.2132 48.8925V47.6623C34.231 49.1287 37.1992 50.9273 39.6188 50.9272H39.6346C40.4469 51.017 44.5896 51.2612 48.7874 47.5787V48.8926H48.7871Z" fill="#5D636B"/>
<path d="M41.8342 55.8344C41.7905 55.5721 41.6704 55.3284 41.4889 55.1339C41.3074 54.9394 41.0726 54.8028 40.8138 54.7411C40.5551 54.6794 40.2839 54.6954 40.0341 54.787C39.7844 54.8786 39.5673 55.0419 39.4098 55.2563L36.3009 59.4909C36.1958 59.634 36.1199 59.7965 36.0775 59.969C36.0352 60.1415 36.0272 60.3207 36.0542 60.4963C36.0811 60.6719 36.1423 60.8404 36.2344 60.9923C36.3265 61.1443 36.4476 61.2765 36.5908 61.3816C36.8223 61.5524 37.1025 61.6444 37.3902 61.6441C37.6027 61.6444 37.8124 61.5945 38.002 61.4985C38.1917 61.4025 38.356 61.2631 38.4817 61.0916L41.5744 56.8795C41.687 56.7324 41.7682 56.5637 41.8129 56.384C41.8576 56.2042 41.8649 56.0171 41.8342 55.8344ZM61.1064 12.2296C61.0795 12.0177 60.4459 7.44492 56.1416 5.64102C56.2666 4.83789 56.2534 3.8057 55.7436 2.80148C55.0583 1.4518 53.7059 0.572266 51.7239 0.186953C51.6389 0.170404 51.5525 0.162084 51.4659 0.162109H33.3117C25.9402 0.162109 19.9428 6.1593 19.9428 13.5312V20.6548C19.9428 22.5107 20.5755 24.3205 21.7239 25.7505C22.2933 26.4596 22.9945 27.6979 23.1003 29.5701C23.1197 29.9218 23.2757 30.252 23.5351 30.4903C23.7946 30.7286 24.1368 30.8561 24.4889 30.8455C24.8409 30.8356 25.1751 30.6888 25.4205 30.4363C25.666 30.1839 25.8033 29.8456 25.8033 29.4935V20.206C26.7217 16.4077 29.8562 15.6685 30.3952 15.5687H36.2673C36.9581 15.5687 37.6373 15.4632 38.2866 15.2551C39.4031 14.897 41.1745 14.2379 42.4642 13.748C43.3287 13.42 44.2813 13.4081 45.1537 13.7143L51.4403 15.9212C54.5831 17.0805 55.1441 19.8396 55.2136 20.273V31.4195C55.2136 31.5971 55.2485 31.7731 55.3166 31.9372C55.3846 32.1014 55.4843 32.2505 55.6101 32.3761C55.7358 32.5016 55.885 32.6012 56.0493 32.669C56.2135 32.7368 56.3895 32.7716 56.5672 32.7713C56.891 32.7708 57.2038 32.6542 57.449 32.4428C57.6943 32.2314 57.8556 31.9391 57.9039 31.619C57.9092 31.5841 58.4492 28.0955 60.1908 25.3024C60.7967 24.3301 61.1172 23.2215 61.1172 22.0965V12.4004C61.1172 12.3434 61.1136 12.2863 61.1064 12.2296ZM58.4119 22.0959C58.4119 22.7001 58.2414 23.2995 57.9186 23.8324V20.1805C57.9186 20.1316 57.9159 20.083 57.9106 20.0345C57.8894 19.838 57.3305 15.2027 52.3641 13.3784L52.3458 13.3718L46.0497 11.1615C45.3444 10.9141 44.6024 10.7878 43.855 10.7879C43.0569 10.7879 42.2592 10.9318 41.5034 11.2193C39.6978 11.9052 38.2995 12.4101 37.4603 12.6791C37.0746 12.8022 36.6721 12.8644 36.2672 12.8637H30.2858C30.2278 12.8637 30.1697 12.8674 30.112 12.8748C29.8831 12.9045 24.4883 13.6716 23.1306 19.7568C23.109 19.8535 23.0981 19.9523 23.0981 20.0513V22.8351C22.8008 22.1467 22.6475 21.4048 22.6477 20.6549V13.5315C22.6477 7.65148 27.4316 2.86758 33.3114 2.86758H51.3294C52.0753 3.02648 52.9819 3.35258 53.3258 4.01602C53.7469 4.82805 53.2672 5.94617 53.2667 5.94711C53.1814 6.12879 53.1376 6.32719 53.1385 6.52791C53.1393 6.72863 53.1849 6.92664 53.2718 7.10757C53.3587 7.28851 53.4847 7.44783 53.6409 7.57399C53.797 7.70014 53.9792 7.78997 54.1744 7.83695C57.6178 8.66586 58.3202 11.9685 58.4117 12.5027L58.4119 22.0959Z" fill="#5D636B"/>
<path d="M57.9108 20.0346C57.8895 19.8382 57.3306 15.2028 52.3642 13.3785L52.346 13.3719L46.0499 11.1616C44.575 10.6445 42.9648 10.6649 41.5035 11.2191C39.6978 11.905 38.2996 12.4099 37.4603 12.6791C37.0746 12.8021 36.6721 12.8643 36.2672 12.8635H30.2858C30.2278 12.8635 30.1697 12.8672 30.112 12.8746C29.8831 12.9042 24.4883 13.6714 23.1306 19.7566C23.1091 19.8533 23.0982 19.9521 23.0981 20.0511V31.6786L23.0985 31.7086C23.1074 32.1125 23.3931 41.6511 29.9838 46.0135L30.0178 46.0375C30.0461 46.0575 30.0744 46.0775 30.1039 46.0974C30.4876 46.3569 30.8619 46.6301 31.2261 46.9163C33.1461 48.4239 36.7644 50.9272 39.6188 50.9272H39.6346C39.7895 50.9442 40.0663 50.9671 40.4416 50.9671C42.0592 50.9671 45.5105 50.5432 48.9674 47.4182C49.5475 46.8939 50.1999 46.3811 50.9071 45.8939L51.0081 45.8232C51.0411 45.7999 51.0741 45.7764 51.1081 45.7536C53.3066 44.2771 57.1141 40.4671 57.9135 31.5399C57.9171 31.4999 57.9189 31.4594 57.9189 31.4191V20.1807C57.9187 20.1319 57.916 20.0831 57.9108 20.0346ZM55.2135 31.358C54.4764 39.4146 51.0438 42.5378 49.5997 43.5077C49.5485 43.5422 49.4978 43.5778 49.4472 43.6135L49.3722 43.6663C48.5677 44.2205 47.8211 44.8077 47.1533 45.4113C43.5269 48.6897 40.0799 48.2597 39.9108 48.236C39.8321 48.2242 39.7525 48.2193 39.673 48.2214C38.2344 48.2583 35.6406 46.9438 32.8967 44.7888C32.4771 44.4591 32.0467 44.145 31.6177 43.8555L31.5844 43.8321C31.5505 43.8077 31.5161 43.7839 31.4814 43.7607C26.163 40.2405 25.815 32.0028 25.8033 31.6591V20.206C26.725 16.3938 29.8789 15.663 30.393 15.5686H36.2674C36.9581 15.5686 37.6374 15.4632 38.2866 15.255C39.4031 14.8969 41.1747 14.2378 42.4642 13.748C43.3287 13.42 44.2813 13.408 45.1538 13.7142L51.4403 15.9211C54.5831 17.0805 55.1441 19.8396 55.2136 20.273V31.358H55.2135ZM41.7097 55.4525C41.606 55.2453 41.4509 55.0681 41.2591 54.938C41.0673 54.8079 40.8453 54.7292 40.6144 54.7096C40.3835 54.6903 40.1516 54.7304 39.9407 54.8262C39.7297 54.9221 39.5469 55.0703 39.4095 55.2569L36.1695 59.6697C35.9574 59.9587 35.8686 60.3201 35.9228 60.6746C35.9769 61.029 36.1695 61.3474 36.4583 61.5599C36.69 61.731 36.9705 61.8233 37.2586 61.8232C37.4707 61.8234 37.6799 61.7738 37.8693 61.6782C38.0586 61.5826 38.2228 61.4437 38.3485 61.2728L41.5886 56.8763C41.76 56.6438 41.8525 56.3466 41.8525 56.0578C41.8525 55.8477 41.8036 55.6405 41.7097 55.4525ZM41.7964 77.2303C41.5522 76.9748 41.2175 76.8251 40.8643 76.8133C40.511 76.8015 40.1671 76.9285 39.9063 77.1671L39.597 77.4499C39.3722 77.6555 39.2233 77.9311 39.1747 78.2319C39.126 78.5327 39.1804 78.8412 39.3289 79.1072L39.3385 79.1243C39.4404 79.3069 39.5833 79.4634 39.7559 79.5814C39.9285 79.6995 40.1262 79.7759 40.3333 79.8047C40.5405 79.8335 40.7515 79.8138 40.9497 79.7473C41.148 79.6807 41.3281 79.5691 41.476 79.4211L41.7755 79.1213C42.0254 78.8714 42.1676 78.5335 42.1715 78.1801C42.1754 77.8266 42.0408 77.4857 41.7964 77.2303Z" fill="#5D636B"/>
<path d="M41.403 77.4499L41.0938 77.1671C40.8329 76.9289 40.4891 76.8023 40.136 76.8143C39.7829 76.8262 39.4485 76.9759 39.2043 77.2313C38.9601 77.4866 38.8255 77.8274 38.8293 78.1807C38.8331 78.534 38.975 78.8718 39.2246 79.1218L39.5246 79.4216C39.673 79.5702 39.854 79.6821 40.0532 79.7485C40.2524 79.815 40.4643 79.8341 40.6722 79.8044C40.8801 79.7747 41.0782 79.697 41.2508 79.5775C41.4234 79.4579 41.5659 79.2998 41.6668 79.1157L41.6763 79.0987C41.822 78.8329 41.8742 78.526 41.8246 78.2271C41.7751 77.9281 41.6266 77.6545 41.403 77.4499Z" fill="#5D636B"/>
<path d="M41.4258 77.4714L41.4241 77.4698C41.1739 77.2358 40.8442 77.1055 40.5016 77.1051C40.159 77.1046 39.829 77.2342 39.5782 77.4676L39.5741 77.4714C39.4388 77.5948 39.3299 77.7444 39.2541 77.9112C39.1784 78.078 39.1373 78.2584 39.1333 78.4415C39.1294 78.6247 39.1627 78.8067 39.2312 78.9766C39.2997 79.1465 39.402 79.3006 39.5319 79.4298L39.5461 79.444C39.7993 79.6964 40.1424 79.8379 40.4999 79.8374C40.6775 79.8377 40.8534 79.8028 41.0175 79.7349C41.1816 79.6669 41.3307 79.5672 41.4561 79.4415L41.4704 79.4273C41.5996 79.298 41.7014 79.1438 41.7694 78.9741C41.8374 78.8044 41.8703 78.6226 41.8661 78.4398C41.8621 78.257 41.821 78.0769 41.7453 77.9104C41.6696 77.7439 41.5609 77.5946 41.4258 77.4714ZM40.9388 54.7484C40.3786 54.569 39.7639 54.777 39.4228 55.2567C39.0413 55.7939 39.1043 56.5259 39.5691 56.9929C39.6947 57.1192 39.8441 57.2193 40.0087 57.2875C40.1732 57.3557 40.3496 57.3907 40.5277 57.3904C40.7994 57.3904 41.0725 57.3092 41.3082 57.1432C41.4856 57.0184 41.6304 56.8528 41.7303 56.6603C41.8302 56.4678 41.8824 56.254 41.8824 56.0371V56.0339C41.8824 55.4453 41.4996 54.9273 40.9388 54.7484Z" fill="#5D636B"/>
<path d="M41.5991 55.2452L41.5876 55.2296C41.4184 55.0005 41.1813 54.8307 40.9099 54.7444C40.6386 54.658 40.3469 54.6595 40.0765 54.7486C39.8061 54.8377 39.5707 55.0099 39.4038 55.2406C39.237 55.4714 39.1473 55.7489 39.1474 56.0336V56.0568C39.1474 56.5547 39.4269 57.0086 39.8657 57.2443C40.0617 57.3492 40.2806 57.4039 40.5029 57.4036C40.7671 57.4036 41.031 57.3271 41.2579 57.1768C41.411 57.0756 41.5419 56.9442 41.6425 56.7908C41.7432 56.6374 41.8116 56.465 41.8436 56.2843C41.8755 56.1036 41.8703 55.9183 41.8283 55.7396C41.7862 55.561 41.7083 55.3927 41.5991 55.2452Z" fill="#5D636B"/>
<path d="M56.5905 50.9957C56.5213 50.8127 56.4132 50.6468 56.2736 50.5097C56.134 50.3726 55.9663 50.2674 55.7821 50.2015L50.596 48.3424C50.397 48.2708 50.184 48.247 49.974 48.2728C49.7641 48.2986 49.5632 48.3732 49.3874 48.4908L39.7783 54.9118L39.7704 54.9171L40.5249 56.039L39.7535 54.9285C39.5355 55.0728 39.3639 55.2772 39.2597 55.5169C39.1554 55.7567 39.1229 56.0216 39.166 56.2794C39.2008 56.4886 39.2844 56.6867 39.4099 56.8577L46.4451 66.4391C46.5795 66.6224 46.7579 66.7688 46.9639 66.8648C47.1699 66.9609 47.3968 67.0034 47.6236 66.9886C47.8503 66.9738 48.0697 66.902 48.2614 66.7799C48.4531 66.6578 48.611 66.4894 48.7204 66.2902L56.5105 52.1265C56.6049 51.955 56.661 51.7651 56.6748 51.5699C56.6886 51.3746 56.6599 51.1787 56.5905 50.9957ZM47.3713 63.1299L42.4268 56.3955L50.324 51.1185L53.376 52.2127L47.3713 63.1299Z" fill="#5D636B"/>
<path d="M41.8327 55.8239C41.8012 55.6442 41.7337 55.4727 41.6343 55.3197C41.5348 55.1668 41.4054 55.0355 41.2539 54.9339L31.6128 48.4915C31.437 48.3741 31.2361 48.2995 31.0262 48.2738C30.8163 48.248 30.6033 48.2717 30.4042 48.3431L25.2182 50.2022C25.0339 50.2681 24.8662 50.3733 24.7265 50.5105C24.5869 50.6476 24.4787 50.8134 24.4094 50.9965C24.3402 51.1795 24.3114 51.3754 24.3253 51.5706C24.3391 51.7658 24.3952 51.9557 24.4896 52.1272L32.2797 66.2909C32.3964 66.5031 32.568 66.6801 32.7765 66.8034C32.9849 66.9266 33.2227 66.9917 33.4649 66.9917C33.6772 66.9916 33.8865 66.9416 34.0759 66.8456C34.2654 66.7497 34.4295 66.6105 34.5552 66.4394L38.3142 61.3198L38.3231 61.3075L41.5905 56.8573C41.6985 56.7103 41.7756 56.543 41.8172 56.3654C41.8588 56.1878 41.8641 56.0036 41.8327 55.8239ZM36.1339 59.7183L36.1242 59.7314L33.6285 63.1306L27.6238 52.2133L30.676 51.1192L38.573 56.3962L36.1339 59.7183ZM80.433 74.0865L78.6881 63.5501C78.1383 60.2297 75.8307 57.4555 72.6656 56.3108L55.7853 50.2036C55.5311 50.1116 55.2552 50.0979 54.9931 50.1642C54.7311 50.2306 54.4949 50.3739 54.3151 50.5758C54.1353 50.7777 54.0201 51.0288 53.9844 51.2968C53.9487 51.5648 53.9942 51.8373 54.1149 52.0792L57.6392 59.147L54.181 59.2003C53.95 59.2038 53.7238 59.2664 53.5239 59.3821C53.324 59.4978 53.1571 59.6628 53.039 59.8613C52.921 60.0598 52.8557 60.2853 52.8495 60.5162C52.8433 60.7471 52.8964 60.9757 53.0036 61.1803L54.4221 63.8886L39.906 77.1678C39.8911 77.1813 39.8766 77.1952 39.8624 77.2094L39.5627 77.509C39.356 77.7158 39.2218 77.984 39.1803 78.2734C39.1388 78.5628 39.1922 78.8579 39.3325 79.1144L39.3431 79.1336C39.4597 79.3465 39.6313 79.5241 39.8401 79.6479C40.0489 79.7717 40.2872 79.837 40.5299 79.837H75.5566C76.2742 79.8376 76.9832 79.6817 77.6343 79.3802C78.2855 79.0786 78.863 78.6386 79.3266 78.0909C79.7911 77.544 80.1307 76.9025 80.3218 76.2109C80.5129 75.5193 80.5508 74.7943 80.433 74.0865ZM77.2638 76.3414C77.0538 76.5893 76.7923 76.7885 76.4975 76.9251C76.2027 77.0616 75.8816 77.1322 75.5567 77.132H43.9527L57.0169 65.1814C57.2373 64.98 57.3848 64.7113 57.4364 64.4172C57.488 64.1232 57.4408 63.8203 57.3022 63.5559L56.4197 61.8711L59.83 61.8186C60.0587 61.8151 60.2827 61.7536 60.4812 61.64C60.6796 61.5264 60.8461 61.3644 60.9649 61.169C61.0837 60.9736 61.1511 60.7513 61.1607 60.5228C61.1703 60.2943 61.1218 60.0671 61.0197 59.8625L58.0452 53.8975L71.7461 58.8542C73.9922 59.6667 75.6299 61.6355 76.02 63.9919L77.7649 74.5283V74.5284C77.8182 74.8489 77.8009 75.1771 77.7144 75.4902C77.6279 75.8033 77.4741 76.0938 77.2638 76.3414Z" fill="#5D636B"/>
<path d="M41.4376 77.4821L41.4218 77.4679C41.1639 77.2346 40.8261 77.1095 40.4785 77.1186C40.1309 77.1278 39.8001 77.2704 39.5549 77.517L39.5408 77.5312C39.3525 77.7207 39.2245 77.9617 39.1729 78.2239C39.1214 78.486 39.1486 78.7576 39.2512 79.0042C39.3538 79.2509 39.5272 79.4617 39.7495 79.61C39.9717 79.7583 40.2329 79.8374 40.5001 79.8374H40.5297C40.8029 79.8374 41.0697 79.7547 41.295 79.6001C41.5202 79.4455 41.6934 79.2263 41.7916 78.9713C41.89 78.7164 41.9088 78.4377 41.8456 78.1718C41.7824 77.906 41.6402 77.6655 41.4376 77.4821Z" fill="#5D636B"/>
<path d="M41.3951 77.4429C41.2435 77.3064 41.063 77.2059 40.8671 77.1491C40.6711 77.0923 40.4649 77.0806 40.2638 77.1149C40.0627 77.149 39.872 77.2281 39.7058 77.3464C39.5396 77.4646 39.4024 77.6189 39.3043 77.7977L39.2949 77.8148C39.156 78.0681 39.1018 78.3592 39.1403 78.6455C39.1788 78.9318 39.3079 79.1983 39.5088 79.4059L39.5137 79.4109C39.6397 79.5414 39.7907 79.6452 39.9578 79.716C40.1248 79.7868 40.3044 79.8231 40.4858 79.8229C40.8116 79.8229 41.1384 79.7057 41.3971 79.4693L41.4113 79.4565C41.5342 79.3444 41.6354 79.2106 41.7098 79.0618C41.9821 78.5176 41.8474 77.8498 41.3951 77.4429Z" fill="#5D636B"/>
<path d="M41.4534 77.5258L41.4478 77.52L41.437 77.5092L41.137 77.2095C41.123 77.1953 41.1085 77.1815 41.0937 77.1681L26.5776 63.8889L27.9962 61.1806C28.1033 60.9761 28.1562 60.7475 28.15 60.5166C28.1437 60.2858 28.0785 60.0604 27.9605 59.8619C27.8425 59.6635 27.6756 59.4985 27.4758 59.3827C27.276 59.267 27.0499 59.2043 26.819 59.2006L23.3604 59.1474L26.8848 52.0795C27.1317 51.5845 27.052 50.9891 26.6843 50.5761C26.3167 50.1631 25.7342 50.0155 25.2143 50.2039L8.33419 56.3111C5.16919 57.4556 2.86138 60.2299 2.31154 63.5505L0.566692 74.0869C0.448904 74.7947 0.486905 75.5197 0.678046 76.2113C0.869187 76.9029 1.20887 77.5445 1.67341 78.0914C2.13711 78.639 2.71463 79.0789 3.36574 79.3804C4.01685 79.682 4.72587 79.8379 5.44341 79.8374H40.5C40.7678 79.8375 41.0297 79.758 41.2524 79.6091C41.475 79.4601 41.6484 79.2484 41.7505 79.0008C41.8527 78.7531 41.879 78.4807 41.8261 78.2181C41.7732 77.9555 41.6435 77.7146 41.4534 77.5258ZM5.44357 77.1324C5.11868 77.1326 4.79764 77.062 4.50284 76.9255C4.20804 76.7889 3.94658 76.5897 3.73669 76.3417C3.52642 76.0941 3.37267 75.8036 3.28616 75.4904C3.19964 75.1773 3.18244 74.8491 3.23575 74.5286L4.9806 63.9922C5.17312 62.8337 5.67044 61.7472 6.42151 60.8443C7.17258 59.9415 8.15036 59.2547 9.2545 58.8545L22.9553 53.8978L19.9809 59.8625C19.8788 60.0672 19.8303 60.2944 19.8399 60.5229C19.8495 60.7514 19.9169 60.9737 20.0358 61.1691C20.1545 61.3645 20.3209 61.5266 20.5194 61.6402C20.7179 61.7538 20.9419 61.8152 21.1706 61.8186L24.5809 61.8713L23.6984 63.5561C23.5599 63.8205 23.5128 64.1234 23.5643 64.4174C23.6159 64.7114 23.7633 64.9801 23.9836 65.1816L37.0478 77.1324H5.44357Z" fill="#5D636B"/>
<path d="M45.1038 60.8684C45.152 60.6755 45.1571 60.4744 45.1188 60.2793C45.0804 60.0842 44.9995 59.8999 44.8818 59.7397L41.5902 55.257C41.2443 54.7858 40.6343 54.5984 40.079 54.7806C39.7859 54.8773 39.5349 55.0715 39.3677 55.3309L36.1363 59.7155C35.9681 59.943 35.8755 60.2175 35.8715 60.5004C35.8674 60.7834 35.9522 61.0604 36.1138 61.2927L37.4899 63.2687L36.024 72.5089C35.977 72.8056 36.03 73.1094 36.1747 73.3727L39.3151 79.0822C39.4318 79.2944 39.6033 79.4714 39.8118 79.5947C40.0203 79.718 40.258 79.783 40.5002 79.783C40.7424 79.783 40.9802 79.718 41.1886 79.5947C41.3971 79.4714 41.5687 79.2944 41.6854 79.0822L44.8491 73.3303C44.9589 73.1306 45.0164 72.9064 45.0165 72.6786V72.6778C45.0165 72.6069 45.0107 72.5359 44.9997 72.4658L43.5405 63.2689L44.9018 61.3145C44.9954 61.1792 45.0638 61.0281 45.1038 60.8684ZM40.5002 75.6239L38.7682 72.475L40.2469 63.1548C40.3017 62.8097 40.2208 62.4567 40.021 62.17L38.8876 60.5422L40.5041 58.3487L42.1291 60.5619L41.0093 62.17C40.8096 62.4568 40.7286 62.8097 40.7833 63.1548L42.2554 72.4325L40.5002 75.6239Z" fill="#5D636B"/>
</g>
<defs>
<clipPath id="clip0_761_14623">
<rect width="80" height="80" fill="white" transform="translate(0.5)"/>
</clipPath>
</defs>
</svg>
