<svg width="16" height="12" viewBox="0 0 16 12" fill="none" xmlns="http://www.w3.org/2000/svg">
<path d="M5.1084 2.52344C4.92611 2.52344 4.77116 2.46191 4.64355 2.33887C4.52051 2.21126 4.45898 2.05632 4.45898 1.87402C4.45898 1.69173 4.52051 1.53906 4.64355 1.41602C4.77116 1.28841 4.92611 1.22461 5.1084 1.22461H14.3916C14.5739 1.22461 14.7288 1.28841 14.8564 1.41602C14.984 1.53906 15.0479 1.69173 15.0479 1.87402C15.0479 2.06087 14.984 2.21582 14.8564 2.33887C14.7288 2.46191 14.5739 2.52344 14.3916 2.52344H5.1084ZM5.1084 6.7207C4.92611 6.7207 4.77116 6.65918 4.64355 6.53613C4.52051 6.40853 4.45898 6.25358 4.45898 6.07129C4.45898 5.889 4.52051 5.73633 4.64355 5.61328C4.77116 5.48568 4.92611 5.42188 5.1084 5.42188H14.3916C14.5739 5.42188 14.7288 5.48568 14.8564 5.61328C14.984 5.73633 15.0479 5.889 15.0479 6.07129C15.0479 6.25358 14.984 6.40853 14.8564 6.53613C14.7288 6.65918 14.5739 6.7207 14.3916 6.7207H5.1084ZM5.1084 10.918C4.92611 10.918 4.77116 10.8564 4.64355 10.7334C4.52051 10.6104 4.45898 10.4577 4.45898 10.2754C4.45898 10.0885 4.52051 9.93359 4.64355 9.81055C4.77116 9.68294 4.92611 9.61914 5.1084 9.61914H14.3916C14.5739 9.61914 14.7288 9.68294 14.8564 9.81055C14.984 9.93815 15.0479 10.0931 15.0479 10.2754C15.0479 10.4577 14.984 10.6104 14.8564 10.7334C14.7288 10.8564 14.5739 10.918 14.3916 10.918H5.1084ZM1.90918 2.83789C1.64486 2.83789 1.41699 2.74447 1.22559 2.55762C1.03874 2.37077 0.945312 2.1429 0.945312 1.87402C0.945312 1.60514 1.03874 1.37728 1.22559 1.19043C1.41699 1.00358 1.64486 0.910156 1.90918 0.910156C2.1735 0.910156 2.39909 1.00358 2.58594 1.19043C2.77734 1.37728 2.87305 1.60514 2.87305 1.87402C2.87305 2.1429 2.77734 2.37077 2.58594 2.55762C2.39909 2.74447 2.1735 2.83789 1.90918 2.83789ZM1.90918 7.03516C1.64486 7.03516 1.41699 6.94173 1.22559 6.75488C1.03874 6.56348 0.945312 6.33561 0.945312 6.07129C0.945312 5.80697 1.03874 5.58138 1.22559 5.39453C1.41699 5.20312 1.64486 5.10742 1.90918 5.10742C2.1735 5.10742 2.39909 5.20312 2.58594 5.39453C2.77734 5.58138 2.87305 5.80697 2.87305 6.07129C2.87305 6.33561 2.77734 6.56348 2.58594 6.75488C2.39909 6.94173 2.1735 7.03516 1.90918 7.03516ZM1.90918 11.2324C1.64486 11.2324 1.41699 11.139 1.22559 10.9521C1.03874 10.7653 0.945312 10.5397 0.945312 10.2754C0.945312 10.0065 1.03874 9.77865 1.22559 9.5918C1.41699 9.40495 1.64486 9.31152 1.90918 9.31152C2.1735 9.31152 2.39909 9.40495 2.58594 9.5918C2.77734 9.77865 2.87305 10.0065 2.87305 10.2754C2.87305 10.5397 2.77734 10.7653 2.58594 10.9521C2.39909 11.139 2.1735 11.2324 1.90918 11.2324Z" fill="black" fill-opacity="0.85"/>
</svg>
