<svg width="17" height="17" viewBox="0 0 17 17" fill="none" xmlns="http://www.w3.org/2000/svg">
<path d="M8.9375 0.641602C4.52631 0.641602 0.9375 4.23041 0.9375 8.6416C0.9375 13.0528 4.52631 16.6416 8.9375 16.6416C13.3487 16.6416 16.9375 13.0528 16.9375 8.6416C16.9375 4.23041 13.3487 0.641602 8.9375 0.641602ZM8.9375 15.7767C6.97764 15.7767 5.19999 14.9823 3.90916 13.6989C3.39122 13.184 2.95495 12.593 2.61541 11.9464C2.09654 10.9578 1.80238 9.83346 1.80238 8.6416C1.80238 4.70728 5.00318 1.50648 8.9375 1.50648C10.8036 1.50648 12.5044 2.22692 13.7772 3.40391C14.4371 4.01408 14.982 4.74685 15.3749 5.56588C15.822 6.49774 16.0726 7.54094 16.0726 8.6416C16.0726 12.5759 12.8718 15.7767 8.9375 15.7767Z" fill="#E74649"/>
<path d="M9.7815 10.7827C10.7304 10.9811 11.5827 11.5146 12.1815 12.2848L12.8643 11.754C12.1399 10.8221 11.1078 10.1765 9.95853 9.9361C8.11012 9.54982 6.1668 10.2632 5.00781 11.754L5.69069 12.2848C6.64832 11.053 8.25413 10.4632 9.7815 10.7827Z" fill="#E74649"/>
<path d="M6.27113 7.72243C6.74878 7.72243 7.136 7.33521 7.136 6.85755C7.136 6.37989 6.74878 5.99268 6.27113 5.99268C5.79347 5.99268 5.40625 6.37989 5.40625 6.85755C5.40625 7.33521 5.79347 7.72243 6.27113 7.72243Z" fill="#E74649"/>
<path d="M11.6227 7.72243C12.1003 7.72243 12.4876 7.33521 12.4876 6.85755C12.4876 6.37989 12.1003 5.99268 11.6227 5.99268C11.145 5.99268 10.7578 6.37989 10.7578 6.85755C10.7578 7.33521 11.145 7.72243 11.6227 7.72243Z" fill="#E74649"/>
</svg>
