<svg width="35" height="40" viewBox="0 0 35 40" fill="none" xmlns="http://www.w3.org/2000/svg">
<path d="M34.104 8.3618L25.932 0.335703C25.7129 0.120495 25.4179 -5.48722e-05 25.1108 1.87372e-08L4.45062 1.87372e-08C2.03984 1.87372e-08 0.078125 1.96133 0.078125 4.37258V35.6273C0.078125 38.0384 2.03945 40 4.4507 40H30.082C32.493 40 34.4546 38.0387 34.4546 35.6274V9.19797C34.4546 9.04228 34.4236 8.88816 34.3634 8.74459C34.3032 8.60102 34.215 8.47089 34.1039 8.3618H34.104ZM26.2827 3.96547L30.4172 8.02609H26.6552C26.5565 8.02595 26.4618 7.98664 26.3919 7.91678C26.3221 7.84692 26.2828 7.75222 26.2827 7.65344V3.96547ZM30.0821 37.6562H4.4507C3.33219 37.6562 2.42188 36.7463 2.42188 35.6274V4.37266C2.42188 3.25383 3.33188 2.34375 4.4507 2.34375H23.9392V7.65352C23.9392 9.15133 25.1578 10.3699 26.6556 10.3699H32.1109V35.6273C32.1109 36.7461 31.2009 37.6562 30.082 37.6562L30.0821 37.6562Z" fill="#5D636B"/>
<path d="M25.402 18.5938H8.88208C8.23481 18.5938 7.71021 19.1184 7.71021 19.7656C7.71021 20.4129 8.23481 20.9375 8.88208 20.9375H25.4019C26.0492 20.9375 26.5738 20.4129 26.5738 19.7656C26.5738 19.1184 26.0493 18.5938 25.402 18.5938ZM8.88216 25.625H22.352C22.9993 25.625 23.5239 25.1004 23.5239 24.4531C23.5239 23.8059 22.9993 23.2812 22.352 23.2812H8.88216C8.23489 23.2812 7.71028 23.8059 7.71028 24.4531C7.71028 25.1004 8.23489 25.625 8.88216 25.625ZM23.9771 27.9688H8.88216C8.23489 27.9688 7.71028 28.4934 7.71028 29.1406C7.71028 29.7879 8.23489 30.3125 8.88216 30.3125H23.9771C24.624 30.3125 25.149 29.7879 25.149 29.1406C25.149 28.4934 24.624 27.9688 23.9771 27.9688Z" fill="#5D636B"/>
</svg>
