<svg width="13" height="14" viewBox="0 0 13 14" fill="none" xmlns="http://www.w3.org/2000/svg">
<circle cx="6.5" cy="6.98047" r="6.25" stroke="#5D636B" stroke-width="0.5"/>
<path d="M6.12131 9.98047V5.56229H6.80014V9.98047H6.12131ZM6.46648 4.82592C6.33416 4.82592 6.22006 4.78086 6.12418 4.69073C6.03022 4.6006 5.98324 4.49226 5.98324 4.3657C5.98324 4.23913 6.03022 4.13079 6.12418 4.04066C6.22006 3.95053 6.33416 3.90547 6.46648 3.90547C6.59879 3.90547 6.71193 3.95053 6.80589 4.04066C6.90178 4.13079 6.94972 4.23913 6.94972 4.3657C6.94972 4.49226 6.90178 4.6006 6.80589 4.69073C6.71193 4.78086 6.59879 4.82592 6.46648 4.82592Z" fill="#5D636B"/>
</svg>
