<svg width="20" height="24" viewBox="0 0 20 24" fill="none" xmlns="http://www.w3.org/2000/svg">
<path d="M13.3663 4.48532L13.6101 3.98969C13.7875 3.63569 13.8722 3.24245 13.8562 2.8468C13.8402 2.45116 13.7241 2.06604 13.5187 1.7275C13.3133 1.38897 13.0253 1.10809 12.6818 0.911167C12.3383 0.714245 11.9504 0.607721 11.5545 0.601566H8.30447C7.9051 0.600864 7.51219 0.702389 7.16315 0.896478C6.81412 1.09057 6.52056 1.37076 6.31043 1.71039C6.1003 2.05001 5.9806 2.43777 5.96271 2.83674C5.94481 3.23571 6.02934 3.63262 6.20822 3.98969L6.45197 4.48532C4.31491 5.28921 2.52776 6.81763 1.40208 8.80412C0.276397 10.7906 -0.116412 13.1092 0.29213 15.3556C0.700673 17.602 1.88465 19.6338 3.63766 21.0967C5.39068 22.5597 7.60152 23.361 9.88478 23.361C12.168 23.361 14.3789 22.5597 16.1319 21.0967C17.8849 19.6338 19.0689 17.602 19.4774 15.3556C19.886 13.1092 19.4932 10.7906 18.3675 8.80412C17.2418 6.81763 15.4547 5.28921 13.3176 4.48532H13.3663ZM7.67885 3.26657C7.62363 3.15841 7.59688 3.03797 7.6011 2.91661C7.60533 2.79525 7.64039 2.67697 7.70299 2.57291C7.76558 2.46885 7.85365 2.38245 7.95888 2.32186C8.06412 2.26126 8.18305 2.22847 8.30447 2.22657H11.5545C11.6773 2.2257 11.7982 2.25648 11.9057 2.31594C12.0131 2.3754 12.1034 2.46152 12.1679 2.56602C12.2324 2.67052 12.2689 2.78987 12.2739 2.91257C12.2789 3.03527 12.2522 3.15719 12.1963 3.26657L11.8145 4.03032C10.5966 3.78989 9.34355 3.78989 8.12572 4.03032L7.67885 3.26657ZM9.92947 21.7266C8.01633 21.7216 6.1663 21.0417 4.70524 19.8066C3.24419 18.5715 2.26584 16.8604 1.9425 14.9748C1.61917 13.0891 1.9716 11.1499 2.93771 9.49859C3.90382 7.84729 5.42165 6.58988 7.22385 5.94782L7.57322 6.65469C7.67301 6.84077 7.84133 6.9807 8.0425 7.04483C8.24368 7.10896 8.46192 7.09225 8.651 6.99824C8.84007 6.90423 8.98511 6.74031 9.05541 6.5412C9.12571 6.3421 9.11573 6.12345 9.0276 5.93157L8.84072 5.56594C9.55716 5.45889 10.2855 5.45889 11.002 5.56594L10.8151 5.93157C10.727 6.12345 10.717 6.3421 10.7873 6.5412C10.8576 6.74031 11.0026 6.90423 11.1917 6.99824C11.3808 7.09225 11.599 7.10896 11.8002 7.04483C12.0014 6.9807 12.1697 6.84077 12.2695 6.65469L12.6188 5.94782C14.4198 6.58938 15.9368 7.84544 16.9031 9.49506C17.8693 11.1447 18.2229 13.0822 17.9017 14.9668C17.5805 16.8514 16.605 18.5624 15.1469 19.7988C13.6887 21.0352 11.8412 21.7178 9.92947 21.7266Z" fill="#F58A43"/>
<path d="M14.5282 9.00189C14.3728 8.86878 14.1728 8.79923 13.9683 8.80713C13.7639 8.81503 13.5699 8.8998 13.4252 9.0445C13.2805 9.1892 13.1957 9.38318 13.1878 9.58766C13.1799 9.79215 13.2495 9.99209 13.3826 10.1475C14.1944 10.9625 14.6919 12.0383 14.7871 13.1847C14.8822 14.3311 14.5689 15.4742 13.9026 16.4119L12.1394 14.6488C12.2922 14.3206 12.3699 13.9626 12.3669 13.6006C12.3669 13.1186 12.224 12.6473 11.9562 12.2464C11.6883 11.8456 11.3076 11.5332 10.8622 11.3487C10.4168 11.1642 9.92674 11.1159 9.45392 11.21C8.98109 11.304 8.54677 11.5362 8.20587 11.8771C7.86498 12.218 7.63283 12.6523 7.53878 13.1251C7.44473 13.5979 7.493 14.088 7.67749 14.5334C7.86198 14.9788 8.1744 15.3595 8.57525 15.6274C8.97609 15.8952 9.44736 16.0381 9.92945 16.0381C10.2926 16.036 10.6507 15.9527 10.9776 15.7944L13.4151 18.2319C13.4903 18.3087 13.5801 18.3697 13.6791 18.4116C13.7781 18.4534 13.8844 18.4752 13.9919 18.4756C14.0389 18.4639 14.0814 18.4385 14.1138 18.4025C14.2687 18.3763 14.4126 18.3057 14.5282 18.1994C15.1325 17.5957 15.612 16.8788 15.9391 16.0898C16.2662 15.3007 16.4346 14.4548 16.4346 13.6006C16.4346 12.7464 16.2662 11.9006 15.9391 11.1115C15.612 10.3224 15.1325 9.60557 14.5282 9.00189ZM9.92945 14.4131C9.76875 14.4131 9.61166 14.3655 9.47805 14.2762C9.34443 14.1869 9.24029 14.06 9.1788 13.9116C9.1173 13.7631 9.10121 13.5997 9.13256 13.4421C9.16391 13.2845 9.24129 13.1397 9.35492 13.0261C9.46855 12.9125 9.61333 12.8351 9.77094 12.8038C9.92855 12.7724 10.0919 12.7885 10.2404 12.85C10.3888 12.9115 10.5157 13.0156 10.605 13.1492C10.6943 13.2829 10.7419 13.4399 10.7419 13.6006C10.7419 13.8161 10.6563 14.0228 10.504 14.1752C10.3516 14.3275 10.1449 14.4131 9.92945 14.4131ZM6.48445 9.00189C6.33222 8.85056 6.12629 8.76563 5.91164 8.76562C5.69698 8.76563 5.49106 8.85056 5.33882 9.00189C4.12076 10.2208 3.43652 11.8734 3.43652 13.5966C3.43652 15.3198 4.12076 16.9724 5.33882 18.1913C5.49426 18.3244 5.69419 18.3939 5.89868 18.386C6.10317 18.3781 6.29714 18.2934 6.44184 18.1487C6.58654 18.004 6.67131 17.81 6.67921 17.6055C6.68711 17.401 6.61756 17.2011 6.48445 17.0456C6.03119 16.5929 5.67161 16.0552 5.42628 15.4634C5.18095 14.8716 5.05468 14.2372 5.05468 13.5966C5.05468 12.9559 5.18095 12.3216 5.42628 11.7297C5.67161 11.1379 6.03119 10.6003 6.48445 10.1475C6.63578 9.99529 6.72072 9.78936 6.72072 9.57471C6.72072 9.36006 6.63578 9.15413 6.48445 9.00189Z" fill="#F58A43"/>
</svg>
