<svg width="10" height="12" viewBox="0 0 10 12" fill="none" xmlns="http://www.w3.org/2000/svg">
<path d="M7.03275 4.00058H1.80975L4.92125 0.888581C4.96767 0.842159 5.0045 0.787047 5.02962 0.726394C5.05475 0.66574 5.06768 0.600732 5.06768 0.535081C5.06768 0.46943 5.05475 0.404422 5.02962 0.343768C5.0045 0.283114 4.96767 0.228003 4.92125 0.181581C4.87483 0.135158 4.81972 0.0983343 4.75906 0.0732107C4.69841 0.0480872 4.6334 0.0351562 4.56775 0.0351562C4.43516 0.0351563 4.30801 0.0878267 4.21425 0.181581L0.618752 3.77758C0.431403 3.96517 0.326172 4.21946 0.326172 4.48458C0.326172 4.74971 0.431403 5.00399 0.618752 5.19158L4.21425 8.78658C4.26058 8.83317 4.31566 8.87015 4.37633 8.89538C4.43699 8.92061 4.50205 8.9336 4.56775 8.9336C4.63346 8.9336 4.69851 8.92061 4.75918 8.89538C4.81984 8.87015 4.87493 8.83317 4.92125 8.78658C4.96772 8.74019 5.00459 8.68509 5.02975 8.62443C5.0549 8.56377 5.06785 8.49875 5.06785 8.43308C5.06785 8.36741 5.0549 8.30239 5.02975 8.24174C5.00459 8.18108 4.96772 8.12598 4.92125 8.07958L1.84175 5.00058H7.03275C7.85975 5.00058 8.53275 5.67358 8.53275 6.50058V11.5006C8.53275 11.6332 8.58543 11.7604 8.6792 11.8541C8.77297 11.9479 8.90014 12.0006 9.03275 12.0006C9.16536 12.0006 9.29254 11.9479 9.3863 11.8541C9.48007 11.7604 9.53275 11.6332 9.53275 11.5006V6.50058C9.53275 5.12208 8.41125 4.00058 7.03275 4.00058Z" fill="#5D636B"/>
</svg>
