<svg width="18" height="14" viewBox="0 0 18 14" fill="none" xmlns="http://www.w3.org/2000/svg">
<path d="M1.40527 5.81348V4.52832H16.6494V5.81348H1.40527ZM1.40527 9.61426V8.3291H16.6494V9.61426H1.40527ZM8.34375 12.9023V1.24023H9.65625V12.9023H8.34375ZM3.1416 13.4492C2.40332 13.4492 1.84505 13.2624 1.4668 12.8887C1.08854 12.515 0.899414 11.9635 0.899414 11.2344V2.9082C0.899414 2.17904 1.08854 1.6276 1.4668 1.25391C1.84505 0.875651 2.40332 0.686523 3.1416 0.686523H14.8447C15.5876 0.686523 16.1481 0.875651 16.5264 1.25391C16.9046 1.6276 17.0938 2.17904 17.0938 2.9082V11.2344C17.0938 11.9635 16.9046 12.515 16.5264 12.8887C16.1481 13.2624 15.5876 13.4492 14.8447 13.4492H3.1416ZM3.22363 12.1094H14.7695C15.084 12.1094 15.3255 12.0273 15.4941 11.8633C15.6628 11.6947 15.7471 11.4463 15.7471 11.1182V3.02441C15.7471 2.69629 15.6628 2.4502 15.4941 2.28613C15.3255 2.11751 15.084 2.0332 14.7695 2.0332H3.22363C2.90462 2.0332 2.66081 2.11751 2.49219 2.28613C2.32812 2.4502 2.24609 2.69629 2.24609 3.02441V11.1182C2.24609 11.4463 2.32812 11.6947 2.49219 11.8633C2.66081 12.0273 2.90462 12.1094 3.22363 12.1094Z" fill="black" fill-opacity="0.85"/>
</svg>
