<svg width="17" height="17" viewBox="0 0 17 17" fill="none" xmlns="http://www.w3.org/2000/svg">
<path d="M8.11719 0.641602C3.70597 0.641602 0.117188 4.23038 0.117188 8.6416C0.117188 13.0528 3.70597 16.6416 8.11719 16.6416C12.5284 16.6416 16.1172 13.0528 16.1172 8.6416C16.1172 4.23038 12.5284 0.641602 8.11719 0.641602ZM8.11719 15.6416C4.25737 15.6416 1.11719 12.5014 1.11719 8.6416C1.11719 4.78179 4.25737 1.6416 8.11719 1.6416C11.977 1.6416 15.1172 4.78179 15.1172 8.6416C15.1172 12.5014 11.977 15.6416 8.11719 15.6416ZM4.82628 7.67151C4.27466 7.67151 3.82584 7.22273 3.82584 6.67107C3.82584 6.11941 4.27462 5.67063 4.82628 5.67063C5.37794 5.67063 5.82672 6.11941 5.82672 6.67107C5.82672 7.22273 5.37794 7.67151 4.82628 7.67151ZM12.4085 6.67107C12.4085 7.2227 11.9597 7.67151 11.4081 7.67151C10.8564 7.67151 10.4076 7.22273 10.4076 6.67107C10.4076 6.11941 10.8564 5.67063 11.4081 5.67063C11.9597 5.67063 12.4085 6.11944 12.4085 6.67107ZM11.7557 11.5294C11.7557 11.8055 11.5319 12.0294 11.2557 12.0294H4.97866C4.7025 12.0294 4.47866 11.8055 4.47866 11.5294C4.47866 11.2532 4.7025 11.0294 4.97866 11.0294H11.2557C11.5319 11.0294 11.7557 11.2532 11.7557 11.5294Z" fill="#EFCE5B"/>
</svg>
