<svg width="25" height="33" viewBox="0 0 25 33" fill="none" xmlns="http://www.w3.org/2000/svg">
<path d="M12.0659 12.6182C11.6759 12.2282 11.0419 12.2262 10.6499 12.6162L7.35788 15.9102L6.06588 14.6162C5.67588 14.2262 5.04188 14.2262 4.65187 14.6162C4.26188 15.0062 4.26188 15.6402 4.65187 16.0302L6.65188 18.0302C6.84588 18.2262 7.10188 18.3242 7.35788 18.3242C7.61388 18.3242 7.86988 18.2262 8.06588 18.0322L12.0659 14.0322C12.4559 13.6422 12.4559 13.0082 12.0659 12.6182ZM12.0659 20.6182C11.6759 20.2282 11.0419 20.2262 10.6499 20.6162L7.35788 23.9102L6.06588 22.6182C5.67588 22.2282 5.04188 22.2282 4.65187 22.6182C4.26188 23.0082 4.26188 23.6422 4.65187 24.0322L6.65188 26.0322C6.84588 26.2262 7.10188 26.3242 7.35788 26.3242C7.61388 26.3242 7.86988 26.2262 8.06588 26.0322L12.0659 22.0322C12.4559 21.6422 12.4559 21.0082 12.0659 20.6182ZM19.3579 14.3242H15.3579C14.8059 14.3242 14.3579 14.7722 14.3579 15.3242C14.3579 15.8762 14.8059 16.3242 15.3579 16.3242L19.3579 16.3242C19.9099 16.3242 20.3579 15.8762 20.3579 15.3242C20.3579 14.7722 19.9099 14.3242 19.3579 14.3242ZM19.3579 22.3242H15.3579C14.8059 22.3242 14.3579 22.7722 14.3579 23.3242C14.3579 23.8762 14.8059 24.3242 15.3579 24.3242H19.3579C19.9099 24.3242 20.3579 23.8762 20.3579 23.3242C20.3579 22.7722 19.9099 22.3242 19.3579 22.3242Z" fill="#3E4248"/>
<path d="M22.3594 4.32422H18.3594V3.32422C18.3594 2.77222 17.9114 2.32422 17.3594 2.32422H15.1894C14.7754 1.16022 13.6634 0.324219 12.3594 0.324219C11.0554 0.324219 9.94337 1.16022 9.52938 2.32422L7.35938 2.32422C6.80737 2.32422 6.35938 2.77222 6.35938 3.32422V4.32422L2.35938 4.32422C1.25738 4.32422 0.359375 5.22222 0.359375 6.32422L0.359375 30.3242C0.359375 31.4262 1.25738 32.3242 2.35938 32.3242H22.3594C23.4614 32.3242 24.3594 31.4262 24.3594 30.3242L24.3594 6.32422C24.3594 5.22222 23.4614 4.32422 22.3594 4.32422ZM8.35938 4.32422H10.3594C10.9114 4.32422 11.3594 3.87622 11.3594 3.32422C11.3594 2.77222 11.8074 2.32422 12.3594 2.32422C12.9114 2.32422 13.3594 2.77222 13.3594 3.32422C13.3594 3.87622 13.8074 4.32422 14.3594 4.32422L16.3594 4.32422V6.32422L8.35938 6.32422L8.35938 4.32422ZM22.3594 30.3242L2.35938 30.3242L2.35938 6.32422L6.35938 6.32422V7.32422C6.35938 7.87622 6.80737 8.32422 7.35938 8.32422L17.3594 8.32422C17.9114 8.32422 18.3594 7.87622 18.3594 7.32422V6.32422L22.3594 6.32422L22.3594 30.3242Z" fill="#3E4248"/>
</svg>
